<mxfile host="app.diagrams.net" agent="Mozilla/5.0 (Windows NT 10.0; Win64; x64) AppleWebKit/537.36 (KHTML, like Gecko) Chrome/138.0.0.0 Safari/537.36" version="27.2.0" pages="4">
  <diagram name="第 1 页" id="Pz8v57yrPFbqjD9odqwq">
    <mxGraphModel dx="1665" dy="785" grid="1" gridSize="10" guides="1" tooltips="1" connect="1" arrows="1" fold="1" page="1" pageScale="1" pageWidth="827" pageHeight="1169" math="0" shadow="0">
      <root>
        <mxCell id="0" />
        <mxCell id="1" parent="0" />
        <mxCell id="DdsE_Sx5rnMxqN3_NsDu-1" value="用户" style="shape=umlLifeline;perimeter=lifelinePerimeter;whiteSpace=wrap;container=1;dropTarget=0;collapsible=0;recursiveResize=0;outlineConnect=0;portConstraint=eastwest;newEdgeStyle={&quot;edgeStyle&quot;:&quot;elbowEdgeStyle&quot;,&quot;elbow&quot;:&quot;vertical&quot;,&quot;curved&quot;:0,&quot;rounded&quot;:0};size=65;" parent="1" vertex="1">
          <mxGeometry x="20" y="20" width="150" height="2369" as="geometry" />
        </mxCell>
        <mxCell id="DdsE_Sx5rnMxqN3_NsDu-2" value="校验" style="shape=umlLifeline;perimeter=lifelinePerimeter;whiteSpace=wrap;container=1;dropTarget=0;collapsible=0;recursiveResize=0;outlineConnect=0;portConstraint=eastwest;newEdgeStyle={&quot;edgeStyle&quot;:&quot;elbowEdgeStyle&quot;,&quot;elbow&quot;:&quot;vertical&quot;,&quot;curved&quot;:0,&quot;rounded&quot;:0};size=65;" parent="1" vertex="1">
          <mxGeometry x="220" y="20" width="150" height="2369" as="geometry" />
        </mxCell>
        <mxCell id="DdsE_Sx5rnMxqN3_NsDu-3" value="" style="points=[];perimeter=orthogonalPerimeter;outlineConnect=0;targetShapes=umlLifeline;portConstraint=eastwest;newEdgeStyle={&quot;edgeStyle&quot;:&quot;elbowEdgeStyle&quot;,&quot;elbow&quot;:&quot;vertical&quot;,&quot;curved&quot;:0,&quot;rounded&quot;:0}" parent="DdsE_Sx5rnMxqN3_NsDu-2" vertex="1">
          <mxGeometry x="70" y="156" width="10" height="554" as="geometry" />
        </mxCell>
        <mxCell id="DdsE_Sx5rnMxqN3_NsDu-4" value="分配" style="shape=umlLifeline;perimeter=lifelinePerimeter;whiteSpace=wrap;container=1;dropTarget=0;collapsible=0;recursiveResize=0;outlineConnect=0;portConstraint=eastwest;newEdgeStyle={&quot;edgeStyle&quot;:&quot;elbowEdgeStyle&quot;,&quot;elbow&quot;:&quot;vertical&quot;,&quot;curved&quot;:0,&quot;rounded&quot;:0};size=65;" parent="1" vertex="1">
          <mxGeometry x="420" y="20" width="150" height="2369" as="geometry" />
        </mxCell>
        <mxCell id="DdsE_Sx5rnMxqN3_NsDu-5" value="" style="points=[];perimeter=orthogonalPerimeter;outlineConnect=0;targetShapes=umlLifeline;portConstraint=eastwest;newEdgeStyle={&quot;edgeStyle&quot;:&quot;elbowEdgeStyle&quot;,&quot;elbow&quot;:&quot;vertical&quot;,&quot;curved&quot;:0,&quot;rounded&quot;:0}" parent="DdsE_Sx5rnMxqN3_NsDu-4" vertex="1">
          <mxGeometry x="70" y="700" width="10" height="790" as="geometry" />
        </mxCell>
        <mxCell id="DdsE_Sx5rnMxqN3_NsDu-6" value="数据填充" style="shape=umlLifeline;perimeter=lifelinePerimeter;whiteSpace=wrap;container=1;dropTarget=0;collapsible=0;recursiveResize=0;outlineConnect=0;portConstraint=eastwest;newEdgeStyle={&quot;edgeStyle&quot;:&quot;elbowEdgeStyle&quot;,&quot;elbow&quot;:&quot;vertical&quot;,&quot;curved&quot;:0,&quot;rounded&quot;:0};size=65;" parent="1" vertex="1">
          <mxGeometry x="620" y="20" width="150" height="2369" as="geometry" />
        </mxCell>
        <mxCell id="DdsE_Sx5rnMxqN3_NsDu-7" value="" style="points=[];perimeter=orthogonalPerimeter;outlineConnect=0;targetShapes=umlLifeline;portConstraint=eastwest;newEdgeStyle={&quot;edgeStyle&quot;:&quot;elbowEdgeStyle&quot;,&quot;elbow&quot;:&quot;vertical&quot;,&quot;curved&quot;:0,&quot;rounded&quot;:0}" parent="DdsE_Sx5rnMxqN3_NsDu-6" vertex="1">
          <mxGeometry x="70" y="1480" width="10" height="538" as="geometry" />
        </mxCell>
        <mxCell id="DdsE_Sx5rnMxqN3_NsDu-8" value="数据库" style="shape=umlLifeline;perimeter=lifelinePerimeter;whiteSpace=wrap;container=1;dropTarget=0;collapsible=0;recursiveResize=0;outlineConnect=0;portConstraint=eastwest;newEdgeStyle={&quot;edgeStyle&quot;:&quot;elbowEdgeStyle&quot;,&quot;elbow&quot;:&quot;vertical&quot;,&quot;curved&quot;:0,&quot;rounded&quot;:0};size=65;" parent="1" vertex="1">
          <mxGeometry x="913" y="20" width="150" height="2369" as="geometry" />
        </mxCell>
        <mxCell id="DdsE_Sx5rnMxqN3_NsDu-9" value="异步处理" style="shape=umlLifeline;perimeter=lifelinePerimeter;whiteSpace=wrap;container=1;dropTarget=0;collapsible=0;recursiveResize=0;outlineConnect=0;portConstraint=eastwest;newEdgeStyle={&quot;edgeStyle&quot;:&quot;elbowEdgeStyle&quot;,&quot;elbow&quot;:&quot;vertical&quot;,&quot;curved&quot;:0,&quot;rounded&quot;:0};size=65;" parent="1" vertex="1">
          <mxGeometry x="1113" y="20" width="150" height="2369" as="geometry" />
        </mxCell>
        <mxCell id="DdsE_Sx5rnMxqN3_NsDu-10" value="" style="points=[];perimeter=orthogonalPerimeter;outlineConnect=0;targetShapes=umlLifeline;portConstraint=eastwest;newEdgeStyle={&quot;edgeStyle&quot;:&quot;elbowEdgeStyle&quot;,&quot;elbow&quot;:&quot;vertical&quot;,&quot;curved&quot;:0,&quot;rounded&quot;:0}" parent="DdsE_Sx5rnMxqN3_NsDu-9" vertex="1">
          <mxGeometry x="70" y="2008" width="10" height="296" as="geometry" />
        </mxCell>
        <mxCell id="DdsE_Sx5rnMxqN3_NsDu-14" value="alt" style="shape=umlFrame;dashed=1;pointerEvents=0;dropTarget=0;strokeColor=#B3B3B3;height=20;width=30" parent="1" vertex="1">
          <mxGeometry x="74" y="278" width="925" height="472" as="geometry" />
        </mxCell>
        <mxCell id="DdsE_Sx5rnMxqN3_NsDu-15" value="[校验失败]" style="text;strokeColor=none;fillColor=none;align=center;verticalAlign=middle;whiteSpace=wrap;" parent="DdsE_Sx5rnMxqN3_NsDu-14" vertex="1">
          <mxGeometry x="30" width="895" height="20" as="geometry" />
        </mxCell>
        <mxCell id="DdsE_Sx5rnMxqN3_NsDu-16" value="[校验通过]" style="shape=line;dashed=1;whiteSpace=wrap;verticalAlign=top;labelPosition=center;verticalLabelPosition=middle;align=center;strokeColor=#B3B3B3;" parent="DdsE_Sx5rnMxqN3_NsDu-14" vertex="1">
          <mxGeometry y="106" width="925" height="4" as="geometry" />
        </mxCell>
        <mxCell id="DdsE_Sx5rnMxqN3_NsDu-17" value="alt" style="shape=umlFrame;dashed=1;pointerEvents=0;dropTarget=0;strokeColor=#B3B3B3;height=20;width=30" parent="1" vertex="1">
          <mxGeometry x="84" y="1318" width="622" height="202" as="geometry" />
        </mxCell>
        <mxCell id="DdsE_Sx5rnMxqN3_NsDu-18" value="[分配到城市成功]" style="text;strokeColor=none;fillColor=none;align=center;verticalAlign=middle;whiteSpace=wrap;" parent="DdsE_Sx5rnMxqN3_NsDu-17" vertex="1">
          <mxGeometry x="30" width="592" height="20" as="geometry" />
        </mxCell>
        <mxCell id="DdsE_Sx5rnMxqN3_NsDu-19" value="[失败]" style="shape=line;dashed=1;whiteSpace=wrap;verticalAlign=top;labelPosition=center;verticalLabelPosition=middle;align=center;strokeColor=#B3B3B3;" parent="DdsE_Sx5rnMxqN3_NsDu-17" vertex="1">
          <mxGeometry y="106" width="622" height="4" as="geometry" />
        </mxCell>
        <mxCell id="DdsE_Sx5rnMxqN3_NsDu-20" value="alt" style="shape=umlFrame;dashed=1;pointerEvents=0;dropTarget=0;strokeColor=#B3B3B3;height=20;width=30" parent="1" vertex="1">
          <mxGeometry x="74" y="1086" width="642" height="444" as="geometry" />
        </mxCell>
        <mxCell id="DdsE_Sx5rnMxqN3_NsDu-21" value="[分配到店成功]" style="text;strokeColor=none;fillColor=none;align=center;verticalAlign=middle;whiteSpace=wrap;" parent="DdsE_Sx5rnMxqN3_NsDu-20" vertex="1">
          <mxGeometry x="30" width="612" height="20" as="geometry" />
        </mxCell>
        <mxCell id="DdsE_Sx5rnMxqN3_NsDu-22" value="[失败]" style="shape=line;dashed=1;whiteSpace=wrap;verticalAlign=top;labelPosition=center;verticalLabelPosition=middle;align=center;strokeColor=#B3B3B3;" parent="DdsE_Sx5rnMxqN3_NsDu-20" vertex="1">
          <mxGeometry y="106" width="642" height="4" as="geometry" />
        </mxCell>
        <mxCell id="DdsE_Sx5rnMxqN3_NsDu-23" value="alt" style="shape=umlFrame;dashed=1;pointerEvents=0;dropTarget=0;strokeColor=#B3B3B3;height=20;width=30" parent="1" vertex="1">
          <mxGeometry x="64" y="848" width="662" height="692" as="geometry" />
        </mxCell>
        <mxCell id="DdsE_Sx5rnMxqN3_NsDu-24" value="[分配到人成功]" style="text;strokeColor=none;fillColor=none;align=center;verticalAlign=middle;whiteSpace=wrap;" parent="DdsE_Sx5rnMxqN3_NsDu-23" vertex="1">
          <mxGeometry x="30" width="632" height="20" as="geometry" />
        </mxCell>
        <mxCell id="DdsE_Sx5rnMxqN3_NsDu-25" value="[失败]" style="shape=line;dashed=1;whiteSpace=wrap;verticalAlign=top;labelPosition=center;verticalLabelPosition=middle;align=center;strokeColor=#B3B3B3;" parent="DdsE_Sx5rnMxqN3_NsDu-23" vertex="1">
          <mxGeometry y="106" width="662" height="4" as="geometry" />
        </mxCell>
        <mxCell id="DdsE_Sx5rnMxqN3_NsDu-29" value="触发校验" style="verticalAlign=bottom;edgeStyle=elbowEdgeStyle;elbow=vertical;curved=0;rounded=0;endArrow=block;" parent="1" source="DdsE_Sx5rnMxqN3_NsDu-1" target="DdsE_Sx5rnMxqN3_NsDu-3" edge="1">
          <mxGeometry relative="1" as="geometry">
            <Array as="points">
              <mxPoint x="204" y="176" />
            </Array>
          </mxGeometry>
        </mxCell>
        <mxCell id="DdsE_Sx5rnMxqN3_NsDu-30" value="必填字段校验" style="curved=1;endArrow=block;rounded=0;" parent="1" source="DdsE_Sx5rnMxqN3_NsDu-3" target="DdsE_Sx5rnMxqN3_NsDu-3" edge="1">
          <mxGeometry relative="1" as="geometry">
            <Array as="points">
              <mxPoint x="350" y="228" />
              <mxPoint x="350" y="258" />
            </Array>
          </mxGeometry>
        </mxCell>
        <mxCell id="DdsE_Sx5rnMxqN3_NsDu-31" value="返回错误提示" style="verticalAlign=bottom;edgeStyle=elbowEdgeStyle;elbow=vertical;curved=0;rounded=0;dashed=1;dashPattern=2 3;endArrow=block;" parent="1" source="DdsE_Sx5rnMxqN3_NsDu-3" target="DdsE_Sx5rnMxqN3_NsDu-1" edge="1">
          <mxGeometry relative="1" as="geometry">
            <Array as="points">
              <mxPoint x="205" y="359" />
            </Array>
          </mxGeometry>
        </mxCell>
        <mxCell id="DdsE_Sx5rnMxqN3_NsDu-32" value="查询leads/csc表 (phone去重)" style="verticalAlign=bottom;edgeStyle=elbowEdgeStyle;elbow=vertical;curved=0;rounded=0;endArrow=block;" parent="1" source="DdsE_Sx5rnMxqN3_NsDu-3" target="DdsE_Sx5rnMxqN3_NsDu-8" edge="1">
          <mxGeometry relative="1" as="geometry">
            <Array as="points">
              <mxPoint x="652" y="466" />
            </Array>
          </mxGeometry>
        </mxCell>
        <mxCell id="DdsE_Sx5rnMxqN3_NsDu-33" value="返回结果" style="verticalAlign=bottom;edgeStyle=elbowEdgeStyle;elbow=vertical;curved=0;rounded=0;dashed=1;dashPattern=2 3;endArrow=block;" parent="1" source="DdsE_Sx5rnMxqN3_NsDu-8" target="DdsE_Sx5rnMxqN3_NsDu-3" edge="1">
          <mxGeometry relative="1" as="geometry">
            <Array as="points">
              <mxPoint x="655" y="518" />
            </Array>
          </mxGeometry>
        </mxCell>
        <mxCell id="DdsE_Sx5rnMxqN3_NsDu-34" value="提示重复留资" style="verticalAlign=bottom;edgeStyle=elbowEdgeStyle;elbow=vertical;curved=0;rounded=0;dashed=1;dashPattern=2 3;endArrow=block;" parent="1" source="DdsE_Sx5rnMxqN3_NsDu-3" target="DdsE_Sx5rnMxqN3_NsDu-1" edge="1">
          <mxGeometry relative="1" as="geometry">
            <Array as="points">
              <mxPoint x="205" y="619" />
            </Array>
          </mxGeometry>
        </mxCell>
        <mxCell id="DdsE_Sx5rnMxqN3_NsDu-35" value="触发分配逻辑" style="verticalAlign=bottom;edgeStyle=elbowEdgeStyle;elbow=vertical;curved=0;rounded=0;endArrow=block;" parent="1" source="DdsE_Sx5rnMxqN3_NsDu-3" target="DdsE_Sx5rnMxqN3_NsDu-5" edge="1">
          <mxGeometry relative="1" as="geometry">
            <Array as="points">
              <mxPoint x="406" y="720" />
            </Array>
          </mxGeometry>
        </mxCell>
        <mxCell id="DdsE_Sx5rnMxqN3_NsDu-36" value="到人校验 (sellerCode)" style="curved=1;endArrow=block;rounded=0;" parent="1" source="DdsE_Sx5rnMxqN3_NsDu-5" target="DdsE_Sx5rnMxqN3_NsDu-5" edge="1">
          <mxGeometry relative="1" as="geometry">
            <Array as="points">
              <mxPoint x="550" y="798" />
              <mxPoint x="550" y="828" />
            </Array>
          </mxGeometry>
        </mxCell>
        <mxCell id="DdsE_Sx5rnMxqN3_NsDu-37" value="填充到人数据" style="verticalAlign=bottom;edgeStyle=elbowEdgeStyle;elbow=vertical;curved=0;rounded=0;endArrow=block;" parent="1" source="DdsE_Sx5rnMxqN3_NsDu-5" target="DdsE_Sx5rnMxqN3_NsDu-6" edge="1">
          <mxGeometry relative="1" as="geometry">
            <Array as="points">
              <mxPoint x="606" y="929" />
            </Array>
          </mxGeometry>
        </mxCell>
        <mxCell id="DdsE_Sx5rnMxqN3_NsDu-38" value="到店校验 (dlrCode)" style="curved=1;endArrow=block;rounded=0;" parent="1" source="DdsE_Sx5rnMxqN3_NsDu-5" target="DdsE_Sx5rnMxqN3_NsDu-5" edge="1">
          <mxGeometry relative="1" as="geometry">
            <Array as="points">
              <mxPoint x="550" y="1036" />
              <mxPoint x="550" y="1066" />
            </Array>
          </mxGeometry>
        </mxCell>
        <mxCell id="DdsE_Sx5rnMxqN3_NsDu-39" value="填充到店数据" style="verticalAlign=bottom;edgeStyle=elbowEdgeStyle;elbow=vertical;curved=0;rounded=0;endArrow=block;" parent="1" source="DdsE_Sx5rnMxqN3_NsDu-5" target="DdsE_Sx5rnMxqN3_NsDu-6" edge="1">
          <mxGeometry relative="1" as="geometry">
            <Array as="points">
              <mxPoint x="606" y="1167" />
            </Array>
          </mxGeometry>
        </mxCell>
        <mxCell id="DdsE_Sx5rnMxqN3_NsDu-40" value="到城市校验 (省市区)" style="curved=1;endArrow=block;rounded=0;" parent="1" source="DdsE_Sx5rnMxqN3_NsDu-5" target="DdsE_Sx5rnMxqN3_NsDu-5" edge="1">
          <mxGeometry relative="1" as="geometry">
            <Array as="points">
              <mxPoint x="550" y="1268" />
              <mxPoint x="550" y="1298" />
            </Array>
          </mxGeometry>
        </mxCell>
        <mxCell id="DdsE_Sx5rnMxqN3_NsDu-41" value="填充城市线索自动分配数据" style="verticalAlign=bottom;edgeStyle=elbowEdgeStyle;elbow=horizontal;curved=0;rounded=0;endArrow=block;" parent="1" source="DdsE_Sx5rnMxqN3_NsDu-5" target="DdsE_Sx5rnMxqN3_NsDu-6" edge="1">
          <mxGeometry x="-0.0026" relative="1" as="geometry">
            <Array as="points">
              <mxPoint x="606" y="1399" />
            </Array>
            <mxPoint as="offset" />
          </mxGeometry>
        </mxCell>
        <mxCell id="DdsE_Sx5rnMxqN3_NsDu-42" value="中断流程 (提示错误)" style="verticalAlign=bottom;edgeStyle=elbowEdgeStyle;elbow=vertical;curved=0;rounded=0;dashed=1;dashPattern=2 3;endArrow=block;" parent="1" source="DdsE_Sx5rnMxqN3_NsDu-5" target="DdsE_Sx5rnMxqN3_NsDu-1" edge="1">
          <mxGeometry relative="1" as="geometry">
            <Array as="points">
              <mxPoint x="305" y="1500" />
            </Array>
          </mxGeometry>
        </mxCell>
        <mxCell id="DdsE_Sx5rnMxqN3_NsDu-43" value="战败激活/热度值/意向车型处理" style="curved=1;endArrow=block;rounded=0;" parent="1" source="DdsE_Sx5rnMxqN3_NsDu-7" target="DdsE_Sx5rnMxqN3_NsDu-7" edge="1">
          <mxGeometry relative="1" as="geometry">
            <Array as="points">
              <mxPoint x="750" y="1582" />
              <mxPoint x="750" y="1612" />
            </Array>
          </mxGeometry>
        </mxCell>
        <mxCell id="DdsE_Sx5rnMxqN3_NsDu-44" value="查询客户信息 (phone/smartId)" style="verticalAlign=bottom;edgeStyle=elbowEdgeStyle;elbow=vertical;curved=0;rounded=0;endArrow=block;" parent="1" source="DdsE_Sx5rnMxqN3_NsDu-7" target="DdsE_Sx5rnMxqN3_NsDu-8" edge="1">
          <mxGeometry relative="1" as="geometry">
            <Array as="points">
              <mxPoint x="852" y="1670" />
            </Array>
          </mxGeometry>
        </mxCell>
        <mxCell id="DdsE_Sx5rnMxqN3_NsDu-45" value="返回结果" style="verticalAlign=bottom;edgeStyle=elbowEdgeStyle;elbow=vertical;curved=0;rounded=0;dashed=1;dashPattern=2 3;endArrow=block;" parent="1" source="DdsE_Sx5rnMxqN3_NsDu-8" target="DdsE_Sx5rnMxqN3_NsDu-7" edge="1">
          <mxGeometry relative="1" as="geometry">
            <Array as="points">
              <mxPoint x="855" y="1722" />
            </Array>
          </mxGeometry>
        </mxCell>
        <mxCell id="DdsE_Sx5rnMxqN3_NsDu-47" value="保存线索/回访/客户数据" style="verticalAlign=bottom;edgeStyle=elbowEdgeStyle;elbow=vertical;curved=0;rounded=0;endArrow=block;" parent="1" source="DdsE_Sx5rnMxqN3_NsDu-7" target="DdsE_Sx5rnMxqN3_NsDu-8" edge="1">
          <mxGeometry relative="1" as="geometry">
            <Array as="points">
              <mxPoint x="852" y="1924" />
            </Array>
          </mxGeometry>
        </mxCell>
        <mxCell id="DdsE_Sx5rnMxqN3_NsDu-48" value="保存成功" style="verticalAlign=bottom;edgeStyle=elbowEdgeStyle;elbow=vertical;curved=0;rounded=0;dashed=1;dashPattern=2 3;endArrow=block;" parent="1" source="DdsE_Sx5rnMxqN3_NsDu-8" target="DdsE_Sx5rnMxqN3_NsDu-7" edge="1">
          <mxGeometry relative="1" as="geometry">
            <Array as="points">
              <mxPoint x="855" y="1976" />
            </Array>
          </mxGeometry>
        </mxCell>
        <mxCell id="DdsE_Sx5rnMxqN3_NsDu-49" value="触发异步处理" style="verticalAlign=bottom;edgeStyle=elbowEdgeStyle;elbow=vertical;curved=0;rounded=0;endArrow=block;" parent="1" source="DdsE_Sx5rnMxqN3_NsDu-7" target="DdsE_Sx5rnMxqN3_NsDu-10" edge="1">
          <mxGeometry relative="1" as="geometry">
            <Array as="points">
              <mxPoint x="952" y="2028" />
            </Array>
          </mxGeometry>
        </mxCell>
        <mxCell id="DdsE_Sx5rnMxqN3_NsDu-50" value="记录调用日志" style="curved=1;endArrow=block;rounded=0;" parent="1" source="DdsE_Sx5rnMxqN3_NsDu-10" target="DdsE_Sx5rnMxqN3_NsDu-10" edge="1">
          <mxGeometry relative="1" as="geometry">
            <Array as="points">
              <mxPoint x="1243" y="2090" />
              <mxPoint x="1243" y="2120" />
            </Array>
          </mxGeometry>
        </mxCell>
        <mxCell id="DdsE_Sx5rnMxqN3_NsDu-51" value="计算首次逾期" style="curved=1;endArrow=block;rounded=0;" parent="1" source="DdsE_Sx5rnMxqN3_NsDu-10" target="DdsE_Sx5rnMxqN3_NsDu-10" edge="1">
          <mxGeometry relative="1" as="geometry">
            <Array as="points">
              <mxPoint x="1243" y="2172" />
              <mxPoint x="1243" y="2202" />
            </Array>
          </mxGeometry>
        </mxCell>
        <mxCell id="DdsE_Sx5rnMxqN3_NsDu-52" value="发送企微提醒" style="curved=1;endArrow=block;rounded=0;" parent="1" source="DdsE_Sx5rnMxqN3_NsDu-10" target="DdsE_Sx5rnMxqN3_NsDu-10" edge="1">
          <mxGeometry relative="1" as="geometry">
            <Array as="points">
              <mxPoint x="1243" y="2254" />
              <mxPoint x="1243" y="2284" />
            </Array>
          </mxGeometry>
        </mxCell>
        <mxCell id="DdsE_Sx5rnMxqN3_NsDu-53" value="提交线索数据" style="fillColor=#ffff88;strokeColor=#9E916F;" parent="1" vertex="1">
          <mxGeometry x="20" y="95" width="150" height="49" as="geometry" />
        </mxCell>
        <mxCell id="DdsE_Sx5rnMxqN3_NsDu-55" value="城市线索自动分配" style="curved=1;endArrow=block;rounded=0;" parent="1" edge="1">
          <mxGeometry relative="1" as="geometry">
            <Array as="points">
              <mxPoint x="550" y="1340" />
              <mxPoint x="550" y="1370" />
            </Array>
            <mxPoint x="500" y="1340" as="sourcePoint" />
            <mxPoint x="500" y="1370" as="targetPoint" />
          </mxGeometry>
        </mxCell>
        <mxCell id="DdsE_Sx5rnMxqN3_NsDu-56" value="dcc线索处理" style="curved=1;endArrow=block;rounded=0;" parent="1" edge="1">
          <mxGeometry relative="1" as="geometry">
            <Array as="points">
              <mxPoint x="756" y="1800" />
              <mxPoint x="756" y="1830" />
            </Array>
            <mxPoint x="706" y="1800" as="sourcePoint" />
            <mxPoint x="706" y="1830" as="targetPoint" />
          </mxGeometry>
        </mxCell>
      </root>
    </mxGraphModel>
  </diagram>
  <diagram id="35OjDAD0OdieGNKDmJyo" name="第 2 页">
    <mxGraphModel dx="2908" dy="2108" grid="1" gridSize="10" guides="1" tooltips="1" connect="1" arrows="1" fold="1" page="1" pageScale="1" pageWidth="827" pageHeight="1169" math="0" shadow="0">
      <root>
        <mxCell id="0" />
        <mxCell id="1" parent="0" />
        <UserObject label="" plantUmlData="{&quot;data&quot;:&quot;@startuml\nactor Admin as admin\nparticipant UserInitializer as ui\nparticipant 数据库 as db\nparticipant BIClient as bc\n\nadmin -&gt; ui: initialize()\nui -&gt; db: SELECT * FROM users LIMIT 1000\ndb --&gt; ui: userList (page1)\nloop for each user\n  ui -&gt; bc: createUser(user)\n  bc --&gt; ui: Success/Failure\nend\nui -&gt; db: SELECT next page...\n@enduml&quot;,&quot;format&quot;:&quot;svg&quot;}" id="6V0FVtyoknVEyGGJxhrU-3">
          <mxCell style="shape=image;noLabel=1;verticalAlign=top;aspect=fixed;imageAspect=0;image=data:image/svg+xml,PHN2ZyB4bWxucz0iaHR0cDovL3d3dy53My5vcmcvMjAwMC9zdmciIHhtbG5zOnhsaW5rPSJodHRwOi8vd3d3LnczLm9yZy8xOTk5L3hsaW5rIiBjb250ZW50U3R5bGVUeXBlPSJ0ZXh0L2NzcyIgZGF0YS1kaWFncmFtLXR5cGU9IlNFUVVFTkNFIiBoZWlnaHQ9IjM3NnB4IiBwcmVzZXJ2ZUFzcGVjdFJhdGlvPSJub25lIiBzdHlsZT0id2lkdGg6NDcwcHg7aGVpZ2h0OjM3NnB4O2JhY2tncm91bmQ6I0ZGRkZGRjsiIHZlcnNpb249IjEuMSIgdmlld0JveD0iMCAwIDQ3MCAzNzYiIHdpZHRoPSI0NzBweCIgem9vbUFuZFBhbj0ibWFnbmlmeSI+PGRlZnMvPjxnPjxyZWN0IGZpbGw9Im5vbmUiIGhlaWdodD0iNzEuNzQyMiIgc3R5bGU9InN0cm9rZTojMDAwMDAwO3N0cm9rZS13aWR0aDoxLjU7IiB3aWR0aD0iNDA2LjUiIHg9IjU4IiB5PSIxODAuNzI2NiIvPjxnPjx0aXRsZT5BZG1pbjwvdGl0bGU+PHJlY3QgZmlsbD0iIzAwMDAwMCIgZmlsbC1vcGFjaXR5PSIwLjAwMDAwIiBoZWlnaHQ9IjIxNy4zOTg0IiB3aWR0aD0iOCIgeD0iMjEuNSIgeT0iNzkuOTg0NCIvPjxsaW5lIHN0eWxlPSJzdHJva2U6IzE4MTgxODtzdHJva2Utd2lkdGg6MC41O3N0cm9rZS1kYXNoYXJyYXk6NS4wLDUuMDsiIHgxPSIyNSIgeDI9IjI1IiB5MT0iNzkuOTg0NCIgeTI9IjI5Ny4zODI4Ii8+PC9nPjxnPjx0aXRsZT5Vc2VySW5pdGlhbGl6ZXI8L3RpdGxlPjxyZWN0IGZpbGw9IiMwMDAwMDAiIGZpbGwtb3BhY2l0eT0iMC4wMDAwMCIgaGVpZ2h0PSIyMTcuMzk4NCIgd2lkdGg9IjgiIHg9IjEyMy41IiB5PSI3OS45ODQ0Ii8+PGxpbmUgc3R5bGU9InN0cm9rZTojMTgxODE4O3N0cm9rZS13aWR0aDowLjU7c3Ryb2tlLWRhc2hhcnJheTo1LjAsNS4wOyIgeDE9IjEyNyIgeDI9IjEyNyIgeTE9Ijc5Ljk4NDQiIHkyPSIyOTcuMzgyOCIvPjwvZz48Zz48dGl0bGU+JiMyNTk2ODsmIzI1NDU0OyYjMjQyMTE7PC90aXRsZT48cmVjdCBmaWxsPSIjMDAwMDAwIiBmaWxsLW9wYWNpdHk9IjAuMDAwMDAiIGhlaWdodD0iMjE3LjM5ODQiIHdpZHRoPSI4IiB4PSIzNDIuNSIgeT0iNzkuOTg0NCIvPjxsaW5lIHN0eWxlPSJzdHJva2U6IzE4MTgxODtzdHJva2Utd2lkdGg6MC41O3N0cm9rZS1kYXNoYXJyYXk6NS4wLDUuMDsiIHgxPSIzNDYuNSIgeDI9IjM0Ni41IiB5MT0iNzkuOTg0NCIgeTI9IjI5Ny4zODI4Ii8+PC9nPjxnPjx0aXRsZT5CSUNsaWVudDwvdGl0bGU+PHJlY3QgZmlsbD0iIzAwMDAwMCIgZmlsbC1vcGFjaXR5PSIwLjAwMDAwIiBoZWlnaHQ9IjIxNy4zOTg0IiB3aWR0aD0iOCIgeD0iNDE1LjUiIHk9Ijc5Ljk4NDQiLz48bGluZSBzdHlsZT0ic3Ryb2tlOiMxODE4MTg7c3Ryb2tlLXdpZHRoOjAuNTtzdHJva2UtZGFzaGFycmF5OjUuMCw1LjA7IiB4MT0iNDE5LjUiIHgyPSI0MTkuNSIgeTE9Ijc5Ljk4NDQiIHkyPSIyOTcuMzgyOCIvPjwvZz48ZyBjbGFzcz0icGFydGljaXBhbnQgcGFydGljaXBhbnQtaGVhZCIgZGF0YS1wYXJ0aWNpcGFudD0iYWRtaW4iPjx0ZXh0IGZpbGw9IiMwMDAwMDAiIGZvbnQtZmFtaWx5PSJzYW5zLXNlcmlmIiBmb250LXNpemU9IjE0IiBsZW5ndGhBZGp1c3Q9InNwYWNpbmciIHRleHRMZW5ndGg9IjM1IiB4PSI1IiB5PSI3OC4yMzQ0Ij5BZG1pbjwvdGV4dD48ZWxsaXBzZSBjeD0iMjUuNSIgY3k9IjEzLjUiIGZpbGw9IiNFMkUyRjAiIHJ4PSI4IiByeT0iOCIgc3R5bGU9InN0cm9rZTojMTgxODE4O3N0cm9rZS13aWR0aDowLjU7Ii8+PHBhdGggZD0iTTI1LjUsMjEuNSBMMjUuNSw0OC41IE0xMi41LDI5LjUgTDM4LjUsMjkuNSBNMjUuNSw0OC41IEwxMi41LDYzLjUgTTI1LjUsNDguNSBMMzguNSw2My41IiBmaWxsPSJub25lIiBzdHlsZT0ic3Ryb2tlOiMxODE4MTg7c3Ryb2tlLXdpZHRoOjAuNTsiLz48L2c+PGcgY2xhc3M9InBhcnRpY2lwYW50IHBhcnRpY2lwYW50LXRhaWwiIGRhdGEtcGFydGljaXBhbnQ9ImFkbWluIj48dGV4dCBmaWxsPSIjMDAwMDAwIiBmb250LWZhbWlseT0ic2Fucy1zZXJpZiIgZm9udC1zaXplPSIxNCIgbGVuZ3RoQWRqdXN0PSJzcGFjaW5nIiB0ZXh0TGVuZ3RoPSIzNSIgeD0iNSIgeT0iMzA5LjYxNzIiPkFkbWluPC90ZXh0PjxlbGxpcHNlIGN4PSIyNS41IiBjeT0iMzE5Ljg2NzIiIGZpbGw9IiNFMkUyRjAiIHJ4PSI4IiByeT0iOCIgc3R5bGU9InN0cm9rZTojMTgxODE4O3N0cm9rZS13aWR0aDowLjU7Ii8+PHBhdGggZD0iTTI1LjUsMzI3Ljg2NzIgTDI1LjUsMzU0Ljg2NzIgTTEyLjUsMzM1Ljg2NzIgTDM4LjUsMzM1Ljg2NzIgTTI1LjUsMzU0Ljg2NzIgTDEyLjUsMzY5Ljg2NzIgTTI1LjUsMzU0Ljg2NzIgTDM4LjUsMzY5Ljg2NzIiIGZpbGw9Im5vbmUiIHN0eWxlPSJzdHJva2U6IzE4MTgxODtzdHJva2Utd2lkdGg6MC41OyIvPjwvZz48ZyBjbGFzcz0icGFydGljaXBhbnQgcGFydGljaXBhbnQtaGVhZCIgZGF0YS1wYXJ0aWNpcGFudD0idWkiPjxyZWN0IGZpbGw9IiNFMkUyRjAiIGhlaWdodD0iMjguOTg0NCIgcng9IjIuNSIgcnk9IjIuNSIgc3R5bGU9InN0cm9rZTojMTgxODE4O3N0cm9rZS13aWR0aDowLjU7IiB3aWR0aD0iMTE5IiB4PSI2OCIgeT0iNTAiLz48dGV4dCBmaWxsPSIjMDAwMDAwIiBmb250LWZhbWlseT0ic2Fucy1zZXJpZiIgZm9udC1zaXplPSIxNCIgbGVuZ3RoQWRqdXN0PSJzcGFjaW5nIiB0ZXh0TGVuZ3RoPSIxMDUiIHg9Ijc1IiB5PSI3MC4yMzQ0Ij5Vc2VySW5pdGlhbGl6ZXI8L3RleHQ+PC9nPjxnIGNsYXNzPSJwYXJ0aWNpcGFudCBwYXJ0aWNpcGFudC10YWlsIiBkYXRhLXBhcnRpY2lwYW50PSJ1aSI+PHJlY3QgZmlsbD0iI0UyRTJGMCIgaGVpZ2h0PSIyOC45ODQ0IiByeD0iMi41IiByeT0iMi41IiBzdHlsZT0ic3Ryb2tlOiMxODE4MTg7c3Ryb2tlLXdpZHRoOjAuNTsiIHdpZHRoPSIxMTkiIHg9IjY4IiB5PSIyOTYuMzgyOCIvPjx0ZXh0IGZpbGw9IiMwMDAwMDAiIGZvbnQtZmFtaWx5PSJzYW5zLXNlcmlmIiBmb250LXNpemU9IjE0IiBsZW5ndGhBZGp1c3Q9InNwYWNpbmciIHRleHRMZW5ndGg9IjEwNSIgeD0iNzUiIHk9IjMxNi42MTcyIj5Vc2VySW5pdGlhbGl6ZXI8L3RleHQ+PC9nPjxnIGNsYXNzPSJwYXJ0aWNpcGFudCBwYXJ0aWNpcGFudC1oZWFkIiBkYXRhLXBhcnRpY2lwYW50PSJkYiI+PHJlY3QgZmlsbD0iI0UyRTJGMCIgaGVpZ2h0PSIyOC45ODQ0IiByeD0iMi41IiByeT0iMi41IiBzdHlsZT0ic3Ryb2tlOiMxODE4MTg7c3Ryb2tlLXdpZHRoOjAuNTsiIHdpZHRoPSI1NiIgeD0iMzE4LjUiIHk9IjUwIi8+PHRleHQgZmlsbD0iIzAwMDAwMCIgZm9udC1mYW1pbHk9InNhbnMtc2VyaWYiIGZvbnQtc2l6ZT0iMTQiIGxlbmd0aEFkanVzdD0ic3BhY2luZyIgdGV4dExlbmd0aD0iNDIiIHg9IjMyNS41IiB5PSI3MC4yMzQ0Ij4mIzI1OTY4OyYjMjU0NTQ7JiMyNDIxMTs8L3RleHQ+PC9nPjxnIGNsYXNzPSJwYXJ0aWNpcGFudCBwYXJ0aWNpcGFudC10YWlsIiBkYXRhLXBhcnRpY2lwYW50PSJkYiI+PHJlY3QgZmlsbD0iI0UyRTJGMCIgaGVpZ2h0PSIyOC45ODQ0IiByeD0iMi41IiByeT0iMi41IiBzdHlsZT0ic3Ryb2tlOiMxODE4MTg7c3Ryb2tlLXdpZHRoOjAuNTsiIHdpZHRoPSI1NiIgeD0iMzE4LjUiIHk9IjI5Ni4zODI4Ii8+PHRleHQgZmlsbD0iIzAwMDAwMCIgZm9udC1mYW1pbHk9InNhbnMtc2VyaWYiIGZvbnQtc2l6ZT0iMTQiIGxlbmd0aEFkanVzdD0ic3BhY2luZyIgdGV4dExlbmd0aD0iNDIiIHg9IjMyNS41IiB5PSIzMTYuNjE3MiI+JiMyNTk2ODsmIzI1NDU0OyYjMjQyMTE7PC90ZXh0PjwvZz48ZyBjbGFzcz0icGFydGljaXBhbnQgcGFydGljaXBhbnQtaGVhZCIgZGF0YS1wYXJ0aWNpcGFudD0iYmMiPjxyZWN0IGZpbGw9IiNFMkUyRjAiIGhlaWdodD0iMjguOTg0NCIgcng9IjIuNSIgcnk9IjIuNSIgc3R5bGU9InN0cm9rZTojMTgxODE4O3N0cm9rZS13aWR0aDowLjU7IiB3aWR0aD0iNzAiIHg9IjM4NC41IiB5PSI1MCIvPjx0ZXh0IGZpbGw9IiMwMDAwMDAiIGZvbnQtZmFtaWx5PSJzYW5zLXNlcmlmIiBmb250LXNpemU9IjE0IiBsZW5ndGhBZGp1c3Q9InNwYWNpbmciIHRleHRMZW5ndGg9IjU2IiB4PSIzOTEuNSIgeT0iNzAuMjM0NCI+QklDbGllbnQ8L3RleHQ+PC9nPjxnIGNsYXNzPSJwYXJ0aWNpcGFudCBwYXJ0aWNpcGFudC10YWlsIiBkYXRhLXBhcnRpY2lwYW50PSJiYyI+PHJlY3QgZmlsbD0iI0UyRTJGMCIgaGVpZ2h0PSIyOC45ODQ0IiByeD0iMi41IiByeT0iMi41IiBzdHlsZT0ic3Ryb2tlOiMxODE4MTg7c3Ryb2tlLXdpZHRoOjAuNTsiIHdpZHRoPSI3MCIgeD0iMzg0LjUiIHk9IjI5Ni4zODI4Ii8+PHRleHQgZmlsbD0iIzAwMDAwMCIgZm9udC1mYW1pbHk9InNhbnMtc2VyaWYiIGZvbnQtc2l6ZT0iMTQiIGxlbmd0aEFkanVzdD0ic3BhY2luZyIgdGV4dExlbmd0aD0iNTYiIHg9IjM5MS41IiB5PSIzMTYuNjE3MiI+QklDbGllbnQ8L3RleHQ+PC9nPjxnIGNsYXNzPSJtZXNzYWdlIiBkYXRhLXBhcnRpY2lwYW50LTE9ImFkbWluIiBkYXRhLXBhcnRpY2lwYW50LTI9InVpIj48cG9seWdvbiBmaWxsPSIjMTgxODE4IiBwb2ludHM9IjExNS41LDEwNS44OTg0LDEyNS41LDEwOS44OTg0LDExNS41LDExMy44OTg0LDExOS41LDEwOS44OTg0IiBzdHlsZT0ic3Ryb2tlOiMxODE4MTg7c3Ryb2tlLXdpZHRoOjE7Ii8+PGxpbmUgc3R5bGU9InN0cm9rZTojMTgxODE4O3N0cm9rZS13aWR0aDoxOyIgeDE9IjI1LjUiIHgyPSIxMjEuNSIgeTE9IjEwOS44OTg0IiB5Mj0iMTA5Ljg5ODQiLz48dGV4dCBmaWxsPSIjMDAwMDAwIiBmb250LWZhbWlseT0ic2Fucy1zZXJpZiIgZm9udC1zaXplPSIxMyIgbGVuZ3RoQWRqdXN0PSJzcGFjaW5nIiB0ZXh0TGVuZ3RoPSI3OCIgeD0iMzIuNSIgeT0iMTA2LjI3MzQiPmluaXRpYWxpemUoKTwvdGV4dD48L2c+PGcgY2xhc3M9Im1lc3NhZ2UiIGRhdGEtcGFydGljaXBhbnQtMT0idWkiIGRhdGEtcGFydGljaXBhbnQtMj0iZGIiPjxwb2x5Z29uIGZpbGw9IiMxODE4MTgiIHBvaW50cz0iMzM0LjUsMTMzLjgxMjUsMzQ0LjUsMTM3LjgxMjUsMzM0LjUsMTQxLjgxMjUsMzM4LjUsMTM3LjgxMjUiIHN0eWxlPSJzdHJva2U6IzE4MTgxODtzdHJva2Utd2lkdGg6MTsiLz48bGluZSBzdHlsZT0ic3Ryb2tlOiMxODE4MTg7c3Ryb2tlLXdpZHRoOjE7IiB4MT0iMTI3LjUiIHgyPSIzNDAuNSIgeTE9IjEzNy44MTI1IiB5Mj0iMTM3LjgxMjUiLz48dGV4dCBmaWxsPSIjMDAwMDAwIiBmb250LWZhbWlseT0ic2Fucy1zZXJpZiIgZm9udC1zaXplPSIxMyIgbGVuZ3RoQWRqdXN0PSJzcGFjaW5nIiB0ZXh0TGVuZ3RoPSIxOTUiIHg9IjEzNC41IiB5PSIxMzQuMTg3NSI+U0VMRUNUICogRlJPTSB1c2VycyBMSU1JVCAxMDAwPC90ZXh0PjwvZz48ZyBjbGFzcz0ibWVzc2FnZSIgZGF0YS1wYXJ0aWNpcGFudC0xPSJkYiIgZGF0YS1wYXJ0aWNpcGFudC0yPSJ1aSI+PHBvbHlnb24gZmlsbD0iIzE4MTgxOCIgcG9pbnRzPSIxMzguNSwxNjEuNzI2NiwxMjguNSwxNjUuNzI2NiwxMzguNSwxNjkuNzI2NiwxMzQuNSwxNjUuNzI2NiIgc3R5bGU9InN0cm9rZTojMTgxODE4O3N0cm9rZS13aWR0aDoxOyIvPjxsaW5lIHN0eWxlPSJzdHJva2U6IzE4MTgxODtzdHJva2Utd2lkdGg6MTtzdHJva2UtZGFzaGFycmF5OjIuMCwyLjA7IiB4MT0iMTMyLjUiIHgyPSIzNDUuNSIgeTE9IjE2NS43MjY2IiB5Mj0iMTY1LjcyNjYiLz48dGV4dCBmaWxsPSIjMDAwMDAwIiBmb250LWZhbWlseT0ic2Fucy1zZXJpZiIgZm9udC1zaXplPSIxMyIgbGVuZ3RoQWRqdXN0PSJzcGFjaW5nIiB0ZXh0TGVuZ3RoPSIxMDQiIHg9IjE0NC41IiB5PSIxNjIuMTAxNiI+dXNlckxpc3QgKHBhZ2UxKTwvdGV4dD48L2c+PHBhdGggZD0iTTU4LDE4MC43MjY2IEwxMjksMTgwLjcyNjYgTDEyOSwxODYuNjQwNiBMMTE5LDE5Ni42NDA2IEw1OCwxOTYuNjQwNiBMNTgsMTgwLjcyNjYiIGZpbGw9IiNFRUVFRUUiIHN0eWxlPSJzdHJva2U6IzAwMDAwMDtzdHJva2Utd2lkdGg6MS41OyIvPjxyZWN0IGZpbGw9Im5vbmUiIGhlaWdodD0iNzEuNzQyMiIgc3R5bGU9InN0cm9rZTojMDAwMDAwO3N0cm9rZS13aWR0aDoxLjU7IiB3aWR0aD0iNDA2LjUiIHg9IjU4IiB5PSIxODAuNzI2NiIvPjx0ZXh0IGZpbGw9IiMwMDAwMDAiIGZvbnQtZmFtaWx5PSJzYW5zLXNlcmlmIiBmb250LXNpemU9IjEzIiBmb250LXdlaWdodD0iYm9sZCIgbGVuZ3RoQWRqdXN0PSJzcGFjaW5nIiB0ZXh0TGVuZ3RoPSIyNiIgeD0iNzMiIHk9IjE5NC4wMTU2Ij5sb29wPC90ZXh0Pjx0ZXh0IGZpbGw9IiMwMDAwMDAiIGZvbnQtZmFtaWx5PSJzYW5zLXNlcmlmIiBmb250LXNpemU9IjExIiBmb250LXdlaWdodD0iYm9sZCIgbGVuZ3RoQWRqdXN0PSJzcGFjaW5nIiB0ZXh0TGVuZ3RoPSI4Mi41IiB4PSIxNDQiIHk9IjE5My4xMjUiPltmb3IgZWFjaCB1c2VyXTwvdGV4dD48ZyBjbGFzcz0ibWVzc2FnZSIgZGF0YS1wYXJ0aWNpcGFudC0xPSJ1aSIgZGF0YS1wYXJ0aWNpcGFudC0yPSJiYyI+PHBvbHlnb24gZmlsbD0iIzE4MTgxOCIgcG9pbnRzPSI0MDcuNSwyMTIuNTU0Nyw0MTcuNSwyMTYuNTU0Nyw0MDcuNSwyMjAuNTU0Nyw0MTEuNSwyMTYuNTU0NyIgc3R5bGU9InN0cm9rZTojMTgxODE4O3N0cm9rZS13aWR0aDoxOyIvPjxsaW5lIHN0eWxlPSJzdHJva2U6IzE4MTgxODtzdHJva2Utd2lkdGg6MTsiIHgxPSIxMjcuNSIgeDI9IjQxMy41IiB5MT0iMjE2LjU1NDciIHkyPSIyMTYuNTU0NyIvPjx0ZXh0IGZpbGw9IiMwMDAwMDAiIGZvbnQtZmFtaWx5PSJzYW5zLXNlcmlmIiBmb250LXNpemU9IjEzIiBsZW5ndGhBZGp1c3Q9InNwYWNpbmciIHRleHRMZW5ndGg9IjEwNCIgeD0iMTM0LjUiIHk9IjIxMi45Mjk3Ij5jcmVhdGVVc2VyKHVzZXIpPC90ZXh0PjwvZz48ZyBjbGFzcz0ibWVzc2FnZSIgZGF0YS1wYXJ0aWNpcGFudC0xPSJiYyIgZGF0YS1wYXJ0aWNpcGFudC0yPSJ1aSI+PHBvbHlnb24gZmlsbD0iIzE4MTgxOCIgcG9pbnRzPSIxMzguNSwyNDAuNDY4OCwxMjguNSwyNDQuNDY4OCwxMzguNSwyNDguNDY4OCwxMzQuNSwyNDQuNDY4OCIgc3R5bGU9InN0cm9rZTojMTgxODE4O3N0cm9rZS13aWR0aDoxOyIvPjxsaW5lIHN0eWxlPSJzdHJva2U6IzE4MTgxODtzdHJva2Utd2lkdGg6MTtzdHJva2UtZGFzaGFycmF5OjIuMCwyLjA7IiB4MT0iMTMyLjUiIHgyPSI0MTguNSIgeTE9IjI0NC40Njg4IiB5Mj0iMjQ0LjQ2ODgiLz48dGV4dCBmaWxsPSIjMDAwMDAwIiBmb250LWZhbWlseT0ic2Fucy1zZXJpZiIgZm9udC1zaXplPSIxMyIgbGVuZ3RoQWRqdXN0PSJzcGFjaW5nIiB0ZXh0TGVuZ3RoPSI5Ny41IiB4PSIxNDQuNSIgeT0iMjQwLjg0MzgiPlN1Y2Nlc3MvRmFpbHVyZTwvdGV4dD48L2c+PGcgY2xhc3M9Im1lc3NhZ2UiIGRhdGEtcGFydGljaXBhbnQtMT0idWkiIGRhdGEtcGFydGljaXBhbnQtMj0iZGIiPjxwb2x5Z29uIGZpbGw9IiMxODE4MTgiIHBvaW50cz0iMzM0LjUsMjc1LjM4MjgsMzQ0LjUsMjc5LjM4MjgsMzM0LjUsMjgzLjM4MjgsMzM4LjUsMjc5LjM4MjgiIHN0eWxlPSJzdHJva2U6IzE4MTgxODtzdHJva2Utd2lkdGg6MTsiLz48bGluZSBzdHlsZT0ic3Ryb2tlOiMxODE4MTg7c3Ryb2tlLXdpZHRoOjE7IiB4MT0iMTI3LjUiIHgyPSIzNDAuNSIgeTE9IjI3OS4zODI4IiB5Mj0iMjc5LjM4MjgiLz48dGV4dCBmaWxsPSIjMDAwMDAwIiBmb250LWZhbWlseT0ic2Fucy1zZXJpZiIgZm9udC1zaXplPSIxMyIgbGVuZ3RoQWRqdXN0PSJzcGFjaW5nIiB0ZXh0TGVuZ3RoPSIxMjMuNSIgeD0iMTM0LjUiIHk9IjI3NS43NTc4Ij5TRUxFQ1QgbmV4dCBwYWdlLi4uPC90ZXh0PjwvZz48IS0tU1JDPVtQT3pESVdEMTQ4TnRWT2d0ZDE0b0poUXA0M0dhQzMxMUNGNDBySnJiQjFYeFhsdzFhM2t1NGd5WGhoc0ZFT1ZUS0dCMXRRRS11ZGpMUENCZVNEa19ZMEx2SzB2ZzhYVjRvNEdzdUQ2cFF3cTRlSzRFeEY5SWI4a0R1X2xkeVZOWi0gLWlqaXJ2VmlCanNDR1lkYTkwc0lmdHljRHFhSG1DdlF1aklIU2RaTlpWT0JCbGJPZWloaDF4a3J1WWZ0d0Roci1xTXl4Z2tMUXluLW5EYXJlYUZBMlJReVJuS21wWEVVNGVGQ1BkZDRyUjBocmNSMWlPbjFTdVY1UGNMMk1mcGpjc1lDVXB6ek9mYVk4dUxzX3hfTFBSdDBSY2pnZ2VWXS0tPjwvZz48L3N2Zz4=;" parent="1" vertex="1">
            <mxGeometry x="650" y="780" width="470" height="376" as="geometry" />
          </mxCell>
        </UserObject>
        <UserObject label="" plantUmlData="{&quot;data&quot;:&quot;@startuml\n\nclass BIFacade {\n  -client: BIClient\n  +createUser(params: UserCreateParams): Response\n  +updateUser(params: UserUpdateParams): Response\n  +queryUser(params: UserQueryParams): Response\n  +smartBiUrl(userName: String, configUrl: String): Response\n}\n\ninterface BIClient {\n  +createUser(request: UserCreateParams): Response\n  +updateUser(request: UserUpdateParams): Response\n  +queryUser(request: UserQueryParams): Response\n  +smartBiUrl(userName: String, configUrl: String): Response\n}\n\nclass BIClientBiz implements BIClient {\n  -config: BIConfig\n  -compensationManager: CompensationManager\n  +createUser(request: UserCreateParams): Response\n  +updateUser(request: UserUpdateParams): Response\n  +queryUser(request: UserQueryParams): Response\n}\n\nclass CompensationManager {\n  -logger: OperationLogger\n  +processAutoCompensation()\n  +triggerManualCompensation(type: OperationType, params: UserParams): Response\n}\n\nclass OperationLogger {\n  +log(task: CompensationTask)\n  +queryLogs(bimUid: String): List&lt;OperationInfo&gt;\n}\n\nclass OperationInfo {\n  +Id: String\n  +type: OperationType (CREATE/UPDATE)\n  +params: UserParams\n  +status: String \n  +result: String\n  …\n}\n\nclass UserParams &lt;&lt;abstract&gt;&gt; {\n  +bimRequestId: String\n  +bimToken: String\n}\n\nclass UserCreateParams extends UserParams {\n  +orgId: String\n  +userId: String\n  +userName: String\n  +...\n}\n\nclass UserUpdateParams extends UserParams {\n  +bimUid: String\n  +userAlias: String\n  +...\n}\n\nclass UserQueryParams extends UserParams {\n  +bimUid: String\n}\n\nBIFacade --&gt; BIClient : 依赖接口\nBIClientBiz --&gt; CompensationManager : 依赖\nCompensationManager --&gt; OperationLogger : 依赖\nOperationLogger --&gt; OperationInfo \nBIClientBiz --&gt; UserParams \n@enduml&quot;,&quot;format&quot;:&quot;svg&quot;}" id="6V0FVtyoknVEyGGJxhrU-4">
          <mxCell style="shape=image;noLabel=1;verticalAlign=top;aspect=fixed;imageAspect=0;image=data:image/svg+xml,PHN2ZyB4bWxucz0iaHR0cDovL3d3dy53My5vcmcvMjAwMC9zdmciIHhtbG5zOnhsaW5rPSJodHRwOi8vd3d3LnczLm9yZy8xOTk5L3hsaW5rIiBjb250ZW50U3R5bGVUeXBlPSJ0ZXh0L2NzcyIgZGF0YS1kaWFncmFtLXR5cGU9IkNMQVNTIiBoZWlnaHQ9IjEwNTNweCIgcHJlc2VydmVBc3BlY3RSYXRpbz0ibm9uZSIgc3R5bGU9IndpZHRoOjk1OHB4O2hlaWdodDoxMDUzcHg7YmFja2dyb3VuZDojRkZGRkZGOyIgdmVyc2lvbj0iMS4xIiB2aWV3Qm94PSIwIDAgOTU4IDEwNTMiIHdpZHRoPSI5NThweCIgem9vbUFuZFBhbj0ibWFnbmlmeSI+PGRlZnMvPjxnPjwhLS1jbGFzcyBCSUZhY2FkZS0tPjxnIGNsYXNzPSJlbnRpdHkiIGRhdGEtZW50aXR5PSJCSUZhY2FkZSIgZGF0YS1zb3VyY2UtbGluZT0iMSIgZGF0YS11aWQ9ImVudDAwMDIiIGlkPSJlbnRpdHlfQklGYWNhZGUiPjxyZWN0IGZpbGw9IiNGMUYxRjEiIGhlaWdodD0iMTIyLjkyMTkiIHJ4PSIyLjUiIHJ5PSIyLjUiIHN0eWxlPSJzdHJva2U6IzE4MTgxODtzdHJva2Utd2lkdGg6MC41OyIgd2lkdGg9IjQyNSIgeD0iMjcxLjUiIHk9IjciLz48ZWxsaXBzZSBjeD0iNDUxLjc1IiBjeT0iMjMiIGZpbGw9IiNBREQxQjIiIHJ4PSIxMSIgcnk9IjExIiBzdHlsZT0ic3Ryb2tlOiMxODE4MTg7c3Ryb2tlLXdpZHRoOjE7Ii8+PHBhdGggZD0iTTQ0OS4zNzUsMjcuMjUgTDQ0OS4zNzUsMjkgTDQ1NC4zMTI1LDI5IEw0NTQuMzEyNSwyNy4yNSBMNDQ5LjM3NSwyNy4yNSBaIE00NTAuMDYyNSwyNy45Mzc1IFE0NTAuMDYyNSwyNy45Mzc1IDQ1MC4wNjI1LDE4Ljc1IEw0NDguMzEyNSwxOC43NSBRNDQ4LjMxMjUsMTguNzUgNDQ4LjMxMjUsMjcuOTM3NSBMNDUwLjA2MjUsMjcuOTM3NSBaIE00NTMuNjI1LDI3LjkzNzUgTDQ1NS4zNzUsMjcuOTM3NSBRNDU1LjM3NSwyNy45Mzc1IDQ1NS4zNzUsMjUuMTI1IEw0NTMuNjI1LDI1LjEyNSBRNDUzLjYyNSwyNS4xMjUgNDUzLjYyNSwyNy45Mzc1IFogTTQ1My42MjUsMTguNzUgUTQ1My42MjUsMTguNzUgNDUzLjYyNSwyMS41NjI1IEw0NTUuMzc1LDIxLjU2MjUgUTQ1NS4zNzUsMjEuNTYyNSA0NTUuMzc1LDE4Ljc1IEw0NTMuNjI1LDE4Ljc1IFogTTQ0OS4zNzUsMTkuNDM3NSBMNDU0LjMxMjUsMTkuNDM3NSBMNDU0LjMxMjUsMTcuNjg3NSBMNDQ5LjM3NSwxNy42ODc1IEw0NDkuMzc1LDE5LjQzNzUgWiAiIGZpbGw9IiMwMDAwMDAiLz48dGV4dCBmaWxsPSIjMDAwMDAwIiBmb250LWZhbWlseT0ic2Fucy1zZXJpZiIgZm9udC1zaXplPSIxNCIgbGVuZ3RoQWRqdXN0PSJzcGFjaW5nIiB0ZXh0TGVuZ3RoPSI1NiIgeD0iNDcyLjI1IiB5PSIyOC43NDIyIj5CSUZhY2FkZTwvdGV4dD48bGluZSBzdHlsZT0ic3Ryb2tlOiMxODE4MTg7c3Ryb2tlLXdpZHRoOjAuNTsiIHgxPSIyNzIuNSIgeDI9IjY5NS41IiB5MT0iMzkiIHkyPSIzOSIvPjxyZWN0IGZpbGw9Im5vbmUiIGhlaWdodD0iNiIgc3R5bGU9InN0cm9rZTojQzgyOTMwO3N0cm9rZS13aWR0aDoxOyIgd2lkdGg9IjYiIHg9IjI3OS41IiB5PSI0OC45OTIyIi8+PHRleHQgZmlsbD0iIzAwMDAwMCIgZm9udC1mYW1pbHk9InNhbnMtc2VyaWYiIGZvbnQtc2l6ZT0iMTQiIGxlbmd0aEFkanVzdD0ic3BhY2luZyIgdGV4dExlbmd0aD0iMTEyIiB4PSIyOTEuNSIgeT0iNTYuMjM0NCI+Y2xpZW50OiBCSUNsaWVudDwvdGV4dD48bGluZSBzdHlsZT0ic3Ryb2tlOiMxODE4MTg7c3Ryb2tlLXdpZHRoOjAuNTsiIHgxPSIyNzIuNSIgeDI9IjY5NS41IiB5MT0iNjEuOTg0NCIgeTI9IjYxLjk4NDQiLz48ZWxsaXBzZSBjeD0iMjgyLjUiIGN5PSI3NC45NzY2IiBmaWxsPSIjODRCRTg0IiByeD0iMyIgcnk9IjMiIHN0eWxlPSJzdHJva2U6IzAzODA0ODtzdHJva2Utd2lkdGg6MTsiLz48dGV4dCBmaWxsPSIjMDAwMDAwIiBmb250LWZhbWlseT0ic2Fucy1zZXJpZiIgZm9udC1zaXplPSIxNCIgbGVuZ3RoQWRqdXN0PSJzcGFjaW5nIiB0ZXh0TGVuZ3RoPSIzMjIiIHg9IjI5MS41IiB5PSI3OS4yMTg4Ij5jcmVhdGVVc2VyKHBhcmFtczogVXNlckNyZWF0ZVBhcmFtcyk6IFJlc3BvbnNlPC90ZXh0PjxlbGxpcHNlIGN4PSIyODIuNSIgY3k9Ijg5Ljk2MDkiIGZpbGw9IiM4NEJFODQiIHJ4PSIzIiByeT0iMyIgc3R5bGU9InN0cm9rZTojMDM4MDQ4O3N0cm9rZS13aWR0aDoxOyIvPjx0ZXh0IGZpbGw9IiMwMDAwMDAiIGZvbnQtZmFtaWx5PSJzYW5zLXNlcmlmIiBmb250LXNpemU9IjE0IiBsZW5ndGhBZGp1c3Q9InNwYWNpbmciIHRleHRMZW5ndGg9IjMyMiIgeD0iMjkxLjUiIHk9Ijk0LjIwMzEiPnVwZGF0ZVVzZXIocGFyYW1zOiBVc2VyVXBkYXRlUGFyYW1zKTogUmVzcG9uc2U8L3RleHQ+PGVsbGlwc2UgY3g9IjI4Mi41IiBjeT0iMTA0Ljk0NTMiIGZpbGw9IiM4NEJFODQiIHJ4PSIzIiByeT0iMyIgc3R5bGU9InN0cm9rZTojMDM4MDQ4O3N0cm9rZS13aWR0aDoxOyIvPjx0ZXh0IGZpbGw9IiMwMDAwMDAiIGZvbnQtZmFtaWx5PSJzYW5zLXNlcmlmIiBmb250LXNpemU9IjE0IiBsZW5ndGhBZGp1c3Q9InNwYWNpbmciIHRleHRMZW5ndGg9IjMwOCIgeD0iMjkxLjUiIHk9IjEwOS4xODc1Ij5xdWVyeVVzZXIocGFyYW1zOiBVc2VyUXVlcnlQYXJhbXMpOiBSZXNwb25zZTwvdGV4dD48ZWxsaXBzZSBjeD0iMjgyLjUiIGN5PSIxMTkuOTI5NyIgZmlsbD0iIzg0QkU4NCIgcng9IjMiIHJ5PSIzIiBzdHlsZT0ic3Ryb2tlOiMwMzgwNDg7c3Ryb2tlLXdpZHRoOjE7Ii8+PHRleHQgZmlsbD0iIzAwMDAwMCIgZm9udC1mYW1pbHk9InNhbnMtc2VyaWYiIGZvbnQtc2l6ZT0iMTQiIGxlbmd0aEFkanVzdD0ic3BhY2luZyIgdGV4dExlbmd0aD0iMzk5IiB4PSIyOTEuNSIgeT0iMTI0LjE3MTkiPnNtYXJ0QmlVcmwodXNlck5hbWU6IFN0cmluZywgY29uZmlnVXJsOiBTdHJpbmcpOiBSZXNwb25zZTwvdGV4dD48L2c+PCEtLWNsYXNzIEJJQ2xpZW50LS0+PGcgY2xhc3M9ImVudGl0eSIgZGF0YS1lbnRpdHk9IkJJQ2xpZW50IiBkYXRhLXNvdXJjZS1saW5lPSI5IiBkYXRhLXVpZD0iZW50MDAwMyIgaWQ9ImVudGl0eV9CSUNsaWVudCI+PHJlY3QgZmlsbD0iI0YxRjFGMSIgaGVpZ2h0PSIxMDcuOTM3NSIgcng9IjIuNSIgcnk9IjIuNSIgc3R5bGU9InN0cm9rZTojMTgxODE4O3N0cm9rZS13aWR0aDowLjU7IiB3aWR0aD0iNDI1IiB4PSIyNzEuNSIgeT0iMjA1Ii8+PGVsbGlwc2UgY3g9IjQ1MS43NSIgY3k9IjIyMSIgZmlsbD0iI0I0QTdFNSIgcng9IjExIiByeT0iMTEiIHN0eWxlPSJzdHJva2U6IzE4MTgxODtzdHJva2Utd2lkdGg6MTsiLz48cGF0aCBkPSJNNDU0Ljg3NSwyMjcgTDQ1NC44NzUsMjI1LjI1IEw0NTIuNzUsMjI1LjI1IFE0NTIuNzUsMjI1LjI1IDQ1Mi43NSwyMTcuNDM3NSBMNDU0Ljg3NSwyMTcuNDM3NSBMNDU0Ljg3NSwyMTUuNjg3NSBMNDQ4Ljg3NSwyMTUuNjg3NSBMNDQ4Ljg3NSwyMTcuNDM3NSBMNDUxLDIxNy40Mzc1IFE0NTEsMjE3LjQzNzUgNDUxLDIyNS4yNSBMNDQ4Ljg3NSwyMjUuMjUgTDQ0OC44NzUsMjI3IEw0NTQuODc1LDIyNyBaICIgZmlsbD0iIzAwMDAwMCIvPjx0ZXh0IGZpbGw9IiMwMDAwMDAiIGZvbnQtZmFtaWx5PSJzYW5zLXNlcmlmIiBmb250LXNpemU9IjE0IiBmb250LXN0eWxlPSJpdGFsaWMiIGxlbmd0aEFkanVzdD0ic3BhY2luZyIgdGV4dExlbmd0aD0iNTYiIHg9IjQ3Mi4yNSIgeT0iMjI2Ljc0MjIiPkJJQ2xpZW50PC90ZXh0PjxsaW5lIHN0eWxlPSJzdHJva2U6IzE4MTgxODtzdHJva2Utd2lkdGg6MC41OyIgeDE9IjI3Mi41IiB4Mj0iNjk1LjUiIHkxPSIyMzciIHkyPSIyMzciLz48bGluZSBzdHlsZT0ic3Ryb2tlOiMxODE4MTg7c3Ryb2tlLXdpZHRoOjAuNTsiIHgxPSIyNzIuNSIgeDI9IjY5NS41IiB5MT0iMjQ1IiB5Mj0iMjQ1Ii8+PGVsbGlwc2UgY3g9IjI4Mi41IiBjeT0iMjU3Ljk5MjIiIGZpbGw9IiM4NEJFODQiIHJ4PSIzIiByeT0iMyIgc3R5bGU9InN0cm9rZTojMDM4MDQ4O3N0cm9rZS13aWR0aDoxOyIvPjx0ZXh0IGZpbGw9IiMwMDAwMDAiIGZvbnQtZmFtaWx5PSJzYW5zLXNlcmlmIiBmb250LXNpemU9IjE0IiBsZW5ndGhBZGp1c3Q9InNwYWNpbmciIHRleHRMZW5ndGg9IjMyOSIgeD0iMjkxLjUiIHk9IjI2Mi4yMzQ0Ij5jcmVhdGVVc2VyKHJlcXVlc3Q6IFVzZXJDcmVhdGVQYXJhbXMpOiBSZXNwb25zZTwvdGV4dD48ZWxsaXBzZSBjeD0iMjgyLjUiIGN5PSIyNzIuOTc2NiIgZmlsbD0iIzg0QkU4NCIgcng9IjMiIHJ5PSIzIiBzdHlsZT0ic3Ryb2tlOiMwMzgwNDg7c3Ryb2tlLXdpZHRoOjE7Ii8+PHRleHQgZmlsbD0iIzAwMDAwMCIgZm9udC1mYW1pbHk9InNhbnMtc2VyaWYiIGZvbnQtc2l6ZT0iMTQiIGxlbmd0aEFkanVzdD0ic3BhY2luZyIgdGV4dExlbmd0aD0iMzI5IiB4PSIyOTEuNSIgeT0iMjc3LjIxODgiPnVwZGF0ZVVzZXIocmVxdWVzdDogVXNlclVwZGF0ZVBhcmFtcyk6IFJlc3BvbnNlPC90ZXh0PjxlbGxpcHNlIGN4PSIyODIuNSIgY3k9IjI4Ny45NjA5IiBmaWxsPSIjODRCRTg0IiByeD0iMyIgcnk9IjMiIHN0eWxlPSJzdHJva2U6IzAzODA0ODtzdHJva2Utd2lkdGg6MTsiLz48dGV4dCBmaWxsPSIjMDAwMDAwIiBmb250LWZhbWlseT0ic2Fucy1zZXJpZiIgZm9udC1zaXplPSIxNCIgbGVuZ3RoQWRqdXN0PSJzcGFjaW5nIiB0ZXh0TGVuZ3RoPSIzMTUiIHg9IjI5MS41IiB5PSIyOTIuMjAzMSI+cXVlcnlVc2VyKHJlcXVlc3Q6IFVzZXJRdWVyeVBhcmFtcyk6IFJlc3BvbnNlPC90ZXh0PjxlbGxpcHNlIGN4PSIyODIuNSIgY3k9IjMwMi45NDUzIiBmaWxsPSIjODRCRTg0IiByeD0iMyIgcnk9IjMiIHN0eWxlPSJzdHJva2U6IzAzODA0ODtzdHJva2Utd2lkdGg6MTsiLz48dGV4dCBmaWxsPSIjMDAwMDAwIiBmb250LWZhbWlseT0ic2Fucy1zZXJpZiIgZm9udC1zaXplPSIxNCIgbGVuZ3RoQWRqdXN0PSJzcGFjaW5nIiB0ZXh0TGVuZ3RoPSIzOTkiIHg9IjI5MS41IiB5PSIzMDcuMTg3NSI+c21hcnRCaVVybCh1c2VyTmFtZTogU3RyaW5nLCBjb25maWdVcmw6IFN0cmluZyk6IFJlc3BvbnNlPC90ZXh0PjwvZz48IS0tY2xhc3MgQklDbGllbnRCaXotLT48ZyBjbGFzcz0iZW50aXR5IiBkYXRhLWVudGl0eT0iQklDbGllbnRCaXoiIGRhdGEtc291cmNlLWxpbmU9IjE2IiBkYXRhLXVpZD0iZW50MDAwNCIgaWQ9ImVudGl0eV9CSUNsaWVudEJpeiI+PHJlY3QgZmlsbD0iI0YxRjFGMSIgaGVpZ2h0PSIxMjIuOTIxOSIgcng9IjIuNSIgcnk9IjIuNSIgc3R5bGU9InN0cm9rZTojMTgxODE4O3N0cm9rZS13aWR0aDowLjU7IiB3aWR0aD0iMzU1IiB4PSIzMDYuNSIgeT0iMzc0Ii8+PGVsbGlwc2UgY3g9IjQ0MS4yNSIgY3k9IjM5MCIgZmlsbD0iI0FERDFCMiIgcng9IjExIiByeT0iMTEiIHN0eWxlPSJzdHJva2U6IzE4MTgxODtzdHJva2Utd2lkdGg6MTsiLz48cGF0aCBkPSJNNDM4Ljg3NSwzOTQuMjUgTDQzOC44NzUsMzk2IEw0NDMuODEyNSwzOTYgTDQ0My44MTI1LDM5NC4yNSBMNDM4Ljg3NSwzOTQuMjUgWiBNNDM5LjU2MjUsMzk0LjkzNzUgUTQzOS41NjI1LDM5NC45Mzc1IDQzOS41NjI1LDM4NS43NSBMNDM3LjgxMjUsMzg1Ljc1IFE0MzcuODEyNSwzODUuNzUgNDM3LjgxMjUsMzk0LjkzNzUgTDQzOS41NjI1LDM5NC45Mzc1IFogTTQ0My4xMjUsMzk0LjkzNzUgTDQ0NC44NzUsMzk0LjkzNzUgUTQ0NC44NzUsMzk0LjkzNzUgNDQ0Ljg3NSwzOTIuMTI1IEw0NDMuMTI1LDM5Mi4xMjUgUTQ0My4xMjUsMzkyLjEyNSA0NDMuMTI1LDM5NC45Mzc1IFogTTQ0My4xMjUsMzg1Ljc1IFE0NDMuMTI1LDM4NS43NSA0NDMuMTI1LDM4OC41NjI1IEw0NDQuODc1LDM4OC41NjI1IFE0NDQuODc1LDM4OC41NjI1IDQ0NC44NzUsMzg1Ljc1IEw0NDMuMTI1LDM4NS43NSBaIE00MzguODc1LDM4Ni40Mzc1IEw0NDMuODEyNSwzODYuNDM3NSBMNDQzLjgxMjUsMzg0LjY4NzUgTDQzOC44NzUsMzg0LjY4NzUgTDQzOC44NzUsMzg2LjQzNzUgWiAiIGZpbGw9IiMwMDAwMDAiLz48dGV4dCBmaWxsPSIjMDAwMDAwIiBmb250LWZhbWlseT0ic2Fucy1zZXJpZiIgZm9udC1zaXplPSIxNCIgbGVuZ3RoQWRqdXN0PSJzcGFjaW5nIiB0ZXh0TGVuZ3RoPSI3NyIgeD0iNDYxLjc1IiB5PSIzOTUuNzQyMiI+QklDbGllbnRCaXo8L3RleHQ+PGxpbmUgc3R5bGU9InN0cm9rZTojMTgxODE4O3N0cm9rZS13aWR0aDowLjU7IiB4MT0iMzA3LjUiIHgyPSI2NjAuNSIgeTE9IjQwNiIgeTI9IjQwNiIvPjxyZWN0IGZpbGw9Im5vbmUiIGhlaWdodD0iNiIgc3R5bGU9InN0cm9rZTojQzgyOTMwO3N0cm9rZS13aWR0aDoxOyIgd2lkdGg9IjYiIHg9IjMxNC41IiB5PSI0MTUuOTkyMiIvPjx0ZXh0IGZpbGw9IiMwMDAwMDAiIGZvbnQtZmFtaWx5PSJzYW5zLXNlcmlmIiBmb250LXNpemU9IjE0IiBsZW5ndGhBZGp1c3Q9InNwYWNpbmciIHRleHRMZW5ndGg9IjExMiIgeD0iMzI2LjUiIHk9IjQyMy4yMzQ0Ij5jb25maWc6IEJJQ29uZmlnPC90ZXh0PjxyZWN0IGZpbGw9Im5vbmUiIGhlaWdodD0iNiIgc3R5bGU9InN0cm9rZTojQzgyOTMwO3N0cm9rZS13aWR0aDoxOyIgd2lkdGg9IjYiIHg9IjMxNC41IiB5PSI0MzAuOTc2NiIvPjx0ZXh0IGZpbGw9IiMwMDAwMDAiIGZvbnQtZmFtaWx5PSJzYW5zLXNlcmlmIiBmb250LXNpemU9IjE0IiBsZW5ndGhBZGp1c3Q9InNwYWNpbmciIHRleHRMZW5ndGg9IjI4MCIgeD0iMzI2LjUiIHk9IjQzOC4yMTg4Ij5jb21wZW5zYXRpb25NYW5hZ2VyOiBDb21wZW5zYXRpb25NYW5hZ2VyPC90ZXh0PjxsaW5lIHN0eWxlPSJzdHJva2U6IzE4MTgxODtzdHJva2Utd2lkdGg6MC41OyIgeDE9IjMwNy41IiB4Mj0iNjYwLjUiIHkxPSI0NDMuOTY4OCIgeTI9IjQ0My45Njg4Ii8+PGVsbGlwc2UgY3g9IjMxNy41IiBjeT0iNDU2Ljk2MDkiIGZpbGw9IiM4NEJFODQiIHJ4PSIzIiByeT0iMyIgc3R5bGU9InN0cm9rZTojMDM4MDQ4O3N0cm9rZS13aWR0aDoxOyIvPjx0ZXh0IGZpbGw9IiMwMDAwMDAiIGZvbnQtZmFtaWx5PSJzYW5zLXNlcmlmIiBmb250LXNpemU9IjE0IiBsZW5ndGhBZGp1c3Q9InNwYWNpbmciIHRleHRMZW5ndGg9IjMyOSIgeD0iMzI2LjUiIHk9IjQ2MS4yMDMxIj5jcmVhdGVVc2VyKHJlcXVlc3Q6IFVzZXJDcmVhdGVQYXJhbXMpOiBSZXNwb25zZTwvdGV4dD48ZWxsaXBzZSBjeD0iMzE3LjUiIGN5PSI0NzEuOTQ1MyIgZmlsbD0iIzg0QkU4NCIgcng9IjMiIHJ5PSIzIiBzdHlsZT0ic3Ryb2tlOiMwMzgwNDg7c3Ryb2tlLXdpZHRoOjE7Ii8+PHRleHQgZmlsbD0iIzAwMDAwMCIgZm9udC1mYW1pbHk9InNhbnMtc2VyaWYiIGZvbnQtc2l6ZT0iMTQiIGxlbmd0aEFkanVzdD0ic3BhY2luZyIgdGV4dExlbmd0aD0iMzI5IiB4PSIzMjYuNSIgeT0iNDc2LjE4NzUiPnVwZGF0ZVVzZXIocmVxdWVzdDogVXNlclVwZGF0ZVBhcmFtcyk6IFJlc3BvbnNlPC90ZXh0PjxlbGxpcHNlIGN4PSIzMTcuNSIgY3k9IjQ4Ni45Mjk3IiBmaWxsPSIjODRCRTg0IiByeD0iMyIgcnk9IjMiIHN0eWxlPSJzdHJva2U6IzAzODA0ODtzdHJva2Utd2lkdGg6MTsiLz48dGV4dCBmaWxsPSIjMDAwMDAwIiBmb250LWZhbWlseT0ic2Fucy1zZXJpZiIgZm9udC1zaXplPSIxNCIgbGVuZ3RoQWRqdXN0PSJzcGFjaW5nIiB0ZXh0TGVuZ3RoPSIzMTUiIHg9IjMyNi41IiB5PSI0OTEuMTcxOSI+cXVlcnlVc2VyKHJlcXVlc3Q6IFVzZXJRdWVyeVBhcmFtcyk6IFJlc3BvbnNlPC90ZXh0PjwvZz48IS0tY2xhc3MgQ29tcGVuc2F0aW9uTWFuYWdlci0tPjxnIGNsYXNzPSJlbnRpdHkiIGRhdGEtZW50aXR5PSJDb21wZW5zYXRpb25NYW5hZ2VyIiBkYXRhLXNvdXJjZS1saW5lPSIyNCIgZGF0YS11aWQ9ImVudDAwMDYiIGlkPSJlbnRpdHlfQ29tcGVuc2F0aW9uTWFuYWdlciI+PHJlY3QgZmlsbD0iI0YxRjFGMSIgaGVpZ2h0PSI5Mi45NTMxIiByeD0iMi41IiByeT0iMi41IiBzdHlsZT0ic3Ryb2tlOiMxODE4MTg7c3Ryb2tlLXdpZHRoOjAuNTsiIHdpZHRoPSI1NTgiIHg9IjciIHk9IjU3MiIvPjxlbGxpcHNlIGN4PSIyMTUuMjUiIGN5PSI1ODgiIGZpbGw9IiNBREQxQjIiIHJ4PSIxMSIgcnk9IjExIiBzdHlsZT0ic3Ryb2tlOiMxODE4MTg7c3Ryb2tlLXdpZHRoOjE7Ii8+PHBhdGggZD0iTTIxMi44NzUsNTkyLjI1IEwyMTIuODc1LDU5NCBMMjE3LjgxMjUsNTk0IEwyMTcuODEyNSw1OTIuMjUgTDIxMi44NzUsNTkyLjI1IFogTTIxMy41NjI1LDU5Mi45Mzc1IFEyMTMuNTYyNSw1OTIuOTM3NSAyMTMuNTYyNSw1ODMuNzUgTDIxMS44MTI1LDU4My43NSBRMjExLjgxMjUsNTgzLjc1IDIxMS44MTI1LDU5Mi45Mzc1IEwyMTMuNTYyNSw1OTIuOTM3NSBaIE0yMTcuMTI1LDU5Mi45Mzc1IEwyMTguODc1LDU5Mi45Mzc1IFEyMTguODc1LDU5Mi45Mzc1IDIxOC44NzUsNTkwLjEyNSBMMjE3LjEyNSw1OTAuMTI1IFEyMTcuMTI1LDU5MC4xMjUgMjE3LjEyNSw1OTIuOTM3NSBaIE0yMTcuMTI1LDU4My43NSBRMjE3LjEyNSw1ODMuNzUgMjE3LjEyNSw1ODYuNTYyNSBMMjE4Ljg3NSw1ODYuNTYyNSBRMjE4Ljg3NSw1ODYuNTYyNSAyMTguODc1LDU4My43NSBMMjE3LjEyNSw1ODMuNzUgWiBNMjEyLjg3NSw1ODQuNDM3NSBMMjE3LjgxMjUsNTg0LjQzNzUgTDIxNy44MTI1LDU4Mi42ODc1IEwyMTIuODc1LDU4Mi42ODc1IEwyMTIuODc1LDU4NC40Mzc1IFogIiBmaWxsPSIjMDAwMDAwIi8+PHRleHQgZmlsbD0iIzAwMDAwMCIgZm9udC1mYW1pbHk9InNhbnMtc2VyaWYiIGZvbnQtc2l6ZT0iMTQiIGxlbmd0aEFkanVzdD0ic3BhY2luZyIgdGV4dExlbmd0aD0iMTMzIiB4PSIyMzUuNzUiIHk9IjU5My43NDIyIj5Db21wZW5zYXRpb25NYW5hZ2VyPC90ZXh0PjxsaW5lIHN0eWxlPSJzdHJva2U6IzE4MTgxODtzdHJva2Utd2lkdGg6MC41OyIgeDE9IjgiIHgyPSI1NjQiIHkxPSI2MDQiIHkyPSI2MDQiLz48cmVjdCBmaWxsPSJub25lIiBoZWlnaHQ9IjYiIHN0eWxlPSJzdHJva2U6I0M4MjkzMDtzdHJva2Utd2lkdGg6MTsiIHdpZHRoPSI2IiB4PSIxNSIgeT0iNjEzLjk5MjIiLz48dGV4dCBmaWxsPSIjMDAwMDAwIiBmb250LWZhbWlseT0ic2Fucy1zZXJpZiIgZm9udC1zaXplPSIxNCIgbGVuZ3RoQWRqdXN0PSJzcGFjaW5nIiB0ZXh0TGVuZ3RoPSIxNjEiIHg9IjI3IiB5PSI2MjEuMjM0NCI+bG9nZ2VyOiBPcGVyYXRpb25Mb2dnZXI8L3RleHQ+PGxpbmUgc3R5bGU9InN0cm9rZTojMTgxODE4O3N0cm9rZS13aWR0aDowLjU7IiB4MT0iOCIgeDI9IjU2NCIgeTE9IjYyNi45ODQ0IiB5Mj0iNjI2Ljk4NDQiLz48ZWxsaXBzZSBjeD0iMTgiIGN5PSI2MzkuOTc2NiIgZmlsbD0iIzg0QkU4NCIgcng9IjMiIHJ5PSIzIiBzdHlsZT0ic3Ryb2tlOiMwMzgwNDg7c3Ryb2tlLXdpZHRoOjE7Ii8+PHRleHQgZmlsbD0iIzAwMDAwMCIgZm9udC1mYW1pbHk9InNhbnMtc2VyaWYiIGZvbnQtc2l6ZT0iMTQiIGxlbmd0aEFkanVzdD0ic3BhY2luZyIgdGV4dExlbmd0aD0iMTc1IiB4PSIyNyIgeT0iNjQ0LjIxODgiPnByb2Nlc3NBdXRvQ29tcGVuc2F0aW9uKCk8L3RleHQ+PGVsbGlwc2UgY3g9IjE4IiBjeT0iNjU0Ljk2MDkiIGZpbGw9IiM4NEJFODQiIHJ4PSIzIiByeT0iMyIgc3R5bGU9InN0cm9rZTojMDM4MDQ4O3N0cm9rZS13aWR0aDoxOyIvPjx0ZXh0IGZpbGw9IiMwMDAwMDAiIGZvbnQtZmFtaWx5PSJzYW5zLXNlcmlmIiBmb250LXNpemU9IjE0IiBsZW5ndGhBZGp1c3Q9InNwYWNpbmciIHRleHRMZW5ndGg9IjUzMiIgeD0iMjciIHk9IjY1OS4yMDMxIj50cmlnZ2VyTWFudWFsQ29tcGVuc2F0aW9uKHR5cGU6IE9wZXJhdGlvblR5cGUsIHBhcmFtczogVXNlclBhcmFtcyk6IFJlc3BvbnNlPC90ZXh0PjwvZz48IS0tY2xhc3MgT3BlcmF0aW9uTG9nZ2VyLS0+PGcgY2xhc3M9ImVudGl0eSIgZGF0YS1lbnRpdHk9Ik9wZXJhdGlvbkxvZ2dlciIgZGF0YS1zb3VyY2UtbGluZT0iMzAiIGRhdGEtdWlkPSJlbnQwMDA3IiBpZD0iZW50aXR5X09wZXJhdGlvbkxvZ2dlciI+PHJlY3QgZmlsbD0iI0YxRjFGMSIgaGVpZ2h0PSI3Ny45Njg4IiByeD0iMi41IiByeT0iMi41IiBzdHlsZT0ic3Ryb2tlOiMxODE4MTg7c3Ryb2tlLXdpZHRoOjAuNTsiIHdpZHRoPSIzNDgiIHg9IjcyIiB5PSI3NTUiLz48ZWxsaXBzZSBjeD0iMTg5LjI1IiBjeT0iNzcxIiBmaWxsPSIjQUREMUIyIiByeD0iMTEiIHJ5PSIxMSIgc3R5bGU9InN0cm9rZTojMTgxODE4O3N0cm9rZS13aWR0aDoxOyIvPjxwYXRoIGQ9Ik0xODYuODc1LDc3NS4yNSBMMTg2Ljg3NSw3NzcgTDE5MS44MTI1LDc3NyBMMTkxLjgxMjUsNzc1LjI1IEwxODYuODc1LDc3NS4yNSBaIE0xODcuNTYyNSw3NzUuOTM3NSBRMTg3LjU2MjUsNzc1LjkzNzUgMTg3LjU2MjUsNzY2Ljc1IEwxODUuODEyNSw3NjYuNzUgUTE4NS44MTI1LDc2Ni43NSAxODUuODEyNSw3NzUuOTM3NSBMMTg3LjU2MjUsNzc1LjkzNzUgWiBNMTkxLjEyNSw3NzUuOTM3NSBMMTkyLjg3NSw3NzUuOTM3NSBRMTkyLjg3NSw3NzUuOTM3NSAxOTIuODc1LDc3My4xMjUgTDE5MS4xMjUsNzczLjEyNSBRMTkxLjEyNSw3NzMuMTI1IDE5MS4xMjUsNzc1LjkzNzUgWiBNMTkxLjEyNSw3NjYuNzUgUTE5MS4xMjUsNzY2Ljc1IDE5MS4xMjUsNzY5LjU2MjUgTDE5Mi44NzUsNzY5LjU2MjUgUTE5Mi44NzUsNzY5LjU2MjUgMTkyLjg3NSw3NjYuNzUgTDE5MS4xMjUsNzY2Ljc1IFogTTE4Ni44NzUsNzY3LjQzNzUgTDE5MS44MTI1LDc2Ny40Mzc1IEwxOTEuODEyNSw3NjUuNjg3NSBMMTg2Ljg3NSw3NjUuNjg3NSBMMTg2Ljg3NSw3NjcuNDM3NSBaICIgZmlsbD0iIzAwMDAwMCIvPjx0ZXh0IGZpbGw9IiMwMDAwMDAiIGZvbnQtZmFtaWx5PSJzYW5zLXNlcmlmIiBmb250LXNpemU9IjE0IiBsZW5ndGhBZGp1c3Q9InNwYWNpbmciIHRleHRMZW5ndGg9IjEwNSIgeD0iMjA5Ljc1IiB5PSI3NzYuNzQyMiI+T3BlcmF0aW9uTG9nZ2VyPC90ZXh0PjxsaW5lIHN0eWxlPSJzdHJva2U6IzE4MTgxODtzdHJva2Utd2lkdGg6MC41OyIgeDE9IjczIiB4Mj0iNDE5IiB5MT0iNzg3IiB5Mj0iNzg3Ii8+PGxpbmUgc3R5bGU9InN0cm9rZTojMTgxODE4O3N0cm9rZS13aWR0aDowLjU7IiB4MT0iNzMiIHgyPSI0MTkiIHkxPSI3OTUiIHkyPSI3OTUiLz48ZWxsaXBzZSBjeD0iODMiIGN5PSI4MDcuOTkyMiIgZmlsbD0iIzg0QkU4NCIgcng9IjMiIHJ5PSIzIiBzdHlsZT0ic3Ryb2tlOiMwMzgwNDg7c3Ryb2tlLXdpZHRoOjE7Ii8+PHRleHQgZmlsbD0iIzAwMDAwMCIgZm9udC1mYW1pbHk9InNhbnMtc2VyaWYiIGZvbnQtc2l6ZT0iMTQiIGxlbmd0aEFkanVzdD0ic3BhY2luZyIgdGV4dExlbmd0aD0iMTg5IiB4PSI5MiIgeT0iODEyLjIzNDQiPmxvZyh0YXNrOiBDb21wZW5zYXRpb25UYXNrKTwvdGV4dD48ZWxsaXBzZSBjeD0iODMiIGN5PSI4MjIuOTc2NiIgZmlsbD0iIzg0QkU4NCIgcng9IjMiIHJ5PSIzIiBzdHlsZT0ic3Ryb2tlOiMwMzgwNDg7c3Ryb2tlLXdpZHRoOjE7Ii8+PHRleHQgZmlsbD0iIzAwMDAwMCIgZm9udC1mYW1pbHk9InNhbnMtc2VyaWYiIGZvbnQtc2l6ZT0iMTQiIGxlbmd0aEFkanVzdD0ic3BhY2luZyIgdGV4dExlbmd0aD0iMzIyIiB4PSI5MiIgeT0iODI3LjIxODgiPnF1ZXJ5TG9ncyhiaW1VaWQ6IFN0cmluZyk6IExpc3QmbHQ7T3BlcmF0aW9uSW5mbyZndDs8L3RleHQ+PC9nPjwhLS1jbGFzcyBPcGVyYXRpb25JbmZvLS0+PGcgY2xhc3M9ImVudGl0eSIgZGF0YS1lbnRpdHk9Ik9wZXJhdGlvbkluZm8iIGRhdGEtc291cmNlLWxpbmU9IjM1IiBkYXRhLXVpZD0iZW50MDAwOCIgaWQ9ImVudGl0eV9PcGVyYXRpb25JbmZvIj48cmVjdCBmaWxsPSIjRjFGMUYxIiBoZWlnaHQ9IjEzNy45MDYzIiByeD0iMi41IiByeT0iMi41IiBzdHlsZT0ic3Ryb2tlOiMxODE4MTg7c3Ryb2tlLXdpZHRoOjAuNTsiIHdpZHRoPSIyNzEiIHg9IjExMC41IiB5PSI5MDkiLz48ZWxsaXBzZSBjeD0iMTk2LjI1IiBjeT0iOTI1IiBmaWxsPSIjQUREMUIyIiByeD0iMTEiIHJ5PSIxMSIgc3R5bGU9InN0cm9rZTojMTgxODE4O3N0cm9rZS13aWR0aDoxOyIvPjxwYXRoIGQ9Ik0xOTMuODc1LDkyOS4yNSBMMTkzLjg3NSw5MzEgTDE5OC44MTI1LDkzMSBMMTk4LjgxMjUsOTI5LjI1IEwxOTMuODc1LDkyOS4yNSBaIE0xOTQuNTYyNSw5MjkuOTM3NSBRMTk0LjU2MjUsOTI5LjkzNzUgMTk0LjU2MjUsOTIwLjc1IEwxOTIuODEyNSw5MjAuNzUgUTE5Mi44MTI1LDkyMC43NSAxOTIuODEyNSw5MjkuOTM3NSBMMTk0LjU2MjUsOTI5LjkzNzUgWiBNMTk4LjEyNSw5MjkuOTM3NSBMMTk5Ljg3NSw5MjkuOTM3NSBRMTk5Ljg3NSw5MjkuOTM3NSAxOTkuODc1LDkyNy4xMjUgTDE5OC4xMjUsOTI3LjEyNSBRMTk4LjEyNSw5MjcuMTI1IDE5OC4xMjUsOTI5LjkzNzUgWiBNMTk4LjEyNSw5MjAuNzUgUTE5OC4xMjUsOTIwLjc1IDE5OC4xMjUsOTIzLjU2MjUgTDE5OS44NzUsOTIzLjU2MjUgUTE5OS44NzUsOTIzLjU2MjUgMTk5Ljg3NSw5MjAuNzUgTDE5OC4xMjUsOTIwLjc1IFogTTE5My44NzUsOTIxLjQzNzUgTDE5OC44MTI1LDkyMS40Mzc1IEwxOTguODEyNSw5MTkuNjg3NSBMMTkzLjg3NSw5MTkuNjg3NSBMMTkzLjg3NSw5MjEuNDM3NSBaICIgZmlsbD0iIzAwMDAwMCIvPjx0ZXh0IGZpbGw9IiMwMDAwMDAiIGZvbnQtZmFtaWx5PSJzYW5zLXNlcmlmIiBmb250LXNpemU9IjE0IiBsZW5ndGhBZGp1c3Q9InNwYWNpbmciIHRleHRMZW5ndGg9IjkxIiB4PSIyMTYuNzUiIHk9IjkzMC43NDIyIj5PcGVyYXRpb25JbmZvPC90ZXh0PjxsaW5lIHN0eWxlPSJzdHJva2U6IzE4MTgxODtzdHJva2Utd2lkdGg6MC41OyIgeDE9IjExMS41IiB4Mj0iMzgwLjUiIHkxPSI5NDEiIHkyPSI5NDEiLz48ZWxsaXBzZSBjeD0iMTIxLjUiIGN5PSI5NTMuOTkyMiIgZmlsbD0ibm9uZSIgcng9IjMiIHJ5PSIzIiBzdHlsZT0ic3Ryb2tlOiMwMzgwNDg7c3Ryb2tlLXdpZHRoOjE7Ii8+PHRleHQgZmlsbD0iIzAwMDAwMCIgZm9udC1mYW1pbHk9InNhbnMtc2VyaWYiIGZvbnQtc2l6ZT0iMTQiIGxlbmd0aEFkanVzdD0ic3BhY2luZyIgdGV4dExlbmd0aD0iNzAiIHg9IjEzMC41IiB5PSI5NTguMjM0NCI+SWQ6IFN0cmluZzwvdGV4dD48ZWxsaXBzZSBjeD0iMTIxLjUiIGN5PSI5NjguOTc2NiIgZmlsbD0ibm9uZSIgcng9IjMiIHJ5PSIzIiBzdHlsZT0ic3Ryb2tlOiMwMzgwNDg7c3Ryb2tlLXdpZHRoOjE7Ii8+PHRleHQgZmlsbD0iIzAwMDAwMCIgZm9udC1mYW1pbHk9InNhbnMtc2VyaWYiIGZvbnQtc2l6ZT0iMTQiIGxlbmd0aEFkanVzdD0ic3BhY2luZyIgdGV4dExlbmd0aD0iMTI2IiB4PSIxMzAuNSIgeT0iOTczLjIxODgiPnBhcmFtczogVXNlclBhcmFtczwvdGV4dD48ZWxsaXBzZSBjeD0iMTIxLjUiIGN5PSI5ODMuOTYwOSIgZmlsbD0ibm9uZSIgcng9IjMiIHJ5PSIzIiBzdHlsZT0ic3Ryb2tlOiMwMzgwNDg7c3Ryb2tlLXdpZHRoOjE7Ii8+PHRleHQgZmlsbD0iIzAwMDAwMCIgZm9udC1mYW1pbHk9InNhbnMtc2VyaWYiIGZvbnQtc2l6ZT0iMTQiIGxlbmd0aEFkanVzdD0ic3BhY2luZyIgdGV4dExlbmd0aD0iOTgiIHg9IjEzMC41IiB5PSI5ODguMjAzMSI+c3RhdHVzOiBTdHJpbmc8L3RleHQ+PGVsbGlwc2UgY3g9IjEyMS41IiBjeT0iOTk4Ljk0NTMiIGZpbGw9Im5vbmUiIHJ4PSIzIiByeT0iMyIgc3R5bGU9InN0cm9rZTojMDM4MDQ4O3N0cm9rZS13aWR0aDoxOyIvPjx0ZXh0IGZpbGw9IiMwMDAwMDAiIGZvbnQtZmFtaWx5PSJzYW5zLXNlcmlmIiBmb250LXNpemU9IjE0IiBsZW5ndGhBZGp1c3Q9InNwYWNpbmciIHRleHRMZW5ndGg9Ijk4IiB4PSIxMzAuNSIgeT0iMTAwMy4xODc1Ij5yZXN1bHQ6IFN0cmluZzwvdGV4dD48dGV4dCBmaWxsPSIjMDAwMDAwIiBmb250LWZhbWlseT0ic2Fucy1zZXJpZiIgZm9udC1zaXplPSIxNCIgbGVuZ3RoQWRqdXN0PSJzcGFjaW5nIiB0ZXh0TGVuZ3RoPSI3IiB4PSIxMzAuNSIgeT0iMTAxOC4xNzE5Ij4mIzgyMzA7PC90ZXh0PjxsaW5lIHN0eWxlPSJzdHJva2U6IzE4MTgxODtzdHJva2Utd2lkdGg6MC41OyIgeDE9IjExMS41IiB4Mj0iMzgwLjUiIHkxPSIxMDIzLjkyMTkiIHkyPSIxMDIzLjkyMTkiLz48ZWxsaXBzZSBjeD0iMTIxLjUiIGN5PSIxMDM2LjkxNDEiIGZpbGw9IiM4NEJFODQiIHJ4PSIzIiByeT0iMyIgc3R5bGU9InN0cm9rZTojMDM4MDQ4O3N0cm9rZS13aWR0aDoxOyIvPjx0ZXh0IGZpbGw9IiMwMDAwMDAiIGZvbnQtZmFtaWx5PSJzYW5zLXNlcmlmIiBmb250LXNpemU9IjE0IiBsZW5ndGhBZGp1c3Q9InNwYWNpbmciIHRleHRMZW5ndGg9IjI0NSIgeD0iMTMwLjUiIHk9IjEwNDEuMTU2MyI+dHlwZTogT3BlcmF0aW9uVHlwZSAoQ1JFQVRFL1VQREFURSk8L3RleHQ+PC9nPjwhLS1jbGFzcyBVc2VyUGFyYW1zLS0+PGcgY2xhc3M9ImVudGl0eSIgZGF0YS1lbnRpdHk9IlVzZXJQYXJhbXMiIGRhdGEtc291cmNlLWxpbmU9IjQ0IiBkYXRhLXVpZD0iZW50MDAwOSIgaWQ9ImVudGl0eV9Vc2VyUGFyYW1zIj48cmVjdCBmaWxsPSIjRjFGMUYxIiBoZWlnaHQ9IjgzLjc5NjkiIHJ4PSIyLjUiIHJ5PSIyLjUiIHN0eWxlPSJzdHJva2U6IzE4MTgxODtzdHJva2Utd2lkdGg6MC41OyIgd2lkdGg9IjE2NiIgeD0iNjE2IiB5PSI1NzYuNSIvPjxlbGxpcHNlIGN4PSI2NTkuOCIgY3k9IjU5NS40MTQxIiBmaWxsPSIjQUREMUIyIiByeD0iMTEiIHJ5PSIxMSIgc3R5bGU9InN0cm9rZTojMTgxODE4O3N0cm9rZS13aWR0aDoxOyIvPjxwYXRoIGQ9Ik02NTcuNDI1LDU5OS42NjQxIEw2NTcuNDI1LDYwMS40MTQxIEw2NjIuMzYyNSw2MDEuNDE0MSBMNjYyLjM2MjUsNTk5LjY2NDEgTDY1Ny40MjUsNTk5LjY2NDEgWiBNNjU4LjExMjUsNjAwLjM1MTYgUTY1OC4xMTI1LDYwMC4zNTE2IDY1OC4xMTI1LDU5MS4xNjQxIEw2NTYuMzYyNSw1OTEuMTY0MSBRNjU2LjM2MjUsNTkxLjE2NDEgNjU2LjM2MjUsNjAwLjM1MTYgTDY1OC4xMTI1LDYwMC4zNTE2IFogTTY2MS42NzUsNjAwLjM1MTYgTDY2My40MjUsNjAwLjM1MTYgUTY2My40MjUsNjAwLjM1MTYgNjYzLjQyNSw1OTcuNTM5MSBMNjYxLjY3NSw1OTcuNTM5MSBRNjYxLjY3NSw1OTcuNTM5MSA2NjEuNjc1LDYwMC4zNTE2IFogTTY2MS42NzUsNTkxLjE2NDEgUTY2MS42NzUsNTkxLjE2NDEgNjYxLjY3NSw1OTMuOTc2NiBMNjYzLjQyNSw1OTMuOTc2NiBRNjYzLjQyNSw1OTMuOTc2NiA2NjMuNDI1LDU5MS4xNjQxIEw2NjEuNjc1LDU5MS4xNjQxIFogTTY1Ny40MjUsNTkxLjg1MTYgTDY2Mi4zNjI1LDU5MS44NTE2IEw2NjIuMzYyNSw1OTAuMTAxNiBMNjU3LjQyNSw1OTAuMTAxNiBMNjU3LjQyNSw1OTEuODUxNiBaICIgZmlsbD0iIzAwMDAwMCIvPjx0ZXh0IGZpbGw9IiMwMDAwMDAiIGZvbnQtZmFtaWx5PSJzYW5zLXNlcmlmIiBmb250LXNpemU9IjEyIiBmb250LXN0eWxlPSJpdGFsaWMiIGxlbmd0aEFkanVzdD0ic3BhY2luZyIgdGV4dExlbmd0aD0iNjAiIHg9IjY4NS4yIiB5PSI1OTIuODQzOCI+JiMxNzE7YWJzdHJhY3QmIzE4Nzs8L3RleHQ+PHRleHQgZmlsbD0iIzAwMDAwMCIgZm9udC1mYW1pbHk9InNhbnMtc2VyaWYiIGZvbnQtc2l6ZT0iMTQiIGxlbmd0aEFkanVzdD0ic3BhY2luZyIgdGV4dExlbmd0aD0iNzAiIHg9IjY4MC4yIiB5PSI2MDcuNTc4MSI+VXNlclBhcmFtczwvdGV4dD48bGluZSBzdHlsZT0ic3Ryb2tlOiMxODE4MTg7c3Ryb2tlLXdpZHRoOjAuNTsiIHgxPSI2MTciIHgyPSI3ODEiIHkxPSI2MTQuMzI4MSIgeTI9IjYxNC4zMjgxIi8+PGVsbGlwc2UgY3g9IjYyNyIgY3k9IjYyNy4zMjAzIiBmaWxsPSJub25lIiByeD0iMyIgcnk9IjMiIHN0eWxlPSJzdHJva2U6IzAzODA0ODtzdHJva2Utd2lkdGg6MTsiLz48dGV4dCBmaWxsPSIjMDAwMDAwIiBmb250LWZhbWlseT0ic2Fucy1zZXJpZiIgZm9udC1zaXplPSIxNCIgbGVuZ3RoQWRqdXN0PSJzcGFjaW5nIiB0ZXh0TGVuZ3RoPSIxNDAiIHg9IjYzNiIgeT0iNjMxLjU2MjUiPmJpbVJlcXVlc3RJZDogU3RyaW5nPC90ZXh0PjxlbGxpcHNlIGN4PSI2MjciIGN5PSI2NDIuMzA0NyIgZmlsbD0ibm9uZSIgcng9IjMiIHJ5PSIzIiBzdHlsZT0ic3Ryb2tlOiMwMzgwNDg7c3Ryb2tlLXdpZHRoOjE7Ii8+PHRleHQgZmlsbD0iIzAwMDAwMCIgZm9udC1mYW1pbHk9InNhbnMtc2VyaWYiIGZvbnQtc2l6ZT0iMTQiIGxlbmd0aEFkanVzdD0ic3BhY2luZyIgdGV4dExlbmd0aD0iMTEyIiB4PSI2MzYiIHk9IjY0Ni41NDY5Ij5iaW1Ub2tlbjogU3RyaW5nPC90ZXh0PjxsaW5lIHN0eWxlPSJzdHJva2U6IzE4MTgxODtzdHJva2Utd2lkdGg6MC41OyIgeDE9IjYxNyIgeDI9Ijc4MSIgeTE9IjY1Mi4yOTY5IiB5Mj0iNjUyLjI5NjkiLz48L2c+PCEtLWNsYXNzIFVzZXJDcmVhdGVQYXJhbXMtLT48ZyBjbGFzcz0iZW50aXR5IiBkYXRhLWVudGl0eT0iVXNlckNyZWF0ZVBhcmFtcyIgZGF0YS1zb3VyY2UtbGluZT0iNDkiIGRhdGEtdWlkPSJlbnQwMDEwIiBpZD0iZW50aXR5X1VzZXJDcmVhdGVQYXJhbXMiPjxyZWN0IGZpbGw9IiNGMUYxRjEiIGhlaWdodD0iMTA3LjkzNzUiIHJ4PSIyLjUiIHJ5PSIyLjUiIHN0eWxlPSJzdHJva2U6IzE4MTgxODtzdHJva2Utd2lkdGg6MC41OyIgd2lkdGg9IjE0NCIgeD0iNDU1IiB5PSI3NDAiLz48ZWxsaXBzZSBjeD0iNDcwIiBjeT0iNzU2IiBmaWxsPSIjQUREMUIyIiByeD0iMTEiIHJ5PSIxMSIgc3R5bGU9InN0cm9rZTojMTgxODE4O3N0cm9rZS13aWR0aDoxOyIvPjxwYXRoIGQ9Ik00NjcuNjI1LDc2MC4yNSBMNDY3LjYyNSw3NjIgTDQ3Mi41NjI1LDc2MiBMNDcyLjU2MjUsNzYwLjI1IEw0NjcuNjI1LDc2MC4yNSBaIE00NjguMzEyNSw3NjAuOTM3NSBRNDY4LjMxMjUsNzYwLjkzNzUgNDY4LjMxMjUsNzUxLjc1IEw0NjYuNTYyNSw3NTEuNzUgUTQ2Ni41NjI1LDc1MS43NSA0NjYuNTYyNSw3NjAuOTM3NSBMNDY4LjMxMjUsNzYwLjkzNzUgWiBNNDcxLjg3NSw3NjAuOTM3NSBMNDczLjYyNSw3NjAuOTM3NSBRNDczLjYyNSw3NjAuOTM3NSA0NzMuNjI1LDc1OC4xMjUgTDQ3MS44NzUsNzU4LjEyNSBRNDcxLjg3NSw3NTguMTI1IDQ3MS44NzUsNzYwLjkzNzUgWiBNNDcxLjg3NSw3NTEuNzUgUTQ3MS44NzUsNzUxLjc1IDQ3MS44NzUsNzU0LjU2MjUgTDQ3My42MjUsNzU0LjU2MjUgUTQ3My42MjUsNzU0LjU2MjUgNDczLjYyNSw3NTEuNzUgTDQ3MS44NzUsNzUxLjc1IFogTTQ2Ny42MjUsNzUyLjQzNzUgTDQ3Mi41NjI1LDc1Mi40Mzc1IEw0NzIuNTYyNSw3NTAuNjg3NSBMNDY3LjYyNSw3NTAuNjg3NSBMNDY3LjYyNSw3NTIuNDM3NSBaICIgZmlsbD0iIzAwMDAwMCIvPjx0ZXh0IGZpbGw9IiMwMDAwMDAiIGZvbnQtZmFtaWx5PSJzYW5zLXNlcmlmIiBmb250LXNpemU9IjE0IiBsZW5ndGhBZGp1c3Q9InNwYWNpbmciIHRleHRMZW5ndGg9IjExMiIgeD0iNDg0IiB5PSI3NjEuNzQyMiI+VXNlckNyZWF0ZVBhcmFtczwvdGV4dD48bGluZSBzdHlsZT0ic3Ryb2tlOiMxODE4MTg7c3Ryb2tlLXdpZHRoOjAuNTsiIHgxPSI0NTYiIHgyPSI1OTgiIHkxPSI3NzIiIHkyPSI3NzIiLz48ZWxsaXBzZSBjeD0iNDY2IiBjeT0iNzg0Ljk5MjIiIGZpbGw9Im5vbmUiIHJ4PSIzIiByeT0iMyIgc3R5bGU9InN0cm9rZTojMDM4MDQ4O3N0cm9rZS13aWR0aDoxOyIvPjx0ZXh0IGZpbGw9IiMwMDAwMDAiIGZvbnQtZmFtaWx5PSJzYW5zLXNlcmlmIiBmb250LXNpemU9IjE0IiBsZW5ndGhBZGp1c3Q9InNwYWNpbmciIHRleHRMZW5ndGg9IjkxIiB4PSI0NzUiIHk9Ijc4OS4yMzQ0Ij5vcmdJZDogU3RyaW5nPC90ZXh0PjxlbGxpcHNlIGN4PSI0NjYiIGN5PSI3OTkuOTc2NiIgZmlsbD0ibm9uZSIgcng9IjMiIHJ5PSIzIiBzdHlsZT0ic3Ryb2tlOiMwMzgwNDg7c3Ryb2tlLXdpZHRoOjE7Ii8+PHRleHQgZmlsbD0iIzAwMDAwMCIgZm9udC1mYW1pbHk9InNhbnMtc2VyaWYiIGZvbnQtc2l6ZT0iMTQiIGxlbmd0aEFkanVzdD0ic3BhY2luZyIgdGV4dExlbmd0aD0iOTgiIHg9IjQ3NSIgeT0iODA0LjIxODgiPnVzZXJJZDogU3RyaW5nPC90ZXh0PjxlbGxpcHNlIGN4PSI0NjYiIGN5PSI4MTQuOTYwOSIgZmlsbD0ibm9uZSIgcng9IjMiIHJ5PSIzIiBzdHlsZT0ic3Ryb2tlOiMwMzgwNDg7c3Ryb2tlLXdpZHRoOjE7Ii8+PHRleHQgZmlsbD0iIzAwMDAwMCIgZm9udC1mYW1pbHk9InNhbnMtc2VyaWYiIGZvbnQtc2l6ZT0iMTQiIGxlbmd0aEFkanVzdD0ic3BhY2luZyIgdGV4dExlbmd0aD0iMTEyIiB4PSI0NzUiIHk9IjgxOS4yMDMxIj51c2VyTmFtZTogU3RyaW5nPC90ZXh0PjxlbGxpcHNlIGN4PSI0NjYiIGN5PSI4MjkuOTQ1MyIgZmlsbD0ibm9uZSIgcng9IjMiIHJ5PSIzIiBzdHlsZT0ic3Ryb2tlOiMwMzgwNDg7c3Ryb2tlLXdpZHRoOjE7Ii8+PHRleHQgZmlsbD0iIzAwMDAwMCIgZm9udC1mYW1pbHk9InNhbnMtc2VyaWYiIGZvbnQtc2l6ZT0iMTQiIGxlbmd0aEFkanVzdD0ic3BhY2luZyIgdGV4dExlbmd0aD0iMjEiIHg9IjQ3NSIgeT0iODM0LjE4NzUiPi4uLjwvdGV4dD48bGluZSBzdHlsZT0ic3Ryb2tlOiMxODE4MTg7c3Ryb2tlLXdpZHRoOjAuNTsiIHgxPSI0NTYiIHgyPSI1OTgiIHkxPSI4MzkuOTM3NSIgeTI9IjgzOS45Mzc1Ii8+PC9nPjwhLS1jbGFzcyBVc2VyVXBkYXRlUGFyYW1zLS0+PGcgY2xhc3M9ImVudGl0eSIgZGF0YS1lbnRpdHk9IlVzZXJVcGRhdGVQYXJhbXMiIGRhdGEtc291cmNlLWxpbmU9IjU2IiBkYXRhLXVpZD0iZW50MDAxMiIgaWQ9ImVudGl0eV9Vc2VyVXBkYXRlUGFyYW1zIj48cmVjdCBmaWxsPSIjRjFGMUYxIiBoZWlnaHQ9IjkyLjk1MzEiIHJ4PSIyLjUiIHJ5PSIyLjUiIHN0eWxlPSJzdHJva2U6IzE4MTgxODtzdHJva2Utd2lkdGg6MC41OyIgd2lkdGg9IjE0NSIgeD0iNjM0LjUiIHk9Ijc0Ny41Ii8+PGVsbGlwc2UgY3g9IjY0OS45NSIgY3k9Ijc2My41IiBmaWxsPSIjQUREMUIyIiByeD0iMTEiIHJ5PSIxMSIgc3R5bGU9InN0cm9rZTojMTgxODE4O3N0cm9rZS13aWR0aDoxOyIvPjxwYXRoIGQ9Ik02NDcuNTc1LDc2Ny43NSBMNjQ3LjU3NSw3NjkuNSBMNjUyLjUxMjUsNzY5LjUgTDY1Mi41MTI1LDc2Ny43NSBMNjQ3LjU3NSw3NjcuNzUgWiBNNjQ4LjI2MjUsNzY4LjQzNzUgUTY0OC4yNjI1LDc2OC40Mzc1IDY0OC4yNjI1LDc1OS4yNSBMNjQ2LjUxMjUsNzU5LjI1IFE2NDYuNTEyNSw3NTkuMjUgNjQ2LjUxMjUsNzY4LjQzNzUgTDY0OC4yNjI1LDc2OC40Mzc1IFogTTY1MS44MjUsNzY4LjQzNzUgTDY1My41NzUsNzY4LjQzNzUgUTY1My41NzUsNzY4LjQzNzUgNjUzLjU3NSw3NjUuNjI1IEw2NTEuODI1LDc2NS42MjUgUTY1MS44MjUsNzY1LjYyNSA2NTEuODI1LDc2OC40Mzc1IFogTTY1MS44MjUsNzU5LjI1IFE2NTEuODI1LDc1OS4yNSA2NTEuODI1LDc2Mi4wNjI1IEw2NTMuNTc1LDc2Mi4wNjI1IFE2NTMuNTc1LDc2Mi4wNjI1IDY1My41NzUsNzU5LjI1IEw2NTEuODI1LDc1OS4yNSBaIE02NDcuNTc1LDc1OS45Mzc1IEw2NTIuNTEyNSw3NTkuOTM3NSBMNjUyLjUxMjUsNzU4LjE4NzUgTDY0Ny41NzUsNzU4LjE4NzUgTDY0Ny41NzUsNzU5LjkzNzUgWiAiIGZpbGw9IiMwMDAwMDAiLz48dGV4dCBmaWxsPSIjMDAwMDAwIiBmb250LWZhbWlseT0ic2Fucy1zZXJpZiIgZm9udC1zaXplPSIxNCIgbGVuZ3RoQWRqdXN0PSJzcGFjaW5nIiB0ZXh0TGVuZ3RoPSIxMTIiIHg9IjY2NC4wNSIgeT0iNzY5LjI0MjIiPlVzZXJVcGRhdGVQYXJhbXM8L3RleHQ+PGxpbmUgc3R5bGU9InN0cm9rZTojMTgxODE4O3N0cm9rZS13aWR0aDowLjU7IiB4MT0iNjM1LjUiIHgyPSI3NzguNSIgeTE9Ijc3OS41IiB5Mj0iNzc5LjUiLz48ZWxsaXBzZSBjeD0iNjQ1LjUiIGN5PSI3OTIuNDkyMiIgZmlsbD0ibm9uZSIgcng9IjMiIHJ5PSIzIiBzdHlsZT0ic3Ryb2tlOiMwMzgwNDg7c3Ryb2tlLXdpZHRoOjE7Ii8+PHRleHQgZmlsbD0iIzAwMDAwMCIgZm9udC1mYW1pbHk9InNhbnMtc2VyaWYiIGZvbnQtc2l6ZT0iMTQiIGxlbmd0aEFkanVzdD0ic3BhY2luZyIgdGV4dExlbmd0aD0iOTgiIHg9IjY1NC41IiB5PSI3OTYuNzM0NCI+YmltVWlkOiBTdHJpbmc8L3RleHQ+PGVsbGlwc2UgY3g9IjY0NS41IiBjeT0iODA3LjQ3NjYiIGZpbGw9Im5vbmUiIHJ4PSIzIiByeT0iMyIgc3R5bGU9InN0cm9rZTojMDM4MDQ4O3N0cm9rZS13aWR0aDoxOyIvPjx0ZXh0IGZpbGw9IiMwMDAwMDAiIGZvbnQtZmFtaWx5PSJzYW5zLXNlcmlmIiBmb250LXNpemU9IjE0IiBsZW5ndGhBZGp1c3Q9InNwYWNpbmciIHRleHRMZW5ndGg9IjExOSIgeD0iNjU0LjUiIHk9IjgxMS43MTg4Ij51c2VyQWxpYXM6IFN0cmluZzwvdGV4dD48ZWxsaXBzZSBjeD0iNjQ1LjUiIGN5PSI4MjIuNDYwOSIgZmlsbD0ibm9uZSIgcng9IjMiIHJ5PSIzIiBzdHlsZT0ic3Ryb2tlOiMwMzgwNDg7c3Ryb2tlLXdpZHRoOjE7Ii8+PHRleHQgZmlsbD0iIzAwMDAwMCIgZm9udC1mYW1pbHk9InNhbnMtc2VyaWYiIGZvbnQtc2l6ZT0iMTQiIGxlbmd0aEFkanVzdD0ic3BhY2luZyIgdGV4dExlbmd0aD0iMjEiIHg9IjY1NC41IiB5PSI4MjYuNzAzMSI+Li4uPC90ZXh0PjxsaW5lIHN0eWxlPSJzdHJva2U6IzE4MTgxODtzdHJva2Utd2lkdGg6MC41OyIgeDE9IjYzNS41IiB4Mj0iNzc4LjUiIHkxPSI4MzIuNDUzMSIgeTI9IjgzMi40NTMxIi8+PC9nPjwhLS1jbGFzcyBVc2VyUXVlcnlQYXJhbXMtLT48ZyBjbGFzcz0iZW50aXR5IiBkYXRhLWVudGl0eT0iVXNlclF1ZXJ5UGFyYW1zIiBkYXRhLXNvdXJjZS1saW5lPSI2MiIgZGF0YS11aWQ9ImVudDAwMTQiIGlkPSJlbnRpdHlfVXNlclF1ZXJ5UGFyYW1zIj48cmVjdCBmaWxsPSIjRjFGMUYxIiBoZWlnaHQ9IjYyLjk4NDQiIHJ4PSIyLjUiIHJ5PSIyLjUiIHN0eWxlPSJzdHJva2U6IzE4MTgxODtzdHJva2Utd2lkdGg6MC41OyIgd2lkdGg9IjEzNyIgeD0iODE0LjUiIHk9Ijc2Mi41Ii8+PGVsbGlwc2UgY3g9IjgyOS41IiBjeT0iNzc4LjUiIGZpbGw9IiNBREQxQjIiIHJ4PSIxMSIgcnk9IjExIiBzdHlsZT0ic3Ryb2tlOiMxODE4MTg7c3Ryb2tlLXdpZHRoOjE7Ii8+PHBhdGggZD0iTTgyNy4xMjUsNzgyLjc1IEw4MjcuMTI1LDc4NC41IEw4MzIuMDYyNSw3ODQuNSBMODMyLjA2MjUsNzgyLjc1IEw4MjcuMTI1LDc4Mi43NSBaIE04MjcuODEyNSw3ODMuNDM3NSBRODI3LjgxMjUsNzgzLjQzNzUgODI3LjgxMjUsNzc0LjI1IEw4MjYuMDYyNSw3NzQuMjUgUTgyNi4wNjI1LDc3NC4yNSA4MjYuMDYyNSw3ODMuNDM3NSBMODI3LjgxMjUsNzgzLjQzNzUgWiBNODMxLjM3NSw3ODMuNDM3NSBMODMzLjEyNSw3ODMuNDM3NSBRODMzLjEyNSw3ODMuNDM3NSA4MzMuMTI1LDc4MC42MjUgTDgzMS4zNzUsNzgwLjYyNSBRODMxLjM3NSw3ODAuNjI1IDgzMS4zNzUsNzgzLjQzNzUgWiBNODMxLjM3NSw3NzQuMjUgUTgzMS4zNzUsNzc0LjI1IDgzMS4zNzUsNzc3LjA2MjUgTDgzMy4xMjUsNzc3LjA2MjUgUTgzMy4xMjUsNzc3LjA2MjUgODMzLjEyNSw3NzQuMjUgTDgzMS4zNzUsNzc0LjI1IFogTTgyNy4xMjUsNzc0LjkzNzUgTDgzMi4wNjI1LDc3NC45Mzc1IEw4MzIuMDYyNSw3NzMuMTg3NSBMODI3LjEyNSw3NzMuMTg3NSBMODI3LjEyNSw3NzQuOTM3NSBaICIgZmlsbD0iIzAwMDAwMCIvPjx0ZXh0IGZpbGw9IiMwMDAwMDAiIGZvbnQtZmFtaWx5PSJzYW5zLXNlcmlmIiBmb250LXNpemU9IjE0IiBsZW5ndGhBZGp1c3Q9InNwYWNpbmciIHRleHRMZW5ndGg9IjEwNSIgeD0iODQzLjUiIHk9Ijc4NC4yNDIyIj5Vc2VyUXVlcnlQYXJhbXM8L3RleHQ+PGxpbmUgc3R5bGU9InN0cm9rZTojMTgxODE4O3N0cm9rZS13aWR0aDowLjU7IiB4MT0iODE1LjUiIHgyPSI5NTAuNSIgeTE9Ijc5NC41IiB5Mj0iNzk0LjUiLz48ZWxsaXBzZSBjeD0iODI1LjUiIGN5PSI4MDcuNDkyMiIgZmlsbD0ibm9uZSIgcng9IjMiIHJ5PSIzIiBzdHlsZT0ic3Ryb2tlOiMwMzgwNDg7c3Ryb2tlLXdpZHRoOjE7Ii8+PHRleHQgZmlsbD0iIzAwMDAwMCIgZm9udC1mYW1pbHk9InNhbnMtc2VyaWYiIGZvbnQtc2l6ZT0iMTQiIGxlbmd0aEFkanVzdD0ic3BhY2luZyIgdGV4dExlbmd0aD0iOTgiIHg9IjgzNC41IiB5PSI4MTEuNzM0NCI+YmltVWlkOiBTdHJpbmc8L3RleHQ+PGxpbmUgc3R5bGU9InN0cm9rZTojMTgxODE4O3N0cm9rZS13aWR0aDowLjU7IiB4MT0iODE1LjUiIHgyPSI5NTAuNSIgeTE9IjgxNy40ODQ0IiB5Mj0iODE3LjQ4NDQiLz48L2c+PCEtLXJldmVyc2UgbGluayBCSUNsaWVudCB0byBCSUNsaWVudEJpei0tPjxnIGNsYXNzPSJsaW5rIiBkYXRhLWVudGl0eS0xPSJCSUNsaWVudCIgZGF0YS1lbnRpdHktMj0iQklDbGllbnRCaXoiIGRhdGEtc291cmNlLWxpbmU9IjE3IiBkYXRhLXVpZD0ibG5rNSIgaWQ9ImxpbmtfQklDbGllbnRfQklDbGllbnRCaXoiPjxwYXRoIGQ9Ik00ODQsMzMxLjMgQzQ4NCwzNTAuNDUgNDg0LDM1NC4xNyA0ODQsMzczLjg5IiBmaWxsPSJub25lIiBpZD0iQklDbGllbnQtYmFja3RvLUJJQ2xpZW50Qml6IiBzdHlsZT0ic3Ryb2tlOiMxODE4MTg7c3Ryb2tlLXdpZHRoOjE7c3Ryb2tlLWRhc2hhcnJheTo3LjAsNy4wOyIvPjxwb2x5Z29uIGZpbGw9Im5vbmUiIHBvaW50cz0iNDg0LDMxMy4zLDQ3OCwzMzEuMyw0OTAsMzMxLjMsNDg0LDMxMy4zIiBzdHlsZT0ic3Ryb2tlOiMxODE4MTg7c3Ryb2tlLXdpZHRoOjE7Ii8+PC9nPjwhLS1yZXZlcnNlIGxpbmsgVXNlclBhcmFtcyB0byBVc2VyQ3JlYXRlUGFyYW1zLS0+PGcgY2xhc3M9ImxpbmsiIGRhdGEtZW50aXR5LTE9IlVzZXJQYXJhbXMiIGRhdGEtZW50aXR5LTI9IlVzZXJDcmVhdGVQYXJhbXMiIGRhdGEtc291cmNlLWxpbmU9IjUwIiBkYXRhLXVpZD0ibG5rMTEiIGlkPSJsaW5rX1VzZXJQYXJhbXNfVXNlckNyZWF0ZVBhcmFtcyI+PHBhdGggZD0iTTY0NS41NjYyLDY3My40MDE5IEM2MjIuMTE2Miw2OTcuMDUxOSA2MDUuMDgsNzE0LjI0IDU3OS44Niw3MzkuNjgiIGZpbGw9Im5vbmUiIGlkPSJVc2VyUGFyYW1zLWJhY2t0by1Vc2VyQ3JlYXRlUGFyYW1zIiBzdHlsZT0ic3Ryb2tlOiMxODE4MTg7c3Ryb2tlLXdpZHRoOjE7Ii8+PHBvbHlnb24gZmlsbD0ibm9uZSIgcG9pbnRzPSI2NTguMjQsNjYwLjYyLDY0MS4zMDU2LDY2OS4xNzczLDY0OS44MjY5LDY3Ny42MjY0LDY1OC4yNCw2NjAuNjIiIHN0eWxlPSJzdHJva2U6IzE4MTgxODtzdHJva2Utd2lkdGg6MTsiLz48L2c+PCEtLXJldmVyc2UgbGluayBVc2VyUGFyYW1zIHRvIFVzZXJVcGRhdGVQYXJhbXMtLT48ZyBjbGFzcz0ibGluayIgZGF0YS1lbnRpdHktMT0iVXNlclBhcmFtcyIgZGF0YS1lbnRpdHktMj0iVXNlclVwZGF0ZVBhcmFtcyIgZGF0YS1zb3VyY2UtbGluZT0iNTciIGRhdGEtdWlkPSJsbmsxMyIgaWQ9ImxpbmtfVXNlclBhcmFtc19Vc2VyVXBkYXRlUGFyYW1zIj48cGF0aCBkPSJNNzAxLjcyODMsNjc4LjYwMDkgQzcwMi45MjgzLDcwNC42NTA5IDcwMy42NSw3MjAuNCA3MDQuODksNzQ3LjI5IiBmaWxsPSJub25lIiBpZD0iVXNlclBhcmFtcy1iYWNrdG8tVXNlclVwZGF0ZVBhcmFtcyIgc3R5bGU9InN0cm9rZTojMTgxODE4O3N0cm9rZS13aWR0aDoxOyIvPjxwb2x5Z29uIGZpbGw9Im5vbmUiIHBvaW50cz0iNzAwLjksNjYwLjYyLDY5NS43MzQ3LDY3OC44NzcsNzA3LjcyMTksNjc4LjMyNDgsNzAwLjksNjYwLjYyIiBzdHlsZT0ic3Ryb2tlOiMxODE4MTg7c3Ryb2tlLXdpZHRoOjE7Ii8+PC9nPjwhLS1yZXZlcnNlIGxpbmsgVXNlclBhcmFtcyB0byBVc2VyUXVlcnlQYXJhbXMtLT48ZyBjbGFzcz0ibGluayIgZGF0YS1lbnRpdHktMT0iVXNlclBhcmFtcyIgZGF0YS1lbnRpdHktMj0iVXNlclF1ZXJ5UGFyYW1zIiBkYXRhLXNvdXJjZS1saW5lPSI2MyIgZGF0YS11aWQ9ImxuazE1IiBpZD0ibGlua19Vc2VyUGFyYW1zX1VzZXJRdWVyeVBhcmFtcyI+PHBhdGggZD0iTTc1NS43MDU4LDY3Mi45NjkxIEM3ODguODU1OCw3MDQuMjI5MSA4MjAuNjQsNzM0LjIgODUwLjY1LDc2Mi40OSIgZmlsbD0ibm9uZSIgaWQ9IlVzZXJQYXJhbXMtYmFja3RvLVVzZXJRdWVyeVBhcmFtcyIgc3R5bGU9InN0cm9rZTojMTgxODE4O3N0cm9rZS13aWR0aDoxOyIvPjxwb2x5Z29uIGZpbGw9Im5vbmUiIHBvaW50cz0iNzQyLjYxLDY2MC42Miw3NTEuNTg5NCw2NzcuMzM0NCw3NTkuODIyMSw2NjguNjAzOSw3NDIuNjEsNjYwLjYyIiBzdHlsZT0ic3Ryb2tlOiMxODE4MTg7c3Ryb2tlLXdpZHRoOjE7Ii8+PC9nPjwhLS1saW5rIEJJRmFjYWRlIHRvIEJJQ2xpZW50LS0+PGcgY2xhc3M9ImxpbmsiIGRhdGEtZW50aXR5LTE9IkJJRmFjYWRlIiBkYXRhLWVudGl0eS0yPSJCSUNsaWVudCIgZGF0YS1zb3VyY2UtbGluZT0iNjYiIGRhdGEtdWlkPSJsbmsxNiIgaWQ9ImxpbmtfQklGYWNhZGVfQklDbGllbnQiPjxwYXRoIGNvZGVMaW5lPSI2NiIgZD0iTTQ4NCwxMzAuMTggQzQ4NCwxNTQuMTggNDg0LDE3NS41MiA0ODQsMTk4Ljc0IiBmaWxsPSJub25lIiBpZD0iQklGYWNhZGUtdG8tQklDbGllbnQiIHN0eWxlPSJzdHJva2U6IzE4MTgxODtzdHJva2Utd2lkdGg6MTsiLz48cG9seWdvbiBmaWxsPSIjMTgxODE4IiBwb2ludHM9IjQ4NCwyMDQuNzQsNDg4LDE5NS43NCw0ODQsMTk5Ljc0LDQ4MCwxOTUuNzQsNDg0LDIwNC43NCIgc3R5bGU9InN0cm9rZTojMTgxODE4O3N0cm9rZS13aWR0aDoxOyIvPjx0ZXh0IGZpbGw9IiMwMDAwMDAiIGZvbnQtZmFtaWx5PSJzYW5zLXNlcmlmIiBmb250LXNpemU9IjEzIiBsZW5ndGhBZGp1c3Q9InNwYWNpbmciIHRleHRMZW5ndGg9IjUyIiB4PSI0ODUiIHk9IjE3My4yODkxIj4mIzIwMzgxOyYjMzYxODI7JiMyNTUwOTsmIzIxNDc1OzwvdGV4dD48L2c+PCEtLWxpbmsgQklDbGllbnRCaXogdG8gQ29tcGVuc2F0aW9uTWFuYWdlci0tPjxnIGNsYXNzPSJsaW5rIiBkYXRhLWVudGl0eS0xPSJCSUNsaWVudEJpeiIgZGF0YS1lbnRpdHktMj0iQ29tcGVuc2F0aW9uTWFuYWdlciIgZGF0YS1zb3VyY2UtbGluZT0iNjciIGRhdGEtdWlkPSJsbmsxNyIgaWQ9ImxpbmtfQklDbGllbnRCaXpfQ29tcGVuc2F0aW9uTWFuYWdlciI+PHBhdGggY29kZUxpbmU9IjY3IiBkPSJNNDE3Ljc5LDQ5Ny4wMiBDMzkxLjA0LDUyMS40OCAzNjUuMTA4Myw1NDUuMTgxNiAzNDAuMjc4Myw1NjcuODgxNiIgZmlsbD0ibm9uZSIgaWQ9IkJJQ2xpZW50Qml6LXRvLUNvbXBlbnNhdGlvbk1hbmFnZXIiIHN0eWxlPSJzdHJva2U6IzE4MTgxODtzdHJva2Utd2lkdGg6MTsiLz48cG9seWdvbiBmaWxsPSIjMTgxODE4IiBwb2ludHM9IjMzNS44NSw1NzEuOTMsMzQ1LjE5MTUsNTY4LjgwOTUsMzM5LjU0MDMsNTY4LjU1NjMsMzM5Ljc5MzUsNTYyLjkwNTEsMzM1Ljg1LDU3MS45MyIgc3R5bGU9InN0cm9rZTojMTgxODE4O3N0cm9rZS13aWR0aDoxOyIvPjx0ZXh0IGZpbGw9IiMwMDAwMDAiIGZvbnQtZmFtaWx5PSJzYW5zLXNlcmlmIiBmb250LXNpemU9IjEzIiBsZW5ndGhBZGp1c3Q9InNwYWNpbmciIHRleHRMZW5ndGg9IjI2IiB4PSIzODYiIHk9IjU0MC4yODkxIj4mIzIwMzgxOyYjMzYxODI7PC90ZXh0PjwvZz48IS0tbGluayBDb21wZW5zYXRpb25NYW5hZ2VyIHRvIE9wZXJhdGlvbkxvZ2dlci0tPjxnIGNsYXNzPSJsaW5rIiBkYXRhLWVudGl0eS0xPSJDb21wZW5zYXRpb25NYW5hZ2VyIiBkYXRhLWVudGl0eS0yPSJPcGVyYXRpb25Mb2dnZXIiIGRhdGEtc291cmNlLWxpbmU9IjY4IiBkYXRhLXVpZD0ibG5rMTgiIGlkPSJsaW5rX0NvbXBlbnNhdGlvbk1hbmFnZXJfT3BlcmF0aW9uTG9nZ2VyIj48cGF0aCBjb2RlTGluZT0iNjgiIGQ9Ik0yNzUuNDksNjY1LjA5IEMyNjkuMDYsNjkzIDI2Mi4yNTYzLDcyMi40NjMgMjU2LjE2NjMsNzQ4LjkxMyIgZmlsbD0ibm9uZSIgaWQ9IkNvbXBlbnNhdGlvbk1hbmFnZXItdG8tT3BlcmF0aW9uTG9nZ2VyIiBzdHlsZT0ic3Ryb2tlOiMxODE4MTg7c3Ryb2tlLXdpZHRoOjE7Ii8+PHBvbHlnb24gZmlsbD0iIzE4MTgxOCIgcG9pbnRzPSIyNTQuODIsNzU0Ljc2LDI2MC43Mzc0LDc0Ni44ODcsMjU1Ljk0MTksNzQ5Ljg4NzUsMjUyLjk0MTQsNzQ1LjA5MiwyNTQuODIsNzU0Ljc2IiBzdHlsZT0ic3Ryb2tlOiMxODE4MTg7c3Ryb2tlLXdpZHRoOjE7Ii8+PHRleHQgZmlsbD0iIzAwMDAwMCIgZm9udC1mYW1pbHk9InNhbnMtc2VyaWYiIGZvbnQtc2l6ZT0iMTMiIGxlbmd0aEFkanVzdD0ic3BhY2luZyIgdGV4dExlbmd0aD0iMjYiIHg9IjI3MCIgeT0iNzA4LjI4OTEiPiYjMjAzODE7JiMzNjE4Mjs8L3RleHQ+PC9nPjwhLS1saW5rIE9wZXJhdGlvbkxvZ2dlciB0byBPcGVyYXRpb25JbmZvLS0+PGcgY2xhc3M9ImxpbmsiIGRhdGEtZW50aXR5LTE9Ik9wZXJhdGlvbkxvZ2dlciIgZGF0YS1lbnRpdHktMj0iT3BlcmF0aW9uSW5mbyIgZGF0YS1zb3VyY2UtbGluZT0iNjkiIGRhdGEtdWlkPSJsbmsxOSIgaWQ9ImxpbmtfT3BlcmF0aW9uTG9nZ2VyX09wZXJhdGlvbkluZm8iPjxwYXRoIGNvZGVMaW5lPSI2OSIgZD0iTTI0Niw4MzMuMTUgQzI0Niw4NTUuMDQgMjQ2LDg3Ny4xNyAyNDYsOTAyLjc1IiBmaWxsPSJub25lIiBpZD0iT3BlcmF0aW9uTG9nZ2VyLXRvLU9wZXJhdGlvbkluZm8iIHN0eWxlPSJzdHJva2U6IzE4MTgxODtzdHJva2Utd2lkdGg6MTsiLz48cG9seWdvbiBmaWxsPSIjMTgxODE4IiBwb2ludHM9IjI0Niw5MDguNzUsMjUwLDg5OS43NSwyNDYsOTAzLjc1LDI0Miw4OTkuNzUsMjQ2LDkwOC43NSIgc3R5bGU9InN0cm9rZTojMTgxODE4O3N0cm9rZS13aWR0aDoxOyIvPjwvZz48IS0tbGluayBCSUNsaWVudEJpeiB0byBVc2VyUGFyYW1zLS0+PGcgY2xhc3M9ImxpbmsiIGRhdGEtZW50aXR5LTE9IkJJQ2xpZW50Qml6IiBkYXRhLWVudGl0eS0yPSJVc2VyUGFyYW1zIiBkYXRhLXNvdXJjZS1saW5lPSI3MCIgZGF0YS11aWQ9ImxuazIwIiBpZD0ibGlua19CSUNsaWVudEJpel9Vc2VyUGFyYW1zIj48cGF0aCBjb2RlTGluZT0iNzAiIGQ9Ik01NTUuODksNDk3LjAyIEM1ODYuOSw1MjMuMTMgNjE3Ljc2OTgsNTQ5LjExNjEgNjQ1LjYzOTgsNTcyLjU3NjEiIGZpbGw9Im5vbmUiIGlkPSJCSUNsaWVudEJpei10by1Vc2VyUGFyYW1zIiBzdHlsZT0ic3Ryb2tlOiMxODE4MTg7c3Ryb2tlLXdpZHRoOjE7Ii8+PHBvbHlnb24gZmlsbD0iIzE4MTgxOCIgcG9pbnRzPSI2NTAuMjMsNTc2LjQ0LDY0NS45MjA2LDU2Ny41ODQsNjQ2LjQwNDgsNTczLjIyMDEsNjQwLjc2ODcsNTczLjcwNDMsNjUwLjIzLDU3Ni40NCIgc3R5bGU9InN0cm9rZTojMTgxODE4O3N0cm9rZS13aWR0aDoxOyIvPjwvZz48IS0tU1JDPVtwTEoxWmpDbTRCdGRBdG5DblJSU2V3ZklNblFmcVc5QlFKdldyZnI2cllQc3kzV0kycUJZMi0zNlpIRTJGLTNBbndtMHhNVWl4VDNLUmk5Z0VJMW5JbG5jdGZqdnpqWXkxMkFzTTNxNjNiamFSbkI2bmhtS0E0cmNxUU5faXpXM2hYNEN2ZUd3aEs1M0hIYnBZd003cHBxb29qV1FnTFFJcTM2UVVabDRvM3F5bzdaUGVCeGc0UHV4VDMyVkFqMWM4TjlUZmVyRFYwZUxQa281cUs4TTl1bWhrSEU1WlVzWGFGbXNJT0dxZzdWMGlSRmZwT1Q2RFRnRW9Gb0RxdVhvQndpSHVuenZ2UnlGa1ZNdjRBLVBnRWVJQXhrV3NGd3ViVjlkeF96UWhBZkg0WFlYdjFFR0tBM0VzQjhGX2dfUnItdDBHQy1qd3I4THRqSXA2aE1GZGRkMGJRZ3J1YVdxUnVtQXdVZDgxVXJja3BvaHJLMFBYU3JMWk83VW5ZdkZNM1pNVHhIdnI0S3hieFI1cjAxVG5aa19pU1llc242UkotYzVnN0FuM0lSWEo5MlBUZmVoa0xFcFdMZUVSb2tqRWhBdHMzVjJxa053VEJ1dlZQWVZGeDhWTnh6bHBLLWowVEZHTmV1dkkyQ3JmR2FnTkJfeFVjWmRHNlZKQUxvR3FTM0RSRE9zUGZzanMtRUVNeEp1SGJzWXhCMThCZm15WGd5Q29jcktucWloTlNJUXhmQnJhVjNRRU1tb2NTSjVtZmR6T3g3dVhGUlF5cjgwdElhVVpGVHpqSXNfVXpsN3V6ZFhpY1Zpbl9URkR6eS1fZGhfdlVVN3BxZHVEaFl5ZVBrb2ZvSDNHS1N3ZGprRVMxbzhhbHRXekhldS1CZTVdLS0+PC9nPjwvc3ZnPg==;" parent="1" vertex="1">
            <mxGeometry x="-350" y="-438" width="958" height="1053" as="geometry" />
          </mxCell>
        </UserObject>
        <UserObject label="" plantUmlData="{&quot;data&quot;:&quot;@startuml\nactor 管理员 as admin\nparticipant \&quot;用户初始化控制器\&quot; as init\nparticipant \&quot;批次数据获取器\&quot; as fetcher\nparticipant \&quot;批次任务执行器\&quot; as executor\nparticipant \&quot;BI系统客户端\&quot; as bi\nparticipant \&quot;同步结果聚合器\&quot; as agg\n\nadmin -&gt; init: 启动初始化()\nloop 直到数据拉取完成\n  init -&gt; fetcher: 获取下一批次数据()\n  fetcher --&gt; init: 返回用户数据列表（500条）\n  init -&gt; executor: 提交批次任务(用户数据列表)\n  executor -&gt; executor: 分配线程处理批次\n  loop 逐用户处理（串行）\n    executor -&gt; bi: 查询用户是否存在(userId)\n    alt 用户不存在\n      executor -&gt; bi: 创建用户(用户参数)\n    end\n    executor --&gt; executor: 生成用户同步结果\n  end\n  executor --&gt; init: 返回批次处理结果\n  init -&gt; agg: 记录批次结果(结果列表)\nend\ninit -&gt; agg: 生成汇总结果()\nagg --&gt; init: 初始化汇总结果\ninit --&gt; admin: 返回初始化结果\n@enduml&quot;,&quot;format&quot;:&quot;svg&quot;}" id="6V0FVtyoknVEyGGJxhrU-9">
          <mxCell style="shape=image;noLabel=1;verticalAlign=top;aspect=fixed;imageAspect=0;image=data:image/svg+xml,PHN2ZyB4bWxucz0iaHR0cDovL3d3dy53My5vcmcvMjAwMC9zdmciIHhtbG5zOnhsaW5rPSJodHRwOi8vd3d3LnczLm9yZy8xOTk5L3hsaW5rIiBjb250ZW50U3R5bGVUeXBlPSJ0ZXh0L2NzcyIgZGF0YS1kaWFncmFtLXR5cGU9IlNFUVVFTkNFIiBoZWlnaHQ9IjY1OHB4IiBwcmVzZXJ2ZUFzcGVjdFJhdGlvPSJub25lIiBzdHlsZT0id2lkdGg6ODE5cHg7aGVpZ2h0OjY1OHB4O2JhY2tncm91bmQ6I0ZGRkZGRjsiIHZlcnNpb249IjEuMSIgdmlld0JveD0iMCAwIDgxOSA2NTgiIHdpZHRoPSI4MTlweCIgem9vbUFuZFBhbj0ibWFnbmlmeSI+PGRlZnMvPjxnPjxyZWN0IGZpbGw9Im5vbmUiIGhlaWdodD0iMzUyLjk2ODgiIHN0eWxlPSJzdHJva2U6IzAwMDAwMDtzdHJva2Utd2lkdGg6MS41OyIgd2lkdGg9Ijc0Mi41IiB4PSI3MSIgeT0iMTI0Ljg5ODQiLz48cmVjdCBmaWxsPSJub25lIiBoZWlnaHQ9IjE0Mi41NzAzIiBzdHlsZT0ic3Ryb2tlOiMwMDAwMDA7c3Ryb2tlLXdpZHRoOjEuNTsiIHdpZHRoPSIzMjUiIHg9IjM3Ni41IiB5PSIyNzIuNDY4OCIvPjxyZWN0IGZpbGw9Im5vbmUiIGhlaWdodD0iNDMuODI4MSIgc3R5bGU9InN0cm9rZTojMDAwMDAwO3N0cm9rZS13aWR0aDoxLjU7IiB3aWR0aD0iMzA1IiB4PSIzODYuNSIgeT0iMzIzLjI5NjkiLz48Zz48dGl0bGU+JiMzMTY0OTsmIzI5NzAyOyYjMjE1OTI7PC90aXRsZT48cmVjdCBmaWxsPSIjMDAwMDAwIiBmaWxsLW9wYWNpdHk9IjAuMDAwMDAiIGhlaWdodD0iNDk4LjYyNSIgd2lkdGg9IjgiIHg9IjI1IiB5PSI3OS45ODQ0Ii8+PGxpbmUgc3R5bGU9InN0cm9rZTojMTgxODE4O3N0cm9rZS13aWR0aDowLjU7c3Ryb2tlLWRhc2hhcnJheTo1LjAsNS4wOyIgeDE9IjI5IiB4Mj0iMjkiIHkxPSI3OS45ODQ0IiB5Mj0iNTc4LjYwOTQiLz48L2c+PGc+PHRpdGxlPiYjMjk5OTI7JiMyNTE0MzsmIzIxMDIxOyYjMjI5ODc7JiMyMTI3MDsmIzI1NTExOyYjMjEwNDY7JiMyMjEyMDs8L3RpdGxlPjxyZWN0IGZpbGw9IiMwMDAwMDAiIGZpbGwtb3BhY2l0eT0iMC4wMDAwMCIgaGVpZ2h0PSI0OTguNjI1IiB3aWR0aD0iOCIgeD0iMTQwIiB5PSI3OS45ODQ0Ii8+PGxpbmUgc3R5bGU9InN0cm9rZTojMTgxODE4O3N0cm9rZS13aWR0aDowLjU7c3Ryb2tlLWRhc2hhcnJheTo1LjAsNS4wOyIgeDE9IjE0NCIgeDI9IjE0NCIgeTE9Ijc5Ljk4NDQiIHkyPSI1NzguNjA5NCIvPjwvZz48Zz48dGl0bGU+JiMyNTIwOTsmIzI3NDI1OyYjMjU5Njg7JiMyNTQ1NDsmIzMzNzE5OyYjMjE0NjI7JiMyMjEyMDs8L3RpdGxlPjxyZWN0IGZpbGw9IiMwMDAwMDAiIGZpbGwtb3BhY2l0eT0iMC4wMDAwMCIgaGVpZ2h0PSI0OTguNjI1IiB3aWR0aD0iOCIgeD0iMzI2LjUiIHk9Ijc5Ljk4NDQiLz48bGluZSBzdHlsZT0ic3Ryb2tlOiMxODE4MTg7c3Ryb2tlLXdpZHRoOjAuNTtzdHJva2UtZGFzaGFycmF5OjUuMCw1LjA7IiB4MT0iMzMwLjUiIHgyPSIzMzAuNSIgeTE9Ijc5Ljk4NDQiIHkyPSI1NzguNjA5NCIvPjwvZz48Zz48dGl0bGU+JiMyNTIwOTsmIzI3NDI1OyYjMjAyMTk7JiMyMTE1MzsmIzI1MTkxOyYjMzQ4OTI7JiMyMjEyMDs8L3RpdGxlPjxyZWN0IGZpbGw9IiMwMDAwMDAiIGZpbGwtb3BhY2l0eT0iMC4wMDAwMCIgaGVpZ2h0PSI0OTguNjI1IiB3aWR0aD0iOCIgeD0iNDQ4LjUiIHk9Ijc5Ljk4NDQiLz48bGluZSBzdHlsZT0ic3Ryb2tlOiMxODE4MTg7c3Ryb2tlLXdpZHRoOjAuNTtzdHJva2UtZGFzaGFycmF5OjUuMCw1LjA7IiB4MT0iNDUyLjUiIHgyPSI0NTIuNSIgeTE9Ijc5Ljk4NDQiIHkyPSI1NzguNjA5NCIvPjwvZz48Zz48dGl0bGU+QkkmIzMxOTk1OyYjMzI0Nzk7JiMyMzQ1ODsmIzI1MTQzOyYjMzE0NzE7PC90aXRsZT48cmVjdCBmaWxsPSIjMDAwMDAwIiBmaWxsLW9wYWNpdHk9IjAuMDAwMDAiIGhlaWdodD0iNDk4LjYyNSIgd2lkdGg9IjgiIHg9IjYyOC41IiB5PSI3OS45ODQ0Ii8+PGxpbmUgc3R5bGU9InN0cm9rZTojMTgxODE4O3N0cm9rZS13aWR0aDowLjU7c3Ryb2tlLWRhc2hhcnJheTo1LjAsNS4wOyIgeDE9IjYzMi41IiB4Mj0iNjMyLjUiIHkxPSI3OS45ODQ0IiB5Mj0iNTc4LjYwOTQiLz48L2c+PGc+PHRpdGxlPiYjMjE1MTY7JiMyNzQ5MzsmIzMyNDY3OyYjMjY1MjQ7JiMzMjg1ODsmIzIxNTEyOyYjMjIxMjA7PC90aXRsZT48cmVjdCBmaWxsPSIjMDAwMDAwIiBmaWxsLW9wYWNpdHk9IjAuMDAwMDAiIGhlaWdodD0iNDk4LjYyNSIgd2lkdGg9IjgiIHg9Ijc0My41IiB5PSI3OS45ODQ0Ii8+PGxpbmUgc3R5bGU9InN0cm9rZTojMTgxODE4O3N0cm9rZS13aWR0aDowLjU7c3Ryb2tlLWRhc2hhcnJheTo1LjAsNS4wOyIgeDE9Ijc0Ny41IiB4Mj0iNzQ3LjUiIHkxPSI3OS45ODQ0IiB5Mj0iNTc4LjYwOTQiLz48L2c+PGcgY2xhc3M9InBhcnRpY2lwYW50IHBhcnRpY2lwYW50LWhlYWQiIGRhdGEtcGFydGljaXBhbnQ9ImFkbWluIj48dGV4dCBmaWxsPSIjMDAwMDAwIiBmb250LWZhbWlseT0ic2Fucy1zZXJpZiIgZm9udC1zaXplPSIxNCIgbGVuZ3RoQWRqdXN0PSJzcGFjaW5nIiB0ZXh0TGVuZ3RoPSI0MiIgeD0iNSIgeT0iNzguMjM0NCI+JiMzMTY0OTsmIzI5NzAyOyYjMjE1OTI7PC90ZXh0PjxlbGxpcHNlIGN4PSIyOSIgY3k9IjEzLjUiIGZpbGw9IiNFMkUyRjAiIHJ4PSI4IiByeT0iOCIgc3R5bGU9InN0cm9rZTojMTgxODE4O3N0cm9rZS13aWR0aDowLjU7Ii8+PHBhdGggZD0iTTI5LDIxLjUgTDI5LDQ4LjUgTTE2LDI5LjUgTDQyLDI5LjUgTTI5LDQ4LjUgTDE2LDYzLjUgTTI5LDQ4LjUgTDQyLDYzLjUiIGZpbGw9Im5vbmUiIHN0eWxlPSJzdHJva2U6IzE4MTgxODtzdHJva2Utd2lkdGg6MC41OyIvPjwvZz48ZyBjbGFzcz0icGFydGljaXBhbnQgcGFydGljaXBhbnQtdGFpbCIgZGF0YS1wYXJ0aWNpcGFudD0iYWRtaW4iPjx0ZXh0IGZpbGw9IiMwMDAwMDAiIGZvbnQtZmFtaWx5PSJzYW5zLXNlcmlmIiBmb250LXNpemU9IjE0IiBsZW5ndGhBZGp1c3Q9InNwYWNpbmciIHRleHRMZW5ndGg9IjQyIiB4PSI1IiB5PSI1OTAuODQzOCI+JiMzMTY0OTsmIzI5NzAyOyYjMjE1OTI7PC90ZXh0PjxlbGxpcHNlIGN4PSIyOSIgY3k9IjYwMS4wOTM4IiBmaWxsPSIjRTJFMkYwIiByeD0iOCIgcnk9IjgiIHN0eWxlPSJzdHJva2U6IzE4MTgxODtzdHJva2Utd2lkdGg6MC41OyIvPjxwYXRoIGQ9Ik0yOSw2MDkuMDkzOCBMMjksNjM2LjA5MzggTTE2LDYxNy4wOTM4IEw0Miw2MTcuMDkzOCBNMjksNjM2LjA5MzggTDE2LDY1MS4wOTM4IE0yOSw2MzYuMDkzOCBMNDIsNjUxLjA5MzgiIGZpbGw9Im5vbmUiIHN0eWxlPSJzdHJva2U6IzE4MTgxODtzdHJva2Utd2lkdGg6MC41OyIvPjwvZz48ZyBjbGFzcz0icGFydGljaXBhbnQgcGFydGljaXBhbnQtaGVhZCIgZGF0YS1wYXJ0aWNpcGFudD0iaW5pdCI+PHJlY3QgZmlsbD0iI0UyRTJGMCIgaGVpZ2h0PSIyOC45ODQ0IiByeD0iMi41IiByeT0iMi41IiBzdHlsZT0ic3Ryb2tlOiMxODE4MTg7c3Ryb2tlLXdpZHRoOjAuNTsiIHdpZHRoPSIxMjYiIHg9IjgxIiB5PSI1MCIvPjx0ZXh0IGZpbGw9IiMwMDAwMDAiIGZvbnQtZmFtaWx5PSJzYW5zLXNlcmlmIiBmb250LXNpemU9IjE0IiBsZW5ndGhBZGp1c3Q9InNwYWNpbmciIHRleHRMZW5ndGg9IjExMiIgeD0iODgiIHk9IjcwLjIzNDQiPiYjMjk5OTI7JiMyNTE0MzsmIzIxMDIxOyYjMjI5ODc7JiMyMTI3MDsmIzI1NTExOyYjMjEwNDY7JiMyMjEyMDs8L3RleHQ+PC9nPjxnIGNsYXNzPSJwYXJ0aWNpcGFudCBwYXJ0aWNpcGFudC10YWlsIiBkYXRhLXBhcnRpY2lwYW50PSJpbml0Ij48cmVjdCBmaWxsPSIjRTJFMkYwIiBoZWlnaHQ9IjI4Ljk4NDQiIHJ4PSIyLjUiIHJ5PSIyLjUiIHN0eWxlPSJzdHJva2U6IzE4MTgxODtzdHJva2Utd2lkdGg6MC41OyIgd2lkdGg9IjEyNiIgeD0iODEiIHk9IjU3Ny42MDk0Ii8+PHRleHQgZmlsbD0iIzAwMDAwMCIgZm9udC1mYW1pbHk9InNhbnMtc2VyaWYiIGZvbnQtc2l6ZT0iMTQiIGxlbmd0aEFkanVzdD0ic3BhY2luZyIgdGV4dExlbmd0aD0iMTEyIiB4PSI4OCIgeT0iNTk3Ljg0MzgiPiYjMjk5OTI7JiMyNTE0MzsmIzIxMDIxOyYjMjI5ODc7JiMyMTI3MDsmIzI1NTExOyYjMjEwNDY7JiMyMjEyMDs8L3RleHQ+PC9nPjxnIGNsYXNzPSJwYXJ0aWNpcGFudCBwYXJ0aWNpcGFudC1oZWFkIiBkYXRhLXBhcnRpY2lwYW50PSJmZXRjaGVyIj48cmVjdCBmaWxsPSIjRTJFMkYwIiBoZWlnaHQ9IjI4Ljk4NDQiIHJ4PSIyLjUiIHJ5PSIyLjUiIHN0eWxlPSJzdHJva2U6IzE4MTgxODtzdHJva2Utd2lkdGg6MC41OyIgd2lkdGg9IjExMiIgeD0iMjc0LjUiIHk9IjUwIi8+PHRleHQgZmlsbD0iIzAwMDAwMCIgZm9udC1mYW1pbHk9InNhbnMtc2VyaWYiIGZvbnQtc2l6ZT0iMTQiIGxlbmd0aEFkanVzdD0ic3BhY2luZyIgdGV4dExlbmd0aD0iOTgiIHg9IjI4MS41IiB5PSI3MC4yMzQ0Ij4mIzI1MjA5OyYjMjc0MjU7JiMyNTk2ODsmIzI1NDU0OyYjMzM3MTk7JiMyMTQ2MjsmIzIyMTIwOzwvdGV4dD48L2c+PGcgY2xhc3M9InBhcnRpY2lwYW50IHBhcnRpY2lwYW50LXRhaWwiIGRhdGEtcGFydGljaXBhbnQ9ImZldGNoZXIiPjxyZWN0IGZpbGw9IiNFMkUyRjAiIGhlaWdodD0iMjguOTg0NCIgcng9IjIuNSIgcnk9IjIuNSIgc3R5bGU9InN0cm9rZTojMTgxODE4O3N0cm9rZS13aWR0aDowLjU7IiB3aWR0aD0iMTEyIiB4PSIyNzQuNSIgeT0iNTc3LjYwOTQiLz48dGV4dCBmaWxsPSIjMDAwMDAwIiBmb250LWZhbWlseT0ic2Fucy1zZXJpZiIgZm9udC1zaXplPSIxNCIgbGVuZ3RoQWRqdXN0PSJzcGFjaW5nIiB0ZXh0TGVuZ3RoPSI5OCIgeD0iMjgxLjUiIHk9IjU5Ny44NDM4Ij4mIzI1MjA5OyYjMjc0MjU7JiMyNTk2ODsmIzI1NDU0OyYjMzM3MTk7JiMyMTQ2MjsmIzIyMTIwOzwvdGV4dD48L2c+PGcgY2xhc3M9InBhcnRpY2lwYW50IHBhcnRpY2lwYW50LWhlYWQiIGRhdGEtcGFydGljaXBhbnQ9ImV4ZWN1dG9yIj48cmVjdCBmaWxsPSIjRTJFMkYwIiBoZWlnaHQ9IjI4Ljk4NDQiIHJ4PSIyLjUiIHJ5PSIyLjUiIHN0eWxlPSJzdHJva2U6IzE4MTgxODtzdHJva2Utd2lkdGg6MC41OyIgd2lkdGg9IjExMiIgeD0iMzk2LjUiIHk9IjUwIi8+PHRleHQgZmlsbD0iIzAwMDAwMCIgZm9udC1mYW1pbHk9InNhbnMtc2VyaWYiIGZvbnQtc2l6ZT0iMTQiIGxlbmd0aEFkanVzdD0ic3BhY2luZyIgdGV4dExlbmd0aD0iOTgiIHg9IjQwMy41IiB5PSI3MC4yMzQ0Ij4mIzI1MjA5OyYjMjc0MjU7JiMyMDIxOTsmIzIxMTUzOyYjMjUxOTE7JiMzNDg5MjsmIzIyMTIwOzwvdGV4dD48L2c+PGcgY2xhc3M9InBhcnRpY2lwYW50IHBhcnRpY2lwYW50LXRhaWwiIGRhdGEtcGFydGljaXBhbnQ9ImV4ZWN1dG9yIj48cmVjdCBmaWxsPSIjRTJFMkYwIiBoZWlnaHQ9IjI4Ljk4NDQiIHJ4PSIyLjUiIHJ5PSIyLjUiIHN0eWxlPSJzdHJva2U6IzE4MTgxODtzdHJva2Utd2lkdGg6MC41OyIgd2lkdGg9IjExMiIgeD0iMzk2LjUiIHk9IjU3Ny42MDk0Ii8+PHRleHQgZmlsbD0iIzAwMDAwMCIgZm9udC1mYW1pbHk9InNhbnMtc2VyaWYiIGZvbnQtc2l6ZT0iMTQiIGxlbmd0aEFkanVzdD0ic3BhY2luZyIgdGV4dExlbmd0aD0iOTgiIHg9IjQwMy41IiB5PSI1OTcuODQzOCI+JiMyNTIwOTsmIzI3NDI1OyYjMjAyMTk7JiMyMTE1MzsmIzI1MTkxOyYjMzQ4OTI7JiMyMjEyMDs8L3RleHQ+PC9nPjxnIGNsYXNzPSJwYXJ0aWNpcGFudCBwYXJ0aWNpcGFudC1oZWFkIiBkYXRhLXBhcnRpY2lwYW50PSJiaSI+PHJlY3QgZmlsbD0iI0UyRTJGMCIgaGVpZ2h0PSIyOC45ODQ0IiByeD0iMi41IiByeT0iMi41IiBzdHlsZT0ic3Ryb2tlOiMxODE4MTg7c3Ryb2tlLXdpZHRoOjAuNTsiIHdpZHRoPSI5OCIgeD0iNTgzLjUiIHk9IjUwIi8+PHRleHQgZmlsbD0iIzAwMDAwMCIgZm9udC1mYW1pbHk9InNhbnMtc2VyaWYiIGZvbnQtc2l6ZT0iMTQiIGxlbmd0aEFkanVzdD0ic3BhY2luZyIgdGV4dExlbmd0aD0iODQiIHg9IjU5MC41IiB5PSI3MC4yMzQ0Ij5CSSYjMzE5OTU7JiMzMjQ3OTsmIzIzNDU4OyYjMjUxNDM7JiMzMTQ3MTs8L3RleHQ+PC9nPjxnIGNsYXNzPSJwYXJ0aWNpcGFudCBwYXJ0aWNpcGFudC10YWlsIiBkYXRhLXBhcnRpY2lwYW50PSJiaSI+PHJlY3QgZmlsbD0iI0UyRTJGMCIgaGVpZ2h0PSIyOC45ODQ0IiByeD0iMi41IiByeT0iMi41IiBzdHlsZT0ic3Ryb2tlOiMxODE4MTg7c3Ryb2tlLXdpZHRoOjAuNTsiIHdpZHRoPSI5OCIgeD0iNTgzLjUiIHk9IjU3Ny42MDk0Ii8+PHRleHQgZmlsbD0iIzAwMDAwMCIgZm9udC1mYW1pbHk9InNhbnMtc2VyaWYiIGZvbnQtc2l6ZT0iMTQiIGxlbmd0aEFkanVzdD0ic3BhY2luZyIgdGV4dExlbmd0aD0iODQiIHg9IjU5MC41IiB5PSI1OTcuODQzOCI+QkkmIzMxOTk1OyYjMzI0Nzk7JiMyMzQ1ODsmIzI1MTQzOyYjMzE0NzE7PC90ZXh0PjwvZz48ZyBjbGFzcz0icGFydGljaXBhbnQgcGFydGljaXBhbnQtaGVhZCIgZGF0YS1wYXJ0aWNpcGFudD0iYWdnIj48cmVjdCBmaWxsPSIjRTJFMkYwIiBoZWlnaHQ9IjI4Ljk4NDQiIHJ4PSIyLjUiIHJ5PSIyLjUiIHN0eWxlPSJzdHJva2U6IzE4MTgxODtzdHJva2Utd2lkdGg6MC41OyIgd2lkdGg9IjExMiIgeD0iNjkxLjUiIHk9IjUwIi8+PHRleHQgZmlsbD0iIzAwMDAwMCIgZm9udC1mYW1pbHk9InNhbnMtc2VyaWYiIGZvbnQtc2l6ZT0iMTQiIGxlbmd0aEFkanVzdD0ic3BhY2luZyIgdGV4dExlbmd0aD0iOTgiIHg9IjY5OC41IiB5PSI3MC4yMzQ0Ij4mIzIxNTE2OyYjMjc0OTM7JiMzMjQ2NzsmIzI2NTI0OyYjMzI4NTg7JiMyMTUxMjsmIzIyMTIwOzwvdGV4dD48L2c+PGcgY2xhc3M9InBhcnRpY2lwYW50IHBhcnRpY2lwYW50LXRhaWwiIGRhdGEtcGFydGljaXBhbnQ9ImFnZyI+PHJlY3QgZmlsbD0iI0UyRTJGMCIgaGVpZ2h0PSIyOC45ODQ0IiByeD0iMi41IiByeT0iMi41IiBzdHlsZT0ic3Ryb2tlOiMxODE4MTg7c3Ryb2tlLXdpZHRoOjAuNTsiIHdpZHRoPSIxMTIiIHg9IjY5MS41IiB5PSI1NzcuNjA5NCIvPjx0ZXh0IGZpbGw9IiMwMDAwMDAiIGZvbnQtZmFtaWx5PSJzYW5zLXNlcmlmIiBmb250LXNpemU9IjE0IiBsZW5ndGhBZGp1c3Q9InNwYWNpbmciIHRleHRMZW5ndGg9Ijk4IiB4PSI2OTguNSIgeT0iNTk3Ljg0MzgiPiYjMjE1MTY7JiMyNzQ5MzsmIzMyNDY3OyYjMjY1MjQ7JiMzMjg1ODsmIzIxNTEyOyYjMjIxMjA7PC90ZXh0PjwvZz48ZyBjbGFzcz0ibWVzc2FnZSIgZGF0YS1wYXJ0aWNpcGFudC0xPSJhZG1pbiIgZGF0YS1wYXJ0aWNpcGFudC0yPSJpbml0Ij48cG9seWdvbiBmaWxsPSIjMTgxODE4IiBwb2ludHM9IjEzMiwxMDUuODk4NCwxNDIsMTA5Ljg5ODQsMTMyLDExMy44OTg0LDEzNiwxMDkuODk4NCIgc3R5bGU9InN0cm9rZTojMTgxODE4O3N0cm9rZS13aWR0aDoxOyIvPjxsaW5lIHN0eWxlPSJzdHJva2U6IzE4MTgxODtzdHJva2Utd2lkdGg6MTsiIHgxPSIyOSIgeDI9IjEzOCIgeTE9IjEwOS44OTg0IiB5Mj0iMTA5Ljg5ODQiLz48dGV4dCBmaWxsPSIjMDAwMDAwIiBmb250LWZhbWlseT0ic2Fucy1zZXJpZiIgZm9udC1zaXplPSIxMyIgbGVuZ3RoQWRqdXN0PSJzcGFjaW5nIiB0ZXh0TGVuZ3RoPSI3OCIgeD0iMzYiIHk9IjEwNi4yNzM0Ij4mIzIxNTUxOyYjMjExNjA7JiMyMTAyMTsmIzIyOTg3OyYjMjEyNzA7KCk8L3RleHQ+PC9nPjxwYXRoIGQ9Ik03MSwxMjQuODk4NCBMMTQyLDEyNC44OTg0IEwxNDIsMTMwLjgxMjUgTDEzMiwxNDAuODEyNSBMNzEsMTQwLjgxMjUgTDcxLDEyNC44OTg0IiBmaWxsPSIjRUVFRUVFIiBzdHlsZT0ic3Ryb2tlOiMwMDAwMDA7c3Ryb2tlLXdpZHRoOjEuNTsiLz48cmVjdCBmaWxsPSJub25lIiBoZWlnaHQ9IjM1Mi45Njg4IiBzdHlsZT0ic3Ryb2tlOiMwMDAwMDA7c3Ryb2tlLXdpZHRoOjEuNTsiIHdpZHRoPSI3NDIuNSIgeD0iNzEiIHk9IjEyNC44OTg0Ii8+PHRleHQgZmlsbD0iIzAwMDAwMCIgZm9udC1mYW1pbHk9InNhbnMtc2VyaWYiIGZvbnQtc2l6ZT0iMTMiIGZvbnQtd2VpZ2h0PSJib2xkIiBsZW5ndGhBZGp1c3Q9InNwYWNpbmciIHRleHRMZW5ndGg9IjI2IiB4PSI4NiIgeT0iMTM4LjE4NzUiPmxvb3A8L3RleHQ+PHRleHQgZmlsbD0iIzAwMDAwMCIgZm9udC1mYW1pbHk9InNhbnMtc2VyaWYiIGZvbnQtc2l6ZT0iMTEiIGZvbnQtd2VpZ2h0PSJib2xkIiBsZW5ndGhBZGp1c3Q9InNwYWNpbmciIHRleHRMZW5ndGg9Ijk5IiB4PSIxNTciIHk9IjEzNy4yOTY5Ij5bJiMzMDQ1MjsmIzIxMDQwOyYjMjU5Njg7JiMyNTQ1NDsmIzI1Mjg5OyYjMjE0NjI7JiMyMzQzNjsmIzI1MTA0O108L3RleHQ+PGcgY2xhc3M9Im1lc3NhZ2UiIGRhdGEtcGFydGljaXBhbnQtMT0iaW5pdCIgZGF0YS1wYXJ0aWNpcGFudC0yPSJmZXRjaGVyIj48cG9seWdvbiBmaWxsPSIjMTgxODE4IiBwb2ludHM9IjMxOC41LDE1Ni43MjY2LDMyOC41LDE2MC43MjY2LDMxOC41LDE2NC43MjY2LDMyMi41LDE2MC43MjY2IiBzdHlsZT0ic3Ryb2tlOiMxODE4MTg7c3Ryb2tlLXdpZHRoOjE7Ii8+PGxpbmUgc3R5bGU9InN0cm9rZTojMTgxODE4O3N0cm9rZS13aWR0aDoxOyIgeDE9IjE0NCIgeDI9IjMyNC41IiB5MT0iMTYwLjcyNjYiIHkyPSIxNjAuNzI2NiIvPjx0ZXh0IGZpbGw9IiMwMDAwMDAiIGZvbnQtZmFtaWx5PSJzYW5zLXNlcmlmIiBmb250LXNpemU9IjEzIiBsZW5ndGhBZGp1c3Q9InNwYWNpbmciIHRleHRMZW5ndGg9IjExNyIgeD0iMTUxIiB5PSIxNTcuMTAxNiI+JiMzMzcxOTsmIzIxNDYyOyYjMTk5Nzk7JiMxOTk2ODsmIzI1MjA5OyYjMjc0MjU7JiMyNTk2ODsmIzI1NDU0OygpPC90ZXh0PjwvZz48ZyBjbGFzcz0ibWVzc2FnZSIgZGF0YS1wYXJ0aWNpcGFudC0xPSJmZXRjaGVyIiBkYXRhLXBhcnRpY2lwYW50LTI9ImluaXQiPjxwb2x5Z29uIGZpbGw9IiMxODE4MTgiIHBvaW50cz0iMTU1LDE4NC42NDA2LDE0NSwxODguNjQwNiwxNTUsMTkyLjY0MDYsMTUxLDE4OC42NDA2IiBzdHlsZT0ic3Ryb2tlOiMxODE4MTg7c3Ryb2tlLXdpZHRoOjE7Ii8+PGxpbmUgc3R5bGU9InN0cm9rZTojMTgxODE4O3N0cm9rZS13aWR0aDoxO3N0cm9rZS1kYXNoYXJyYXk6Mi4wLDIuMDsiIHgxPSIxNDkiIHgyPSIzMjkuNSIgeTE9IjE4OC42NDA2IiB5Mj0iMTg4LjY0MDYiLz48dGV4dCBmaWxsPSIjMDAwMDAwIiBmb250LWZhbWlseT0ic2Fucy1zZXJpZiIgZm9udC1zaXplPSIxMyIgbGVuZ3RoQWRqdXN0PSJzcGFjaW5nIiB0ZXh0TGVuZ3RoPSIxNjIuNSIgeD0iMTYxIiB5PSIxODUuMDE1NiI+JiMzNjgyMDsmIzIyMjM4OyYjMjk5OTI7JiMyNTE0MzsmIzI1OTY4OyYjMjU0NTQ7JiMyMTAxNTsmIzM0OTIwOyYjNjUyODg7NTAwJiMyNjQ2NTsmIzY1Mjg5OzwvdGV4dD48L2c+PGcgY2xhc3M9Im1lc3NhZ2UiIGRhdGEtcGFydGljaXBhbnQtMT0iaW5pdCIgZGF0YS1wYXJ0aWNpcGFudC0yPSJleGVjdXRvciI+PHBvbHlnb24gZmlsbD0iIzE4MTgxOCIgcG9pbnRzPSI0NDAuNSwyMTIuNTU0Nyw0NTAuNSwyMTYuNTU0Nyw0NDAuNSwyMjAuNTU0Nyw0NDQuNSwyMTYuNTU0NyIgc3R5bGU9InN0cm9rZTojMTgxODE4O3N0cm9rZS13aWR0aDoxOyIvPjxsaW5lIHN0eWxlPSJzdHJva2U6IzE4MTgxODtzdHJva2Utd2lkdGg6MTsiIHgxPSIxNDQiIHgyPSI0NDYuNSIgeTE9IjIxNi41NTQ3IiB5Mj0iMjE2LjU1NDciLz48dGV4dCBmaWxsPSIjMDAwMDAwIiBmb250LWZhbWlseT0ic2Fucy1zZXJpZiIgZm9udC1zaXplPSIxMyIgbGVuZ3RoQWRqdXN0PSJzcGFjaW5nIiB0ZXh0TGVuZ3RoPSIxNjkiIHg9IjE1MSIgeT0iMjEyLjkyOTciPiYjMjU1NTI7JiMyMDEzMjsmIzI1MjA5OyYjMjc0MjU7JiMyMDIxOTsmIzIxMTUzOygmIzI5OTkyOyYjMjUxNDM7JiMyNTk2ODsmIzI1NDU0OyYjMjEwMTU7JiMzNDkyMDspPC90ZXh0PjwvZz48ZyBjbGFzcz0ibWVzc2FnZSIgZGF0YS1wYXJ0aWNpcGFudC0xPSJleGVjdXRvciIgZGF0YS1wYXJ0aWNpcGFudC0yPSJleGVjdXRvciI+PGxpbmUgc3R5bGU9InN0cm9rZTojMTgxODE4O3N0cm9rZS13aWR0aDoxOyIgeDE9IjQ1Mi41IiB4Mj0iNDk0LjUiIHkxPSIyNDQuNDY4OCIgeTI9IjI0NC40Njg4Ii8+PGxpbmUgc3R5bGU9InN0cm9rZTojMTgxODE4O3N0cm9rZS13aWR0aDoxOyIgeDE9IjQ5NC41IiB4Mj0iNDk0LjUiIHkxPSIyNDQuNDY4OCIgeTI9IjI1Ny40Njg4Ii8+PGxpbmUgc3R5bGU9InN0cm9rZTojMTgxODE4O3N0cm9rZS13aWR0aDoxOyIgeDE9IjQ1My41IiB4Mj0iNDk0LjUiIHkxPSIyNTcuNDY4OCIgeTI9IjI1Ny40Njg4Ii8+PHBvbHlnb24gZmlsbD0iIzE4MTgxOCIgcG9pbnRzPSI0NjMuNSwyNTMuNDY4OCw0NTMuNSwyNTcuNDY4OCw0NjMuNSwyNjEuNDY4OCw0NTkuNSwyNTcuNDY4OCIgc3R5bGU9InN0cm9rZTojMTgxODE4O3N0cm9rZS13aWR0aDoxOyIvPjx0ZXh0IGZpbGw9IiMwMDAwMDAiIGZvbnQtZmFtaWx5PSJzYW5zLXNlcmlmIiBmb250LXNpemU9IjEzIiBsZW5ndGhBZGp1c3Q9InNwYWNpbmciIHRleHRMZW5ndGg9IjEwNCIgeD0iNDU5LjUiIHk9IjI0MC44NDM4Ij4mIzIwOTk4OyYjMzcxOTc7JiMzMjQ0NzsmIzMxMjQzOyYjMjI3ODg7JiMyOTcwMjsmIzI1MjA5OyYjMjc0MjU7PC90ZXh0PjwvZz48cGF0aCBkPSJNMzc2LjUsMjcyLjQ2ODggTDQ0Ny41LDI3Mi40Njg4IEw0NDcuNSwyNzguMzgyOCBMNDM3LjUsMjg4LjM4MjggTDM3Ni41LDI4OC4zODI4IEwzNzYuNSwyNzIuNDY4OCIgZmlsbD0iI0VFRUVFRSIgc3R5bGU9InN0cm9rZTojMDAwMDAwO3N0cm9rZS13aWR0aDoxLjU7Ii8+PHJlY3QgZmlsbD0ibm9uZSIgaGVpZ2h0PSIxNDIuNTcwMyIgc3R5bGU9InN0cm9rZTojMDAwMDAwO3N0cm9rZS13aWR0aDoxLjU7IiB3aWR0aD0iMzI1IiB4PSIzNzYuNSIgeT0iMjcyLjQ2ODgiLz48dGV4dCBmaWxsPSIjMDAwMDAwIiBmb250LWZhbWlseT0ic2Fucy1zZXJpZiIgZm9udC1zaXplPSIxMyIgZm9udC13ZWlnaHQ9ImJvbGQiIGxlbmd0aEFkanVzdD0ic3BhY2luZyIgdGV4dExlbmd0aD0iMjYiIHg9IjM5MS41IiB5PSIyODUuNzU3OCI+bG9vcDwvdGV4dD48dGV4dCBmaWxsPSIjMDAwMDAwIiBmb250LWZhbWlseT0ic2Fucy1zZXJpZiIgZm9udC1zaXplPSIxMSIgZm9udC13ZWlnaHQ9ImJvbGQiIGxlbmd0aEFkanVzdD0ic3BhY2luZyIgdGV4dExlbmd0aD0iMTEwIiB4PSI0NjIuNSIgeT0iMjg0Ljg2NzIiPlsmIzM2ODgwOyYjMjk5OTI7JiMyNTE0MzsmIzIyNzg4OyYjMjk3MDI7JiM2NTI4ODsmIzIwMDE4OyYjMzQ4OTI7JiM2NTI4OTtdPC90ZXh0PjxnIGNsYXNzPSJtZXNzYWdlIiBkYXRhLXBhcnRpY2lwYW50LTE9ImV4ZWN1dG9yIiBkYXRhLXBhcnRpY2lwYW50LTI9ImJpIj48cG9seWdvbiBmaWxsPSIjMTgxODE4IiBwb2ludHM9IjYyMC41LDMwNC4yOTY5LDYzMC41LDMwOC4yOTY5LDYyMC41LDMxMi4yOTY5LDYyNC41LDMwOC4yOTY5IiBzdHlsZT0ic3Ryb2tlOiMxODE4MTg7c3Ryb2tlLXdpZHRoOjE7Ii8+PGxpbmUgc3R5bGU9InN0cm9rZTojMTgxODE4O3N0cm9rZS13aWR0aDoxOyIgeDE9IjQ1Mi41IiB4Mj0iNjI2LjUiIHkxPSIzMDguMjk2OSIgeTI9IjMwOC4yOTY5Ii8+PHRleHQgZmlsbD0iIzAwMDAwMCIgZm9udC1mYW1pbHk9InNhbnMtc2VyaWYiIGZvbnQtc2l6ZT0iMTMiIGxlbmd0aEFkanVzdD0ic3BhY2luZyIgdGV4dExlbmd0aD0iMTU2IiB4PSI0NTkuNSIgeT0iMzA0LjY3MTkiPiYjMjY1OTc7JiMzNTgxMDsmIzI5OTkyOyYjMjUxNDM7JiMyNjE1OTsmIzIxNTQyOyYjMjMzODQ7JiMyMjMxMjsodXNlcklkKTwvdGV4dD48L2c+PHBhdGggZD0iTTM4Ni41LDMyMy4yOTY5IEw0NTEsMzIzLjI5NjkgTDQ1MSwzMjkuMjEwOSBMNDQxLDMzOS4yMTA5IEwzODYuNSwzMzkuMjEwOSBMMzg2LjUsMzIzLjI5NjkiIGZpbGw9IiNFRUVFRUUiIHN0eWxlPSJzdHJva2U6IzAwMDAwMDtzdHJva2Utd2lkdGg6MS41OyIvPjxyZWN0IGZpbGw9Im5vbmUiIGhlaWdodD0iNDMuODI4MSIgc3R5bGU9InN0cm9rZTojMDAwMDAwO3N0cm9rZS13aWR0aDoxLjU7IiB3aWR0aD0iMzA1IiB4PSIzODYuNSIgeT0iMzIzLjI5NjkiLz48dGV4dCBmaWxsPSIjMDAwMDAwIiBmb250LWZhbWlseT0ic2Fucy1zZXJpZiIgZm9udC1zaXplPSIxMyIgZm9udC13ZWlnaHQ9ImJvbGQiIGxlbmd0aEFkanVzdD0ic3BhY2luZyIgdGV4dExlbmd0aD0iMTkuNSIgeD0iNDAxLjUiIHk9IjMzNi41ODU5Ij5hbHQ8L3RleHQ+PHRleHQgZmlsbD0iIzAwMDAwMCIgZm9udC1mYW1pbHk9InNhbnMtc2VyaWYiIGZvbnQtc2l6ZT0iMTEiIGZvbnQtd2VpZ2h0PSJib2xkIiBsZW5ndGhBZGp1c3Q9InNwYWNpbmciIHRleHRMZW5ndGg9IjY2IiB4PSI0NjYiIHk9IjMzNS42OTUzIj5bJiMyOTk5MjsmIzI1MTQzOyYjMTk5ODE7JiMyMzM4NDsmIzIyMzEyO108L3RleHQ+PGcgY2xhc3M9Im1lc3NhZ2UiIGRhdGEtcGFydGljaXBhbnQtMT0iZXhlY3V0b3IiIGRhdGEtcGFydGljaXBhbnQtMj0iYmkiPjxwb2x5Z29uIGZpbGw9IiMxODE4MTgiIHBvaW50cz0iNjIwLjUsMzU1LjEyNSw2MzAuNSwzNTkuMTI1LDYyMC41LDM2My4xMjUsNjI0LjUsMzU5LjEyNSIgc3R5bGU9InN0cm9rZTojMTgxODE4O3N0cm9rZS13aWR0aDoxOyIvPjxsaW5lIHN0eWxlPSJzdHJva2U6IzE4MTgxODtzdHJva2Utd2lkdGg6MTsiIHgxPSI0NTIuNSIgeDI9IjYyNi41IiB5MT0iMzU5LjEyNSIgeTI9IjM1OS4xMjUiLz48dGV4dCBmaWxsPSIjMDAwMDAwIiBmb250LWZhbWlseT0ic2Fucy1zZXJpZiIgZm9udC1zaXplPSIxMyIgbGVuZ3RoQWRqdXN0PSJzcGFjaW5nIiB0ZXh0TGVuZ3RoPSIxMTciIHg9IjQ1OS41IiB5PSIzNTUuNSI+JiMyMTAxOTsmIzI0MzE0OyYjMjk5OTI7JiMyNTE0MzsoJiMyOTk5MjsmIzI1MTQzOyYjMjE0NDI7JiMyNTk2ODspPC90ZXh0PjwvZz48ZyBjbGFzcz0ibWVzc2FnZSIgZGF0YS1wYXJ0aWNpcGFudC0xPSJleGVjdXRvciIgZGF0YS1wYXJ0aWNpcGFudC0yPSJleGVjdXRvciI+PGxpbmUgc3R5bGU9InN0cm9rZTojMTgxODE4O3N0cm9rZS13aWR0aDoxO3N0cm9rZS1kYXNoYXJyYXk6Mi4wLDIuMDsiIHgxPSI0NTIuNSIgeDI9IjQ5NC41IiB5MT0iMzk0LjAzOTEiIHkyPSIzOTQuMDM5MSIvPjxsaW5lIHN0eWxlPSJzdHJva2U6IzE4MTgxODtzdHJva2Utd2lkdGg6MTtzdHJva2UtZGFzaGFycmF5OjIuMCwyLjA7IiB4MT0iNDk0LjUiIHgyPSI0OTQuNSIgeTE9IjM5NC4wMzkxIiB5Mj0iNDA3LjAzOTEiLz48bGluZSBzdHlsZT0ic3Ryb2tlOiMxODE4MTg7c3Ryb2tlLXdpZHRoOjE7c3Ryb2tlLWRhc2hhcnJheToyLjAsMi4wOyIgeDE9IjQ1My41IiB4Mj0iNDk0LjUiIHkxPSI0MDcuMDM5MSIgeTI9IjQwNy4wMzkxIi8+PHBvbHlnb24gZmlsbD0iIzE4MTgxOCIgcG9pbnRzPSI0NjMuNSw0MDMuMDM5MSw0NTMuNSw0MDcuMDM5MSw0NjMuNSw0MTEuMDM5MSw0NTkuNSw0MDcuMDM5MSIgc3R5bGU9InN0cm9rZTojMTgxODE4O3N0cm9rZS13aWR0aDoxOyIvPjx0ZXh0IGZpbGw9IiMwMDAwMDAiIGZvbnQtZmFtaWx5PSJzYW5zLXNlcmlmIiBmb250LXNpemU9IjEzIiBsZW5ndGhBZGp1c3Q9InNwYWNpbmciIHRleHRMZW5ndGg9IjEwNCIgeD0iNDU5LjUiIHk9IjM5MC40MTQxIj4mIzI5OTgzOyYjMjUxMDQ7JiMyOTk5MjsmIzI1MTQzOyYjMjE1MTY7JiMyNzQ5MzsmIzMyNDY3OyYjMjY1MjQ7PC90ZXh0PjwvZz48ZyBjbGFzcz0ibWVzc2FnZSIgZGF0YS1wYXJ0aWNpcGFudC0xPSJleGVjdXRvciIgZGF0YS1wYXJ0aWNpcGFudC0yPSJpbml0Ij48cG9seWdvbiBmaWxsPSIjMTgxODE4IiBwb2ludHM9IjE1NSw0MzcuOTUzMSwxNDUsNDQxLjk1MzEsMTU1LDQ0NS45NTMxLDE1MSw0NDEuOTUzMSIgc3R5bGU9InN0cm9rZTojMTgxODE4O3N0cm9rZS13aWR0aDoxOyIvPjxsaW5lIHN0eWxlPSJzdHJva2U6IzE4MTgxODtzdHJva2Utd2lkdGg6MTtzdHJva2UtZGFzaGFycmF5OjIuMCwyLjA7IiB4MT0iMTQ5IiB4Mj0iNDUxLjUiIHkxPSI0NDEuOTUzMSIgeTI9IjQ0MS45NTMxIi8+PHRleHQgZmlsbD0iIzAwMDAwMCIgZm9udC1mYW1pbHk9InNhbnMtc2VyaWYiIGZvbnQtc2l6ZT0iMTMiIGxlbmd0aEFkanVzdD0ic3BhY2luZyIgdGV4dExlbmd0aD0iMTA0IiB4PSIxNjEiIHk9IjQzOC4zMjgxIj4mIzM2ODIwOyYjMjIyMzg7JiMyNTIwOTsmIzI3NDI1OyYjMjI3ODg7JiMyOTcwMjsmIzMyNDY3OyYjMjY1MjQ7PC90ZXh0PjwvZz48ZyBjbGFzcz0ibWVzc2FnZSIgZGF0YS1wYXJ0aWNpcGFudC0xPSJpbml0IiBkYXRhLXBhcnRpY2lwYW50LTI9ImFnZyI+PHBvbHlnb24gZmlsbD0iIzE4MTgxOCIgcG9pbnRzPSI3MzUuNSw0NjUuODY3Miw3NDUuNSw0NjkuODY3Miw3MzUuNSw0NzMuODY3Miw3MzkuNSw0NjkuODY3MiIgc3R5bGU9InN0cm9rZTojMTgxODE4O3N0cm9rZS13aWR0aDoxOyIvPjxsaW5lIHN0eWxlPSJzdHJva2U6IzE4MTgxODtzdHJva2Utd2lkdGg6MTsiIHgxPSIxNDQiIHgyPSI3NDEuNSIgeTE9IjQ2OS44NjcyIiB5Mj0iNDY5Ljg2NzIiLz48dGV4dCBmaWxsPSIjMDAwMDAwIiBmb250LWZhbWlseT0ic2Fucy1zZXJpZiIgZm9udC1zaXplPSIxMyIgbGVuZ3RoQWRqdXN0PSJzcGFjaW5nIiB0ZXh0TGVuZ3RoPSIxNDMiIHg9IjE1MSIgeT0iNDY2LjI0MjIiPiYjMzU3NjA7JiMyNDQwNTsmIzI1MjA5OyYjMjc0MjU7JiMzMjQ2NzsmIzI2NTI0OygmIzMyNDY3OyYjMjY1MjQ7JiMyMTAxNTsmIzM0OTIwOyk8L3RleHQ+PC9nPjxnIGNsYXNzPSJtZXNzYWdlIiBkYXRhLXBhcnRpY2lwYW50LTE9ImluaXQiIGRhdGEtcGFydGljaXBhbnQtMj0iYWdnIj48cG9seWdvbiBmaWxsPSIjMTgxODE4IiBwb2ludHM9IjczNS41LDUwMC43ODEzLDc0NS41LDUwNC43ODEzLDczNS41LDUwOC43ODEzLDczOS41LDUwNC43ODEzIiBzdHlsZT0ic3Ryb2tlOiMxODE4MTg7c3Ryb2tlLXdpZHRoOjE7Ii8+PGxpbmUgc3R5bGU9InN0cm9rZTojMTgxODE4O3N0cm9rZS13aWR0aDoxOyIgeDE9IjE0NCIgeDI9Ijc0MS41IiB5MT0iNTA0Ljc4MTMiIHkyPSI1MDQuNzgxMyIvPjx0ZXh0IGZpbGw9IiMwMDAwMDAiIGZvbnQtZmFtaWx5PSJzYW5zLXNlcmlmIiBmb250LXNpemU9IjEzIiBsZW5ndGhBZGp1c3Q9InNwYWNpbmciIHRleHRMZW5ndGg9IjkxIiB4PSIxNTEiIHk9IjUwMS4xNTYzIj4mIzI5OTgzOyYjMjUxMDQ7JiMyNzcxOTsmIzI0NjM1OyYjMzI0Njc7JiMyNjUyNDsoKTwvdGV4dD48L2c+PGcgY2xhc3M9Im1lc3NhZ2UiIGRhdGEtcGFydGljaXBhbnQtMT0iYWdnIiBkYXRhLXBhcnRpY2lwYW50LTI9ImluaXQiPjxwb2x5Z29uIGZpbGw9IiMxODE4MTgiIHBvaW50cz0iMTU1LDUyOC42OTUzLDE0NSw1MzIuNjk1MywxNTUsNTM2LjY5NTMsMTUxLDUzMi42OTUzIiBzdHlsZT0ic3Ryb2tlOiMxODE4MTg7c3Ryb2tlLXdpZHRoOjE7Ii8+PGxpbmUgc3R5bGU9InN0cm9rZTojMTgxODE4O3N0cm9rZS13aWR0aDoxO3N0cm9rZS1kYXNoYXJyYXk6Mi4wLDIuMDsiIHgxPSIxNDkiIHgyPSI3NDYuNSIgeTE9IjUzMi42OTUzIiB5Mj0iNTMyLjY5NTMiLz48dGV4dCBmaWxsPSIjMDAwMDAwIiBmb250LWZhbWlseT0ic2Fucy1zZXJpZiIgZm9udC1zaXplPSIxMyIgbGVuZ3RoQWRqdXN0PSJzcGFjaW5nIiB0ZXh0TGVuZ3RoPSI5MSIgeD0iMTYxIiB5PSI1MjkuMDcwMyI+JiMyMTAyMTsmIzIyOTg3OyYjMjEyNzA7JiMyNzcxOTsmIzI0NjM1OyYjMzI0Njc7JiMyNjUyNDs8L3RleHQ+PC9nPjxnIGNsYXNzPSJtZXNzYWdlIiBkYXRhLXBhcnRpY2lwYW50LTE9ImluaXQiIGRhdGEtcGFydGljaXBhbnQtMj0iYWRtaW4iPjxwb2x5Z29uIGZpbGw9IiMxODE4MTgiIHBvaW50cz0iNDAsNTU2LjYwOTQsMzAsNTYwLjYwOTQsNDAsNTY0LjYwOTQsMzYsNTYwLjYwOTQiIHN0eWxlPSJzdHJva2U6IzE4MTgxODtzdHJva2Utd2lkdGg6MTsiLz48bGluZSBzdHlsZT0ic3Ryb2tlOiMxODE4MTg7c3Ryb2tlLXdpZHRoOjE7c3Ryb2tlLWRhc2hhcnJheToyLjAsMi4wOyIgeDE9IjM0IiB4Mj0iMTQzIiB5MT0iNTYwLjYwOTQiIHkyPSI1NjAuNjA5NCIvPjx0ZXh0IGZpbGw9IiMwMDAwMDAiIGZvbnQtZmFtaWx5PSJzYW5zLXNlcmlmIiBmb250LXNpemU9IjEzIiBsZW5ndGhBZGp1c3Q9InNwYWNpbmciIHRleHRMZW5ndGg9IjkxIiB4PSI0NiIgeT0iNTU2Ljk4NDQiPiYjMzY4MjA7JiMyMjIzODsmIzIxMDIxOyYjMjI5ODc7JiMyMTI3MDsmIzMyNDY3OyYjMjY1MjQ7PC90ZXh0PjwvZz48IS0tU1JDPVtSUEZESmk5MDU4TnRWT2c5QXJZT2s3NzNtZUt4N3dEMnJJT0ExNmxZNGVxX1d1M0tZOGdZYVhnTDljaDFkb1hJWklfSkVyRE5sZUJKdFd3c3dlZ2F5dnFwdnpteGc1Y1pLMkJTaVJZdjFOaWplWXVKRFJVYXZ2TVlNWkJxaDV2S3ltT1B1cXNScUhVV1B6MmpHa3NHeE5RMUZpRW5GSFJtVWJ1dGFaWWhsQjlSWW50cU1UdG5Uci1XU0laUEVTdDhCY1liX3QzRlRNNzdPZk1rUnpLYWhncmdzSEtIQ0NiRnBfMTdieGlUUzJ2NEFkeEoyemJQRktjMU1NRHRMenBUUC1VZF9qZTljNUl3Z2xGcFlYQXM5RURKT1ZtQzBSQzdFX1FlT0lnakIxT0FIU0JSSnEzeHM4SExBcTRKZnlRZWdQMUc1LVlaSVhjMkpScjFySGtLdW5DR05hSElQN25xZV9fSFhGT3ZKWFAxZTRVLVBOLXpxU2M5Mk5QY1ZSckxPalY4S01HOFF2WlV5MzgtakRIVmItMUVBS2RBV012elJqUnZ5OEZSTFJaUzQ3ajdBbzQ4QXQtTXBNWlR1UTY4dW1xVW40dW1KajlyTFhUbkViVC14bzlBcUVnMVVHcnRCSllyS29sQk1jYWNibXY1d2c5MTRGNDZUSm1GbF8tcjB6ZTZUdVhpcjBpUXd3OFE2Y2R2dEF5S1lOQXlzSDdSWU1JbjF3MThQSzhOTm1HRTBKa0ZEN0J1dWlLOHBrZDMtbTVvSUFKbUhxdXlrMjZYbTNKaVZma0x0S1lITGlIOXhGQVZfcklDWWJtMmMtMkxvZVdaNWdibF0tLT48L2c+PC9zdmc+;" parent="1" vertex="1">
            <mxGeometry x="-350" y="810" width="819" height="658" as="geometry" />
          </mxCell>
        </UserObject>
        <mxCell id="JNcHqP3WZGYwq6tifNxT-2" value="PC客户端" style="shape=umlLifeline;perimeter=lifelinePerimeter;whiteSpace=wrap;container=1;dropTarget=0;collapsible=0;recursiveResize=0;outlineConnect=0;portConstraint=eastwest;newEdgeStyle={&quot;edgeStyle&quot;:&quot;elbowEdgeStyle&quot;,&quot;elbow&quot;:&quot;vertical&quot;,&quot;curved&quot;:0,&quot;rounded&quot;:0};size=65;" vertex="1" parent="1">
          <mxGeometry x="-730" y="1718" width="150" height="1882" as="geometry" />
        </mxCell>
        <mxCell id="JNcHqP3WZGYwq6tifNxT-3" value="Contoller" style="shape=umlLifeline;perimeter=lifelinePerimeter;whiteSpace=wrap;container=1;dropTarget=0;collapsible=0;recursiveResize=0;outlineConnect=0;portConstraint=eastwest;newEdgeStyle={&quot;edgeStyle&quot;:&quot;elbowEdgeStyle&quot;,&quot;elbow&quot;:&quot;vertical&quot;,&quot;curved&quot;:0,&quot;rounded&quot;:0};size=65;" vertex="1" parent="1">
          <mxGeometry x="-485" y="1718" width="150" height="1882" as="geometry" />
        </mxCell>
        <mxCell id="JNcHqP3WZGYwq6tifNxT-4" value="" style="points=[];perimeter=orthogonalPerimeter;outlineConnect=0;targetShapes=umlLifeline;portConstraint=eastwest;newEdgeStyle={&quot;edgeStyle&quot;:&quot;elbowEdgeStyle&quot;,&quot;elbow&quot;:&quot;vertical&quot;,&quot;curved&quot;:0,&quot;rounded&quot;:0}" vertex="1" parent="JNcHqP3WZGYwq6tifNxT-3">
          <mxGeometry x="70" y="113" width="10" height="1667" as="geometry" />
        </mxCell>
        <mxCell id="JNcHqP3WZGYwq6tifNxT-5" value="service" style="shape=umlLifeline;perimeter=lifelinePerimeter;whiteSpace=wrap;container=1;dropTarget=0;collapsible=0;recursiveResize=0;outlineConnect=0;portConstraint=eastwest;newEdgeStyle={&quot;edgeStyle&quot;:&quot;elbowEdgeStyle&quot;,&quot;elbow&quot;:&quot;vertical&quot;,&quot;curved&quot;:0,&quot;rounded&quot;:0};size=65;" vertex="1" parent="1">
          <mxGeometry x="-246" y="1718" width="150" height="1882" as="geometry" />
        </mxCell>
        <mxCell id="JNcHqP3WZGYwq6tifNxT-6" value="" style="points=[];perimeter=orthogonalPerimeter;outlineConnect=0;targetShapes=umlLifeline;portConstraint=eastwest;newEdgeStyle={&quot;edgeStyle&quot;:&quot;elbowEdgeStyle&quot;,&quot;elbow&quot;:&quot;vertical&quot;,&quot;curved&quot;:0,&quot;rounded&quot;:0}" vertex="1" parent="JNcHqP3WZGYwq6tifNxT-5">
          <mxGeometry x="70" y="171" width="10" height="1569" as="geometry" />
        </mxCell>
        <mxCell id="JNcHqP3WZGYwq6tifNxT-7" value="回收条件校验" style="shape=umlLifeline;perimeter=lifelinePerimeter;whiteSpace=wrap;container=1;dropTarget=0;collapsible=0;recursiveResize=0;outlineConnect=0;portConstraint=eastwest;newEdgeStyle={&quot;edgeStyle&quot;:&quot;elbowEdgeStyle&quot;,&quot;elbow&quot;:&quot;vertical&quot;,&quot;curved&quot;:0,&quot;rounded&quot;:0};size=65;" vertex="1" parent="1">
          <mxGeometry x="141" y="1718" width="150" height="1882" as="geometry" />
        </mxCell>
        <mxCell id="JNcHqP3WZGYwq6tifNxT-9" value="" style="points=[];perimeter=orthogonalPerimeter;outlineConnect=0;targetShapes=umlLifeline;portConstraint=eastwest;newEdgeStyle={&quot;edgeStyle&quot;:&quot;elbowEdgeStyle&quot;,&quot;elbow&quot;:&quot;vertical&quot;,&quot;curved&quot;:0,&quot;rounded&quot;:0}" vertex="1" parent="JNcHqP3WZGYwq6tifNxT-7">
          <mxGeometry x="70" y="345" width="10" height="146" as="geometry" />
        </mxCell>
        <mxCell id="JNcHqP3WZGYwq6tifNxT-11" value="CSC" style="shape=umlLifeline;perimeter=lifelinePerimeter;whiteSpace=wrap;container=1;dropTarget=0;collapsible=0;recursiveResize=0;outlineConnect=0;portConstraint=eastwest;newEdgeStyle={&quot;edgeStyle&quot;:&quot;elbowEdgeStyle&quot;,&quot;elbow&quot;:&quot;vertical&quot;,&quot;curved&quot;:0,&quot;rounded&quot;:0};size=65;" vertex="1" parent="1">
          <mxGeometry x="441" y="1718" width="150" height="1882" as="geometry" />
        </mxCell>
        <mxCell id="JNcHqP3WZGYwq6tifNxT-13" value="" style="points=[];perimeter=orthogonalPerimeter;outlineConnect=0;targetShapes=umlLifeline;portConstraint=eastwest;newEdgeStyle={&quot;edgeStyle&quot;:&quot;elbowEdgeStyle&quot;,&quot;elbow&quot;:&quot;vertical&quot;,&quot;curved&quot;:0,&quot;rounded&quot;:0}" vertex="1" parent="JNcHqP3WZGYwq6tifNxT-11">
          <mxGeometry x="70" y="817" width="10" height="146" as="geometry" />
        </mxCell>
        <mxCell id="JNcHqP3WZGYwq6tifNxT-14" value="" style="points=[];perimeter=orthogonalPerimeter;outlineConnect=0;targetShapes=umlLifeline;portConstraint=eastwest;newEdgeStyle={&quot;edgeStyle&quot;:&quot;elbowEdgeStyle&quot;,&quot;elbow&quot;:&quot;vertical&quot;,&quot;curved&quot;:0,&quot;rounded&quot;:0}" vertex="1" parent="JNcHqP3WZGYwq6tifNxT-11">
          <mxGeometry x="70" y="1341" width="10" height="94" as="geometry" />
        </mxCell>
        <mxCell id="JNcHqP3WZGYwq6tifNxT-20" value="alt" style="shape=umlFrame;dashed=1;pointerEvents=0;dropTarget=0;strokeColor=#B3B3B3;height=20;width=30" vertex="1" parent="1">
          <mxGeometry x="-425" y="2848" width="269" height="101" as="geometry" />
        </mxCell>
        <mxCell id="JNcHqP3WZGYwq6tifNxT-21" value="[任意线索无效]" style="text;strokeColor=none;fillColor=none;align=center;verticalAlign=middle;whiteSpace=wrap;" vertex="1" parent="JNcHqP3WZGYwq6tifNxT-20">
          <mxGeometry x="30" width="239" height="20" as="geometry" />
        </mxCell>
        <mxCell id="JNcHqP3WZGYwq6tifNxT-22" value="loop" style="shape=umlFrame;dashed=1;pointerEvents=0;dropTarget=0;strokeColor=#B3B3B3;height=20;width=40" vertex="1" parent="1">
          <mxGeometry x="-435" y="2711" width="397" height="248" as="geometry" />
        </mxCell>
        <mxCell id="JNcHqP3WZGYwq6tifNxT-23" value="[遍历所有线索]" style="text;strokeColor=none;fillColor=none;align=center;verticalAlign=middle;whiteSpace=wrap;" vertex="1" parent="JNcHqP3WZGYwq6tifNxT-22">
          <mxGeometry x="40" width="357" height="20" as="geometry" />
        </mxCell>
        <mxCell id="JNcHqP3WZGYwq6tifNxT-24" value="alt" style="shape=umlFrame;dashed=1;pointerEvents=0;dropTarget=0;strokeColor=#B3B3B3;height=20;width=30" vertex="1" parent="1">
          <mxGeometry x="-460" y="2397" width="1040" height="593" as="geometry" />
        </mxCell>
        <mxCell id="JNcHqP3WZGYwq6tifNxT-25" value="[第一条线索无效]" style="text;strokeColor=none;fillColor=none;align=center;verticalAlign=middle;whiteSpace=wrap;" vertex="1" parent="JNcHqP3WZGYwq6tifNxT-24">
          <mxGeometry x="18.615751789976137" width="1021.3842482100238" height="9.518459069020867" as="geometry" />
        </mxCell>
        <mxCell id="JNcHqP3WZGYwq6tifNxT-26" value="" style="shape=line;dashed=1;whiteSpace=wrap;verticalAlign=top;labelPosition=center;verticalLabelPosition=middle;align=center;strokeColor=#B3B3B3;" vertex="1" parent="JNcHqP3WZGYwq6tifNxT-24">
          <mxGeometry y="50.44783306581059" width="1040" as="geometry" />
        </mxCell>
        <mxCell id="JNcHqP3WZGYwq6tifNxT-30" value="POST reclaim" style="verticalAlign=bottom;edgeStyle=elbowEdgeStyle;elbow=vertical;curved=0;rounded=0;endArrow=block;" edge="1" parent="1" source="JNcHqP3WZGYwq6tifNxT-2" target="JNcHqP3WZGYwq6tifNxT-4">
          <mxGeometry x="-0.0031" relative="1" as="geometry">
            <Array as="points">
              <mxPoint x="-524" y="1831" />
            </Array>
            <mxPoint as="offset" />
          </mxGeometry>
        </mxCell>
        <mxCell id="JNcHqP3WZGYwq6tifNxT-31" value="reclaim(request)" style="verticalAlign=bottom;edgeStyle=elbowEdgeStyle;elbow=vertical;curved=0;rounded=0;endArrow=block;" edge="1" parent="1" source="JNcHqP3WZGYwq6tifNxT-4" target="JNcHqP3WZGYwq6tifNxT-6">
          <mxGeometry relative="1" as="geometry">
            <Array as="points">
              <mxPoint x="-280" y="1889" />
            </Array>
          </mxGeometry>
        </mxCell>
        <mxCell id="JNcHqP3WZGYwq6tifNxT-34" value="validate" style="verticalAlign=bottom;edgeStyle=elbowEdgeStyle;elbow=horizontal;curved=0;rounded=0;endArrow=block;" edge="1" parent="1" source="JNcHqP3WZGYwq6tifNxT-6" target="JNcHqP3WZGYwq6tifNxT-9">
          <mxGeometry relative="1" as="geometry">
            <Array as="points">
              <mxPoint x="33" y="2063" />
            </Array>
          </mxGeometry>
        </mxCell>
        <mxCell id="JNcHqP3WZGYwq6tifNxT-37" value="校验结果" style="verticalAlign=bottom;edgeStyle=elbowEdgeStyle;elbow=vertical;curved=0;rounded=0;dashed=1;dashPattern=2 3;endArrow=block;" edge="1" parent="1" source="JNcHqP3WZGYwq6tifNxT-7" target="JNcHqP3WZGYwq6tifNxT-6">
          <mxGeometry relative="1" as="geometry">
            <Array as="points">
              <mxPoint x="34" y="2219" />
            </Array>
          </mxGeometry>
        </mxCell>
        <mxCell id="JNcHqP3WZGYwq6tifNxT-38" value="权限错误" style="verticalAlign=bottom;edgeStyle=elbowEdgeStyle;elbow=vertical;curved=0;rounded=0;dashed=1;dashPattern=2 3;endArrow=block;" edge="1" parent="1" source="JNcHqP3WZGYwq6tifNxT-6" target="JNcHqP3WZGYwq6tifNxT-4">
          <mxGeometry relative="1" as="geometry">
            <Array as="points">
              <mxPoint x="-279" y="2320" />
            </Array>
          </mxGeometry>
        </mxCell>
        <mxCell id="JNcHqP3WZGYwq6tifNxT-45" value="batchGet(clueIds)" style="verticalAlign=bottom;edgeStyle=elbowEdgeStyle;elbow=vertical;curved=0;rounded=0;endArrow=block;" edge="1" parent="1" target="JNcHqP3WZGYwq6tifNxT-13">
          <mxGeometry relative="1" as="geometry">
            <Array as="points">
              <mxPoint x="233" y="2535" />
            </Array>
            <mxPoint x="-166.00000000000045" y="2535" as="sourcePoint" />
          </mxGeometry>
        </mxCell>
        <mxCell id="JNcHqP3WZGYwq6tifNxT-48" value="List&lt;Clue&gt;" style="verticalAlign=bottom;edgeStyle=elbowEdgeStyle;elbow=vertical;curved=0;rounded=0;dashed=1;dashPattern=2 3;endArrow=block;" edge="1" parent="1">
          <mxGeometry relative="1" as="geometry">
            <Array as="points">
              <mxPoint x="234" y="2691" />
            </Array>
            <mxPoint x="515.5" y="2691" as="sourcePoint" />
            <mxPoint x="-166.00000000000045" y="2691" as="targetPoint" />
          </mxGeometry>
        </mxCell>
        <mxCell id="JNcHqP3WZGYwq6tifNxT-49" value="validateClue" style="curved=1;endArrow=block;rounded=0;" edge="1" parent="1">
          <mxGeometry relative="1" as="geometry">
            <Array as="points">
              <mxPoint x="-116" y="2798" />
              <mxPoint x="-116" y="2828" />
            </Array>
            <mxPoint x="-166.00000000000045" y="2798" as="sourcePoint" />
            <mxPoint x="-166.00000000000045" y="2828" as="targetPoint" />
          </mxGeometry>
        </mxCell>
        <mxCell id="JNcHqP3WZGYwq6tifNxT-50" value="返回第一条无效线索(即DCC线索)" style="verticalAlign=bottom;edgeStyle=elbowEdgeStyle;elbow=vertical;curved=0;rounded=0;dashed=1;dashPattern=2 3;endArrow=block;" edge="1" parent="1">
          <mxGeometry x="0.0044" relative="1" as="geometry">
            <Array as="points">
              <mxPoint x="-279" y="2929" />
            </Array>
            <mxPoint x="-176.00000000000045" y="2929" as="sourcePoint" />
            <mxPoint x="-405" y="2929" as="targetPoint" />
            <mxPoint as="offset" />
          </mxGeometry>
        </mxCell>
        <mxCell id="JNcHqP3WZGYwq6tifNxT-52" value="batchUpdate" style="verticalAlign=bottom;edgeStyle=elbowEdgeStyle;elbow=vertical;curved=0;rounded=0;endArrow=block;" edge="1" parent="1" target="JNcHqP3WZGYwq6tifNxT-14">
          <mxGeometry relative="1" as="geometry">
            <Array as="points">
              <mxPoint x="233" y="3059" />
            </Array>
            <mxPoint x="-166.00000000000045" y="3059" as="sourcePoint" />
          </mxGeometry>
        </mxCell>
        <mxCell id="JNcHqP3WZGYwq6tifNxT-62" value="成功响应" style="verticalAlign=bottom;edgeStyle=elbowEdgeStyle;elbow=vertical;curved=0;rounded=0;dashed=1;dashPattern=2 3;endArrow=block;" edge="1" parent="1">
          <mxGeometry relative="1" as="geometry">
            <Array as="points">
              <mxPoint x="-279" y="3256" />
            </Array>
            <mxPoint x="-176.00000000000045" y="3256" as="sourcePoint" />
            <mxPoint x="-405" y="3256" as="targetPoint" />
          </mxGeometry>
        </mxCell>
        <mxCell id="JNcHqP3WZGYwq6tifNxT-63" value="处理结果" style="verticalAlign=bottom;edgeStyle=elbowEdgeStyle;elbow=vertical;curved=0;rounded=0;dashed=1;dashPattern=2 3;endArrow=block;" edge="1" parent="1">
          <mxGeometry relative="1" as="geometry">
            <Array as="points">
              <mxPoint x="-279" y="3328" />
            </Array>
            <mxPoint x="-176.00000000000045" y="3328" as="sourcePoint" />
            <mxPoint x="-405" y="3328" as="targetPoint" />
          </mxGeometry>
        </mxCell>
        <mxCell id="JNcHqP3WZGYwq6tifNxT-64" value="HTTP响应" style="verticalAlign=bottom;edgeStyle=elbowEdgeStyle;elbow=vertical;curved=0;rounded=0;dashed=1;dashPattern=2 3;endArrow=block;" edge="1" parent="1">
          <mxGeometry relative="1" as="geometry">
            <Array as="points">
              <mxPoint x="-523" y="3386" />
            </Array>
            <mxPoint x="-415" y="3386" as="sourcePoint" />
            <mxPoint x="-655.75" y="3386" as="targetPoint" />
          </mxGeometry>
        </mxCell>
        <mxCell id="JNcHqP3WZGYwq6tifNxT-66" value="" style="verticalAlign=bottom;edgeStyle=elbowEdgeStyle;elbow=vertical;curved=0;rounded=0;dashed=1;dashPattern=2 3;endArrow=block;" edge="1" parent="1">
          <mxGeometry relative="1" as="geometry">
            <Array as="points">
              <mxPoint x="233.00000000000045" y="3168" />
            </Array>
            <mxPoint x="514.5000000000005" y="3168" as="sourcePoint" />
            <mxPoint x="-167" y="3168" as="targetPoint" />
          </mxGeometry>
        </mxCell>
        <mxCell id="JNcHqP3WZGYwq6tifNxT-69" value="updateResult" style="edgeLabel;html=1;align=center;verticalAlign=middle;resizable=0;points=[];" vertex="1" connectable="0" parent="JNcHqP3WZGYwq6tifNxT-66">
          <mxGeometry x="-0.0095" y="-5" relative="1" as="geometry">
            <mxPoint as="offset" />
          </mxGeometry>
        </mxCell>
      </root>
    </mxGraphModel>
  </diagram>
  <diagram id="GEWLCBUiXuC9tlhHsB0Y" name="第 3 页">
    <mxGraphModel dx="1665" dy="751" grid="1" gridSize="10" guides="1" tooltips="1" connect="1" arrows="1" fold="1" page="1" pageScale="1" pageWidth="827" pageHeight="1169" math="0" shadow="0">
      <root>
        <mxCell id="0" />
        <mxCell id="1" parent="0" />
      </root>
    </mxGraphModel>
  </diagram>
  <diagram id="IM0vAeHwkMb4N-WLVTcD" name="第 4 页">
    <mxGraphModel dx="1665" dy="751" grid="1" gridSize="10" guides="1" tooltips="1" connect="1" arrows="1" fold="1" page="1" pageScale="1" pageWidth="827" pageHeight="1169" math="0" shadow="0">
      <root>
        <mxCell id="0" />
        <mxCell id="1" parent="0" />
      </root>
    </mxGraphModel>
  </diagram>
</mxfile>
